<svg width="153" height="154" viewBox="0 0 153 154" fill="none" xmlns="http://www.w3.org/2000/svg">
<ellipse cx="76.5" cy="77" rx="76.5" ry="77" fill="#F1F0F1"/>
<path d="M76.5 33.3669V62.5616L61.6058 45.6249C61.6058 45.6249 55.9384 38.3752 61.4737 32.9053C66.5131 27.9267 73.5342 30.2037 76.5 33.3669Z" fill="#E1549B"/>
<path d="M76.5 33.3669V62.5616L91.3942 45.6249C91.3942 45.6249 97.0616 38.3752 91.5263 32.9053C86.4869 27.9267 79.4658 30.2037 76.5 33.3669Z" fill="#DD1A72"/>
<path d="M59.2634 123.516C42.5746 123.516 29 109.94 29 93.2522C29 76.5663 42.5761 62.9902 59.2634 62.9902C75.9493 62.9902 89.5254 76.5663 89.5254 93.2522C89.5239 109.94 75.9493 123.516 59.2634 123.516ZM59.2634 68.9292C45.8506 68.9292 34.9375 79.8394 34.9375 93.2522C34.9375 106.665 45.8506 117.578 59.2634 117.578C72.6763 117.578 83.5879 106.665 83.5879 93.2522C83.5879 79.8394 72.6763 68.9292 59.2634 68.9292Z" fill="#FFEABA"/>
<path d="M93.7366 123.516C77.0507 123.516 63.4746 109.94 63.4746 93.2522C63.4746 76.5663 77.0507 62.9902 93.7366 62.9902C110.424 62.9917 124 76.5663 124 93.2522C124 109.94 110.424 123.516 93.7366 123.516ZM93.7366 68.9292C80.3237 68.9292 69.4121 79.8409 69.4121 93.2537C69.4121 106.666 80.3237 117.578 93.7366 117.578C107.149 117.578 118.063 106.665 118.063 93.2522C118.063 79.8394 107.149 68.9292 93.7366 68.9292Z" fill="#FFC590"/>
</svg>
