<svg width="95" height="95" viewBox="0 0 95 95" fill="none" xmlns="http://www.w3.org/2000/svg">
<g clip-path="url(#clip0_29_3)">
<rect width="95" height="95" fill="white"/>
<path d="M47.5 4.10909V33.3038L32.6058 16.3671C32.6058 16.3671 26.9384 9.11737 32.4737 3.64745C37.5131 -1.33115 44.5342 0.945886 47.5 4.10909Z" fill="#E1549B"/>
<path d="M47.5 4.10909V33.3038L62.3942 16.3671C62.3942 16.3671 68.0616 9.11737 62.5263 3.64745C57.4869 -1.33115 50.4658 0.945886 47.5 4.10909Z" fill="#DD1A72"/>
<path d="M30.2634 94.2578C13.5746 94.2578 0 80.6817 0 63.9944C0 47.3085 13.5761 33.7324 30.2634 33.7324C46.9493 33.7324 60.5254 47.3085 60.5254 63.9944C60.5239 80.6817 46.9493 94.2578 30.2634 94.2578ZM30.2634 39.6714C16.8506 39.6714 5.9375 50.5816 5.9375 63.9944C5.9375 77.4072 16.8506 88.3203 30.2634 88.3203C43.6763 88.3203 54.5879 77.4072 54.5879 63.9944C54.5879 50.5816 43.6763 39.6714 30.2634 39.6714Z" fill="#FFEABA"/>
<path d="M64.7366 94.2578C48.0507 94.2578 34.4746 80.6817 34.4746 63.9944C34.4746 47.3085 48.0507 33.7324 64.7366 33.7324C81.4239 33.7339 95 47.3085 95 63.9944C95 80.6817 81.4239 94.2578 64.7366 94.2578ZM64.7366 39.6714C51.3237 39.6714 40.4121 50.583 40.4121 63.9959C40.4121 77.4087 51.3237 88.3203 64.7366 88.3203C78.1494 88.3203 89.0625 77.4072 89.0625 63.9944C89.0625 50.5816 78.1494 39.6714 64.7366 39.6714Z" fill="#FFC590"/>
</g>
<defs>
<clipPath id="clip0_29_3">
<rect width="95" height="95" fill="white"/>
</clipPath>
</defs>
</svg>
