<svg width="150" height="151" viewBox="0 0 150 151" fill="none" xmlns="http://www.w3.org/2000/svg">
<g clip-path="url(#clip0_9_122)">
<g opacity="0.08">
<path d="M36.1181 83.7695L36.1351 83.7728C36.469 83.8155 36.8038 83.8591 37.1378 83.9083C36.7974 83.8591 36.4578 83.8139 36.1181 83.7695Z" fill="#3B4842"/>
</g>
<path fill-rule="evenodd" clip-rule="evenodd" d="M63.6482 49.9714C66.4498 51.3622 68.2463 53.2797 71.048 54.6712C73.0115 50.7168 74.9734 46.7624 76.9361 42.8088C74.1344 41.4172 71.332 40.0273 68.5311 38.6357C66.5676 42.591 65.0906 45.1353 63.6482 49.9714Z" fill="#E7B791"/>
<path fill-rule="evenodd" clip-rule="evenodd" d="M50.5112 74.8288L56.2363 58.0866C58.4603 54.2315 60.8812 50.8796 64.8961 46.8623C67.3259 48.8081 69.5806 51.191 72.5944 52.3244C73.944 54.3621 72.2919 60.8948 69.4306 64.7572L58.9218 79.5609L50.5112 74.8288Z" fill="#FFD8B8"/>
<path d="M66.8717 21.0162C64.0745 14.7696 56.6919 11.9961 50.3822 14.8215C44.0725 17.647 41.2251 25.0014 44.0223 31.248C46.8195 37.4947 54.2021 40.2681 60.5118 37.4427C66.8215 34.6173 69.6689 27.2629 66.8717 21.0162Z" fill="black"/>
<path fill-rule="evenodd" clip-rule="evenodd" d="M59.4945 34.8886C59.5098 34.9257 59.5203 34.9661 59.5284 35.004C59.6292 34.9895 59.7349 34.9975 59.8374 35.0338C60.1826 35.1532 60.3666 35.5283 60.248 35.8744C60.2343 35.9131 60.2181 35.9502 60.198 35.9841C60.2851 36.0366 60.3609 36.1116 60.4166 36.2052C60.6037 36.519 60.5037 36.9255 60.1899 37.1135C60.1544 37.1337 60.1189 37.1522 60.081 37.1651C60.1133 37.2619 60.1237 37.3684 60.1068 37.4757C60.0495 37.8355 59.7099 38.0823 59.3501 38.0259C59.3098 38.0194 59.2703 38.0089 59.234 37.9968C59.196 38.0912 59.1355 38.1791 59.0533 38.2501C58.7774 38.4889 58.3595 38.4607 58.1199 38.1848C58.0933 38.1549 58.0699 38.1211 58.0505 38.0872C57.9602 38.1356 57.8577 38.1638 57.7488 38.1654C57.3842 38.1719 57.0825 37.8807 57.0761 37.516C57.0752 37.4749 57.0793 37.4346 57.0849 37.3958C56.9849 37.3757 56.8889 37.3313 56.8042 37.2619C56.521 37.032 56.4767 36.6158 56.7058 36.3318C56.7316 36.2995 56.7598 36.2713 56.7897 36.2455C56.7268 36.1656 56.6808 36.0704 56.6606 35.9631C56.5904 35.605 56.8252 35.2565 57.1842 35.1871C57.2229 35.179 57.264 35.175 57.3019 35.175C57.306 35.0717 57.3318 34.9693 57.385 34.8741C57.5633 34.5547 57.965 34.4401 58.2853 34.6168C58.3208 34.6361 58.3539 34.6587 58.3837 34.6845C58.4515 34.6079 58.5378 34.5466 58.6402 34.5079C58.9823 34.3772 59.3638 34.5474 59.4945 34.8886Z" fill="white"/>
<path fill-rule="evenodd" clip-rule="evenodd" d="M59.5227 30.343C59.5373 30.3817 59.5477 30.4196 59.555 30.4591C59.6558 30.4438 59.7615 30.4527 59.8648 30.4882C60.2108 30.6076 60.394 30.9835 60.2754 31.3288C60.2617 31.3683 60.2447 31.4046 60.2254 31.4385C60.3125 31.4925 60.3883 31.5667 60.444 31.6603C60.6328 31.9733 60.5311 32.3799 60.2181 32.5678C60.1826 32.5888 60.1471 32.6066 60.1108 32.6203C60.1431 32.7171 60.1536 32.8227 60.135 32.9308C60.0777 33.2906 59.7389 33.5375 59.3783 33.481C59.338 33.4738 59.2993 33.4649 59.2614 33.4512C59.2243 33.5455 59.1638 33.6335 59.0815 33.7045C58.8056 33.9441 58.3877 33.9158 58.1481 33.6399C58.1215 33.6085 58.0981 33.5762 58.0779 33.5423C57.9892 33.5915 57.8868 33.619 57.7762 33.6206C57.4108 33.6278 57.1091 33.3358 57.1035 32.9704C57.1035 32.9292 57.1067 32.8897 57.1123 32.851C57.0139 32.83 56.9163 32.7864 56.8316 32.7187C56.5485 32.488 56.5041 32.0717 56.734 31.787C56.759 31.7555 56.788 31.7273 56.8179 31.7014C56.755 31.6216 56.709 31.5248 56.6888 31.4183C56.6194 31.0601 56.8526 30.7116 57.2124 30.6423C57.2519 30.6342 57.2922 30.6302 57.3318 30.6302C57.3342 30.5285 57.3624 30.4261 57.414 30.3301C57.5915 30.0106 57.9932 29.8953 58.3135 30.0727C58.3498 30.0921 58.3829 30.1147 58.4127 30.1397C58.4813 30.0639 58.5676 30.0025 58.6684 29.9638C59.0089 29.8315 59.3921 30.0017 59.5227 30.343Z" fill="white"/>
<path fill-rule="evenodd" clip-rule="evenodd" d="M60.8707 26.0313C60.8853 26.0701 60.8966 26.1096 60.9038 26.1475C61.0038 26.133 61.1095 26.1419 61.2136 26.1774C61.5597 26.2951 61.742 26.6727 61.6234 27.0179C61.6097 27.0567 61.5943 27.093 61.5742 27.1276C61.6605 27.1809 61.7363 27.2551 61.7928 27.3495C61.9799 27.6633 61.8791 28.0691 61.5661 28.257C61.5306 28.2772 61.4951 28.2949 61.4572 28.3086C61.4895 28.4063 61.4992 28.5119 61.4814 28.62C61.4241 28.9798 61.0861 29.2267 60.7247 29.1694C60.6844 29.1629 60.6457 29.1524 60.6086 29.1403C60.5707 29.2355 60.511 29.3235 60.4279 29.3936C60.152 29.6332 59.7341 29.6042 59.4945 29.3283C59.4679 29.2985 59.4437 29.2654 59.4235 29.2315C59.334 29.2799 59.2315 29.3081 59.1234 29.3098C58.758 29.317 58.4563 29.025 58.4499 28.6596C58.449 28.6184 58.4523 28.5789 58.4595 28.541C58.3595 28.52 58.2635 28.4748 58.178 28.4071C57.8932 28.1763 57.8505 27.7601 58.0796 27.4761C58.1054 27.4447 58.1344 27.4156 58.1635 27.3906C58.1006 27.3108 58.0538 27.2148 58.0336 27.1075C57.9634 26.7485 58.1982 26.4008 58.5563 26.3314C58.5967 26.3242 58.637 26.3193 58.6773 26.3193C58.679 26.2169 58.7072 26.1136 58.7588 26.0184C58.9363 25.6998 59.3388 25.5836 59.6583 25.7611C59.6938 25.7813 59.7269 25.8039 59.7575 25.8289C59.8245 25.7522 59.9116 25.6909 60.0132 25.6522C60.3569 25.5199 60.7393 25.6909 60.8707 26.0313Z" fill="white"/>
<path fill-rule="evenodd" clip-rule="evenodd" d="M64.229 21.8512C64.2685 21.8439 64.308 21.8326 64.3452 21.8189C64.3863 21.9109 64.4492 21.9972 64.5339 22.0658C64.8179 22.2949 65.2349 22.2513 65.4649 21.9673C65.4907 21.9359 65.5124 21.902 65.5318 21.8681C65.623 21.9141 65.727 21.9383 65.8351 21.9359C66.2014 21.9294 66.4926 21.6285 66.4853 21.2631C66.4837 21.222 66.4805 21.1824 66.4724 21.1437C66.5716 21.1203 66.6668 21.0719 66.7483 21.0001C67.0234 20.7605 67.0532 20.3427 66.8136 20.0676C66.787 20.0361 66.7588 20.0087 66.7273 19.9837C66.7878 19.9014 66.8298 19.8038 66.8475 19.6965C66.904 19.3351 66.6579 18.9955 66.2966 18.939C66.2562 18.9326 66.2167 18.9301 66.1772 18.9309C66.1707 18.8293 66.1401 18.7277 66.0844 18.6333C65.8956 18.3203 65.4899 18.2194 65.1769 18.4082C65.1414 18.4292 65.1091 18.4526 65.0793 18.4792C65.0091 18.405 64.9203 18.3469 64.8171 18.3114C64.4718 18.1928 64.0951 18.3767 63.9749 18.7212C63.9628 18.7607 63.9531 18.7995 63.9475 18.839C63.845 18.8277 63.7401 18.8398 63.6385 18.8785C63.2981 19.0092 63.127 19.3924 63.2577 19.7344C63.2723 19.7723 63.2908 19.8086 63.3094 19.8417C63.2255 19.899 63.1521 19.9756 63.0996 20.0716C62.9221 20.3903 63.0375 20.7936 63.357 20.9703C63.3925 20.9904 63.4304 21.0066 63.4667 21.0187C63.4376 21.1179 63.432 21.2236 63.453 21.3301C63.5239 21.6882 63.8708 21.9214 64.229 21.8512Z" fill="white"/>
<path fill-rule="evenodd" clip-rule="evenodd" d="M61.287 25.2804C61.3273 25.2723 61.366 25.2618 61.4023 25.2457C61.4427 25.3393 61.5072 25.424 61.5919 25.4942C61.8759 25.7241 62.2921 25.6789 62.522 25.3957C62.5478 25.3643 62.5696 25.3312 62.589 25.2965C62.6801 25.3417 62.7842 25.3659 62.8923 25.3643C63.2577 25.357 63.5489 25.0553 63.5425 24.6907C63.5417 24.6503 63.5377 24.61 63.5288 24.5713C63.628 24.5471 63.724 24.4995 63.8055 24.4285C64.0806 24.1881 64.1096 23.7702 63.8708 23.496C63.8434 23.4645 63.8144 23.4371 63.7845 23.4121C63.845 23.329 63.887 23.2322 63.9039 23.1249C63.9604 22.7635 63.7151 22.4239 63.3537 22.3674C63.3126 22.3609 63.2731 22.3577 63.2343 22.3585C63.2271 22.2577 63.1972 22.1552 63.1408 22.0633C62.9528 21.7487 62.5454 21.647 62.2324 21.8358C62.1969 21.8568 62.1647 21.881 62.1356 21.9076C62.0654 21.8334 61.9759 21.7753 61.8734 21.7406C61.5282 21.6212 61.1515 21.8043 61.0329 22.1496C61.0192 22.1883 61.0103 22.2278 61.0038 22.2666C60.9022 22.2553 60.7965 22.2682 60.6949 22.3077C60.3544 22.4392 60.1842 22.8208 60.3149 23.1628C60.3286 23.2007 60.3472 23.237 60.3673 23.2709C60.2826 23.3266 60.21 23.4048 60.1576 23.5C59.9801 23.8186 60.0955 24.2212 60.4149 24.3987C60.4504 24.418 60.4875 24.4342 60.5247 24.4471C60.4956 24.5447 60.49 24.6512 60.5101 24.7584C60.5811 25.1158 60.9288 25.3489 61.287 25.2804Z" fill="white"/>
<path d="M89.9341 26.2246C86.3734 18.2729 76.8275 14.8088 68.6128 18.4873C60.398 22.1658 56.6252 31.5939 60.1859 39.5456C63.7465 47.4973 73.2924 50.9613 81.5072 47.2828C89.7219 43.6043 93.4948 34.1762 89.9341 26.2246Z" fill="#FFD8B8"/>
<path fill-rule="evenodd" clip-rule="evenodd" d="M91.2549 31.6879C91.6639 31.245 92.0745 32.7318 91.6703 33.6546C91.8744 34.4936 91.7083 35.0292 91.4259 35.2196C90.5926 35.7819 89.1744 34.417 91.2549 31.6879Z" fill="#E7B791"/>
<path fill-rule="evenodd" clip-rule="evenodd" d="M56.2355 58.0864C57.2325 58.6713 68.2568 56.3706 71.6385 60.3895C71.1262 61.9344 70.3857 63.4663 69.4298 64.757L59.7543 78.8257L56.5388 77.7528L50.5055 75.9071L56.2355 58.0864Z" fill="#FCF7F9"/>
<path fill-rule="evenodd" clip-rule="evenodd" d="M81.6214 18.2313C77.2418 19.5857 71.1408 37.1353 72.0959 48.5517C66.979 47.7361 62.4132 44.5198 60.1875 39.5482C56.6259 31.5966 60.3988 22.1687 68.6142 18.4902C72.9373 16.5557 77.6274 16.5977 81.6214 18.2313Z" fill="black"/>
<path d="M74.8295 35.4286C73.2789 33.3832 70.9608 32.5295 69.6518 33.5218C68.3427 34.5142 68.5385 36.9767 70.089 39.0221C71.6396 41.0675 73.9577 41.9211 75.2667 40.9288C76.5757 39.9365 76.38 37.4739 74.8295 35.4286Z" fill="#FFD8B8"/>
<path fill-rule="evenodd" clip-rule="evenodd" d="M87.0052 53.9475C73.8117 37.9063 76.8441 21.6305 81.7738 18.1504C73.2059 19.8945 69.6952 37.3997 87.0052 53.9475Z" fill="black"/>
<path fill-rule="evenodd" clip-rule="evenodd" d="M59.0613 14.4884C47.7934 32.9029 46.0784 52.0562 52.4263 74.3097C37.6162 78.4383 27.2251 77.9971 15.8491 71.2467C18.1184 50.2331 34.3515 5.91409 59.0613 14.4884Z" fill="#F9EDF2"/>
<path d="M65.7152 147.363C65.7032 145.487 62.6643 143.985 58.9277 144.009C55.1911 144.033 52.1717 145.573 52.1837 147.45C52.1957 149.326 55.2346 150.828 58.9712 150.804C62.7078 150.78 65.7272 149.24 65.7152 147.363Z" fill="white"/>
<path fill-rule="evenodd" clip-rule="evenodd" d="M68.1157 54.6892C71.236 64.0976 77.9565 76.991 86.4591 85.9316L83.9591 88.2097C74.9258 80.9382 64.876 67.7899 61.6347 60.8346C57.7642 52.5272 64.9671 45.1976 68.1157 54.6892Z" fill="#FFD8B8"/>
<path fill-rule="evenodd" clip-rule="evenodd" d="M91.4275 86.1535C90.5789 85.0919 89.8141 85.1846 89.322 86.0099C88.2733 84.2892 86.1816 83.8657 85.3563 84.5272C83.7494 85.8114 83.8623 88.6236 85.6088 90.8073C87.3553 92.991 90.0731 93.7187 91.68 92.4336C93.2878 91.1477 93.1748 88.3372 91.4275 86.1535Z" fill="#FFD8B8"/>
<path fill-rule="evenodd" clip-rule="evenodd" d="M61.1361 73.5463C66.9564 77.583 68.0189 104.537 68.3996 108.969C69.0926 117.014 69.1547 137.337 72.6517 143.35C76.1487 149.36 70.7753 150.487 65.9594 148.289C61.4282 146.221 58.3926 145.456 55.3715 146.203C51.0508 147.269 48.9204 146.315 44.2916 144.211C39.983 142.251 36.9998 141.107 30.5648 140.46C25.5174 139.951 23.1779 138.413 21.2628 136.422C18.5015 133.547 16.5776 133.39 11.8052 132.489C7.03276 131.588 2.63789 127.913 8.81878 124.726C14.9997 121.539 25.6367 104.337 30.5463 97.9254C35.4566 91.5146 40.5235 81.5713 45.6791 77.2522C48.4275 74.9499 49.8763 73.8697 50.6225 72.9775L61.1361 73.5463Z" fill="#FCF7F9"/>
<path fill-rule="evenodd" clip-rule="evenodd" d="M22.1478 137.273C21.8396 136.998 21.5476 136.715 21.2645 136.42C18.6637 133.715 16.8059 133.417 12.6111 132.64C18.9436 127.116 34.0498 107.607 38.7875 98.2246C36.5497 109.877 26.3079 130.533 22.1478 137.273Z" fill="#FFE0E9"/>
<path fill-rule="evenodd" clip-rule="evenodd" d="M65.264 147.976C61.1127 146.146 58.2361 145.495 55.3731 146.202C55.1593 146.255 54.952 146.303 54.7479 146.347C54.9319 138.097 57.4068 115.743 61.7073 104.913C60.6578 115.36 62.8963 139.891 65.264 147.976Z" fill="#FFE0E9"/>
<path fill-rule="evenodd" clip-rule="evenodd" d="M43.7825 143.98C40.292 142.41 37.5807 141.39 32.9268 140.741C39.211 129.959 48.388 107.318 50.3176 101.328C48.7187 107.428 44.2698 131.527 43.7825 143.98Z" fill="#FFE0E9"/>
<path fill-rule="evenodd" clip-rule="evenodd" d="M123.03 22.3289C111.223 13.7764 86.5132 22.942 87.7676 5.70215C93.216 10.9094 94.9609 8.79905 102.5 8.14321C110.106 7.48172 119.716 10.6609 123.03 22.3289Z" fill="black"/>
<path fill-rule="evenodd" clip-rule="evenodd" d="M123.582 23.0745C113.362 12.6754 87.4715 17.6011 91.5775 0.810547C96.0837 6.85188 98.1553 5.06102 105.699 5.67007C113.307 6.28316 122.255 11.0177 123.582 23.0745Z" fill="black"/>
<path fill-rule="evenodd" clip-rule="evenodd" d="M118.253 117.116L117.406 100.814L117.076 90.4363L116.708 79.4846L130.011 78.7207L128.479 115.354L118.253 117.116Z" fill="#2F3A35"/>
<path fill-rule="evenodd" clip-rule="evenodd" d="M116.959 86.9785L117.126 86.9736L117.076 90.4384V90.4368L116.959 86.9785Z" fill="#2F3A35"/>
<path fill-rule="evenodd" clip-rule="evenodd" d="M120.538 145.166L118.217 114.019L128.48 115.404L127.761 145.018C125.354 145.067 122.946 145.117 120.538 145.166Z" fill="#2F3A35"/>
<path d="M127.626 144.299C127.209 142.284 123.618 141.324 119.605 142.155C115.593 142.987 112.679 145.294 113.097 147.309C113.514 149.324 117.105 150.284 121.117 149.453C125.13 148.621 128.044 146.314 127.626 144.299Z" fill="#91613A"/>
<path d="M106.766 45.1387L115.163 43.1533L114.113 38.7137L105.716 40.6991L106.766 45.1387Z" fill="white"/>
<path fill-rule="evenodd" clip-rule="evenodd" d="M112.363 81.338L131.265 74.8086L132.833 78.546L113.696 85.1561L112.363 81.338Z" fill="#1A1A1A"/>
<path fill-rule="evenodd" clip-rule="evenodd" d="M109.559 41.7578C116.422 55.7999 118.382 65.2391 115.05 73.4601L111.107 66.02L108.108 47.7459L105.772 42.2063L109.559 41.7578Z" fill="white"/>
<path fill-rule="evenodd" clip-rule="evenodd" d="M105.245 43.7147C105.441 43.0548 105.794 40.738 106.167 41.1744C106.678 41.7746 107.991 45.7476 107.938 46.5349C107.899 47.1069 106.235 45.4572 105.683 45.0425C105.459 44.7271 105.253 44.1035 105.245 43.7147Z" fill="#212E36"/>
<path fill-rule="evenodd" clip-rule="evenodd" d="M105.006 43.4201L105.491 43.3556C105.615 43.3386 105.729 43.4274 105.746 43.5516L105.957 45.1343C105.974 45.2586 105.886 45.3739 105.762 45.3901L105.277 45.4546C105.153 45.4715 105.038 45.3828 105.021 45.2594L104.811 43.6758C104.794 43.5516 104.882 43.4371 105.006 43.4201Z" fill="#405059"/>
<path fill-rule="evenodd" clip-rule="evenodd" d="M132.314 77.3015L115.391 40.1201L109.704 43.6107L108.8 70.134L113.206 83.8042L132.314 77.3015Z" fill="#2F3A35"/>
<path fill-rule="evenodd" clip-rule="evenodd" d="M110.321 48.8472C107.173 59.2511 100.181 73.5813 91.121 83.6254L93.9283 86.0519C103.619 77.818 114.253 63.112 117.603 55.3943C121.605 46.1762 113.496 38.3521 110.321 48.8472Z" fill="#3B4842"/>
<path fill-rule="evenodd" clip-rule="evenodd" d="M87.8385 82.9451C86.76 83.772 86.839 84.5384 87.6546 85.0466C85.913 86.0614 85.4483 88.1443 86.0921 88.9824C87.3457 90.6144 90.1586 90.5579 92.3762 88.855C94.5946 87.1537 95.3763 84.4496 94.1235 82.8177C92.8707 81.1857 90.057 81.2422 87.8385 82.9451Z" fill="#FFD8B8"/>
<path d="M126.474 24.9106C126.955 15.3696 119.355 7.23189 109.499 6.73448C99.6423 6.23707 91.2618 13.5683 90.7803 23.1093C90.2988 32.6503 97.8987 40.788 107.755 41.2854C117.612 41.7828 125.992 34.4516 126.474 24.9106Z" fill="#FFD8B8"/>
<path fill-rule="evenodd" clip-rule="evenodd" d="M96.0967 11.6291C99.9632 23.8126 121.839 29.5272 117.874 38.8373C122.781 35.9719 126.171 30.8712 126.472 24.9048C126.953 15.3641 119.352 7.22694 109.495 6.73001C104.307 6.46784 99.53 8.37406 96.0967 11.6291Z" fill="black"/>
<path d="M116.145 28.2966C116.918 25.5903 116.14 22.9956 114.408 22.5011C112.676 22.0067 110.645 23.7997 109.873 26.506C109.1 29.2124 109.878 31.8071 111.61 32.3015C113.342 32.796 115.373 31.0029 116.145 28.2966Z" fill="#FFD8B8"/>
<path fill-rule="evenodd" clip-rule="evenodd" d="M92.8167 15.4234C96.6251 16.769 100.15 18.3985 104.306 22.0416C108.875 26.0468 120.422 9.19899 113.248 7.19032C106.073 5.18408 97.4672 4.404 92.8167 15.4234Z" fill="black"/>
<path fill-rule="evenodd" clip-rule="evenodd" d="M144.221 93.8516C138.257 93.9379 128.818 86.4574 124.972 81.1413L127.909 69.3789C127.909 69.3789 140.185 85.8145 144.221 93.8516Z" fill="#1A1A1A"/>
<path fill-rule="evenodd" clip-rule="evenodd" d="M125.426 79.3246L127.908 69.3789C127.908 69.3789 138.463 83.3347 143.082 91.7372C137.908 92.022 129.246 83.8784 125.426 79.3246Z" fill="#2F3A35"/>
<path fill-rule="evenodd" clip-rule="evenodd" d="M84.9957 28.3283C86.3897 29.836 89.8843 27.9765 88.8251 26.293C88.8396 27.6506 86.1291 28.6171 84.9957 28.3283Z" fill="#666666"/>
<path fill-rule="evenodd" clip-rule="evenodd" d="M92.164 24.8549C93.1805 26.6401 97.005 25.6197 96.3556 23.7393C96.062 25.0655 93.2031 25.3922 92.164 24.8549Z" fill="#666666"/>
<path fill-rule="evenodd" clip-rule="evenodd" d="M92.5876 31.4263C92.0358 31.1835 92.2528 32.7105 92.9917 33.3946C93.1393 34.2465 93.5056 34.6708 93.8412 34.7321C94.8294 34.9152 95.5852 33.0978 92.5876 31.4263Z" fill="#E7B791"/>
</g>
<defs>
<clipPath id="clip0_9_122">
<rect width="150" height="150" fill="white" transform="translate(0 0.810547)"/>
</clipPath>
</defs>
</svg>
