<svg width="242" height="181" viewBox="0 0 242 181" fill="#fff" xmlns="http://www.w3.org/2000/svg">
<path d="M210.012 91.9707C201.779 90.6888 196.983 96.7158 191.41 103.692C190.143 105.268 188.941 106.952 187.712 108.664C187.589 108.837 187.447 109.011 187.329 109.193C187.83 105.035 186.4 101.242 183.094 98.1906C183.249 97.8713 183.458 97.5893 183.554 97.243C183.886 95.9223 183.686 94.556 182.998 93.3722C181.614 91.0411 178.335 90.1938 175.986 91.587C174.811 92.2795 173.977 93.3901 173.645 94.7108C173.303 96.0405 173.504 97.4158 174.205 98.5997C175.116 100.14 176.801 101.095 178.585 101.095C179.496 101.095 180.411 100.84 181.199 100.376C181.363 100.28 181.472 100.111 181.622 99.9929C185.862 104 186.189 109.415 182.579 115.303C178.712 119.721 174.126 123.144 167.328 123.144C167.278 123.144 167.236 123.144 167.204 123.144C163.812 123.127 160.734 121.943 158.27 119.898C161.859 117.698 164.973 114.756 167.355 111.173C171.712 104.666 173.265 96.819 171.727 89.1206C171.663 88.793 171.466 88.5373 171.221 88.3735C173.543 88.1454 176.581 87.8178 176.831 83.0794C176.927 81.1873 175.565 79.391 178.661 74.5277C178.661 74.5277 175.082 74.2727 172.213 77.0509C171.744 73.6811 169.271 72.5997 170.228 69.1999C170.228 69.1999 163.575 71.3859 165.765 77.9887C162.223 75.9419 158.762 77.131 158.762 77.131C162.974 81.0408 162.158 83.1235 162.742 84.9378C164.262 89.674 167.505 88.9202 169.864 88.5425C169.572 88.8087 169.372 89.1617 169.453 89.5715C170.865 96.6597 169.435 103.863 165.437 109.865C163.105 113.353 160.022 116.095 156.502 118.136C153.752 114.848 152.445 110.358 152.941 105.677C153.811 103.564 154.266 101.309 154.307 99.0461C156.256 97.9849 160.432 94.8881 154.458 89.7974C153.378 88.8865 150.923 86.981 149.854 83.9028C149.854 83.9028 143.305 97.8802 151.949 99.2473C151.853 102.266 150.92 105.258 149.134 107.854C146.643 111.479 142.855 113.956 138.474 114.83C134.962 115.518 131.388 114.839 128.466 112.881C126.469 111.553 124.978 109.74 124.022 107.645C123.658 106.652 123.296 105.659 123.074 104.594C123.074 104.585 123.065 104.585 123.065 104.576C122.656 102.08 123.202 99.5577 124.67 97.4263C126.209 95.1947 128.536 93.6735 131.237 93.1366C133.35 92.717 135.518 93.1276 137.302 94.3107C139.015 95.4497 140.171 97.1705 140.572 99.1471C141.214 102.362 139.033 105.523 135.699 106.197C135.071 106.324 134.661 106.935 134.793 107.572C134.916 108.192 135.476 108.611 136.169 108.483C140.745 107.555 143.751 103.165 142.863 98.6924C142.352 96.0914 140.822 93.856 138.6 92.367C136.3 90.8279 133.518 90.2932 130.786 90.8459C127.514 91.513 124.684 93.355 122.805 96.0502V94.129C124.311 93.1732 133.309 87.0887 133.144 78.1062C133.067 75.3189 131.245 72.7852 129.629 70.5498C128.195 68.58 126.847 66.7156 127.095 65.2834C127.304 64.0809 128.185 63.6621 129.629 63.1244C130.754 62.6876 132.307 62.1043 132.266 60.4104C132.192 56.9224 127.566 54.2832 121.489 54.2832L121.116 54.2929C117.133 54.3685 113.502 55.6406 111.616 57.5992C110.681 58.5826 110.195 59.7119 110.223 60.8591C110.26 62.5508 111.832 63.072 112.985 63.4549C114.437 63.9425 115.339 64.3344 115.594 65.5227C115.888 66.9437 114.629 68.8559 113.288 70.8849C111.767 73.18 110.036 75.7848 110.079 78.5691C110.232 86.7117 117.885 92.1756 120.474 93.8201V96.8661C118.705 93.8702 115.736 91.5661 112.029 90.8369C109.329 90.3112 106.591 90.8003 104.31 92.2893C102.022 93.7738 100.474 96.042 99.9415 98.6827C99.504 100.864 99.9594 103.082 101.223 104.936C102.486 106.784 104.404 108.036 106.611 108.477C107.282 108.583 107.865 108.191 107.982 107.581C108.098 106.948 107.692 106.319 107.073 106.201C105.454 105.887 104.066 104.953 103.145 103.624C102.246 102.303 101.9 100.7 102.228 99.1426C102.629 97.1256 103.821 95.3861 105.579 94.2524C107.346 93.1044 109.489 92.7043 111.571 93.1224C116.999 94.2112 120.581 99.2929 119.723 104.562C119.723 104.571 119.714 104.58 119.714 104.589C119.496 105.659 119.131 106.652 118.767 107.645C116.333 112.914 110.388 116.046 104.306 114.821C96.5237 113.273 91.0778 106.652 90.8243 99.2383C99.4651 97.872 92.9235 83.8991 92.9235 83.8991C91.8466 86.978 89.3899 88.8745 88.3174 89.8168C82.3428 94.8948 86.5121 97.9917 88.47 99.0476C88.5134 100.969 88.9187 102.814 89.5245 104.59C89.2351 104.826 89.0302 105.155 89.0533 105.564C89.5724 110.16 88.3227 114.585 85.6812 117.873C76.3322 112.126 71.0403 100.979 73.3153 89.603C73.4088 89.1684 73.1949 88.8102 72.8786 88.5395C75.2284 88.9112 78.507 89.7054 80.0304 84.9446C80.613 83.1205 79.7656 81.0467 84.0083 77.1369C84.0083 77.1369 80.5404 75.9351 77.0135 77.9955C79.1973 71.3919 72.542 69.2067 72.542 69.2067C73.5075 72.6057 71.0284 73.6878 70.5475 77.0689C67.6966 74.2794 64.1151 74.5456 64.1151 74.5456C67.1933 79.4089 65.8502 81.2128 65.9481 83.1071C66.1964 87.8634 69.2701 88.1618 71.5908 88.3982C71.3125 88.553 71.1061 88.8102 71.0373 89.1542C68.6075 101.343 74.1612 113.283 84.0524 119.613C81.5343 121.849 78.326 123.147 74.7901 123.165C74.7445 123.165 74.6921 123.165 74.6697 123.165C67.8933 123.165 63.2962 119.745 59.4163 115.314C55.8206 109.403 56.1377 104.012 60.3773 100.013C60.5321 100.122 60.6391 100.3 60.8006 100.396C61.5888 100.865 62.49 101.106 63.4174 101.106C65.2137 101.106 66.8874 100.15 67.7954 98.6199C68.4968 97.427 68.6973 96.051 68.3555 94.722C68.0257 93.4103 67.1896 92.29 66.0147 91.5975C63.6694 90.2042 60.3908 91.0628 59.002 93.4013C58.3162 94.5755 58.1158 95.9418 58.4463 97.2625C58.5443 97.599 58.7357 97.8914 58.9085 98.2011C55.6022 101.252 54.1566 105.059 54.6734 109.203C54.553 109.02 54.4183 108.848 54.2912 108.675C53.0617 106.962 51.8569 105.277 50.5938 103.711C45.0177 96.7345 40.2 90.7023 31.9892 91.9796C31.3498 92.0799 30.9212 92.6722 31.0192 93.3235C31.1172 93.9742 31.6998 94.3937 32.3534 94.289C38.1912 93.3325 41.8849 96.7158 46.9891 102.945C42.7928 101.123 38.4275 101.516 34.4138 104.293C33.8761 104.657 33.7422 105.386 34.1199 105.929C34.4773 106.443 35.2147 106.585 35.7412 106.216C40.8895 102.646 46.5613 103.711 51.6954 109.225C51.75 109.272 51.8113 109.262 51.8659 109.299C52.0484 109.567 52.2346 109.785 52.4171 110.036C52.8448 110.628 53.2936 111.238 53.7124 111.853C52.4492 111.393 51.1352 111.212 49.7397 111.362C49.6941 110.97 49.6941 110.568 49.5116 110.195C48.8834 108.938 47.6195 108.1 46.672 107.919C35.4952 105.86 34.5746 124.23 34.5476 124.968C34.5334 125.396 34.7481 125.797 35.1168 126.015C35.2992 126.125 35.5086 126.179 35.7135 126.179C35.9185 126.179 36.1234 126.125 36.3059 126.015C39.5987 124.066 41.5521 123.63 43.4696 123.588C48.315 123.451 52.4043 122.964 53.3556 118.484C53.7385 116.671 53.4805 115.15 52.6048 113.939C55.3599 114.722 57.8735 117.117 60.6443 120.077C60.7512 120.182 60.9247 120.182 61.0638 120.259C64.6454 123.328 68.9575 125.496 74.6802 125.496C74.7415 125.496 74.7781 125.496 74.835 125.496C79.2092 125.469 83.1527 123.784 86.1651 120.842C88.6061 122.122 91.2767 123.096 94.1156 123.661C95.6734 123.98 97.2305 124.14 98.7606 124.14C108.185 124.14 116.737 118.434 120.482 109.804L120.439 120.534C120.439 121.171 120.962 121.699 121.605 121.699C122.254 121.699 122.771 121.171 122.771 120.534V110.715C126.716 118.821 134.953 124.122 144.033 124.122C145.572 124.122 147.13 123.967 148.687 123.657C151.306 123.138 153.806 122.245 156.137 121.08C159.115 123.858 162.95 125.452 167.189 125.479C167.239 125.479 167.285 125.479 167.331 125.479C173.059 125.479 177.371 123.298 180.946 120.242C181.092 120.164 181.251 120.164 181.369 120.06C184.143 117.078 186.656 114.705 189.416 113.922C188.542 115.124 188.292 116.645 188.66 118.457C189.612 122.938 193.701 123.42 198.546 123.557C200.464 123.625 202.417 124.048 205.71 125.998C205.892 126.107 206.098 126.162 206.302 126.162C206.507 126.162 206.717 126.108 206.899 125.998C207.267 125.779 207.481 125.379 207.468 124.951C207.441 124.214 206.667 105.843 195.337 107.902C194.402 108.083 193.118 108.922 192.504 110.178C192.322 110.552 192.322 110.952 192.271 111.344C190.873 111.199 189.562 111.39 188.296 111.827C188.733 111.225 189.17 110.625 189.598 110.023C189.781 109.768 189.967 109.541 190.149 109.286C190.203 109.249 190.277 109.259 190.322 109.212C195.454 103.712 201.115 102.646 206.274 106.217C206.798 106.558 207.531 106.445 207.904 105.916C208.26 105.388 208.132 104.659 207.608 104.295C203.577 101.504 199.215 101.112 195.026 102.947C200.14 96.7173 203.815 93.3198 209.676 94.2763C210.354 94.3765 210.906 93.939 210.997 93.3108C211.078 92.6714 210.654 92.0709 210.012 91.9707ZM181.291 96.6694C181.109 97.3896 180.645 97.9909 180.016 98.3723C178.723 99.1292 176.97 98.673 176.208 97.4068C175.826 96.7607 175.725 96.0136 175.912 95.2949C176.099 94.5747 176.55 93.9652 177.178 93.592C177.615 93.3363 178.098 93.2001 178.608 93.2001C179.601 93.2001 180.484 93.7109 181.008 94.5665C181.358 95.2036 181.468 95.95 181.291 96.6694ZM60.9868 94.5665C61.4969 93.7102 62.3965 93.2001 63.3889 93.2001C63.8833 93.2001 64.3821 93.337 64.8166 93.592C65.4583 93.9652 65.9025 94.5747 66.085 95.2949C66.2675 96.0136 66.1688 96.7607 65.7866 97.4068C65.026 98.673 63.2775 99.1292 61.9912 98.3723C61.3376 97.9902 60.8888 97.3896 60.7071 96.6694C60.5112 95.95 60.6091 95.2036 60.9868 94.5665ZM51.0455 117.972C50.5878 120.085 49.3807 121.05 43.3702 121.224C41.7421 121.27 39.8545 121.52 37.0432 122.927C37.5324 118.787 39.2764 110.062 45.0125 110.062C45.3999 110.062 45.8052 110.122 46.224 110.168C46.4334 110.217 47.1005 110.591 47.4101 111.201C47.5081 111.402 47.535 111.602 47.5216 111.811C45.6452 112.472 43.6372 113.697 41.431 115.741C40.9553 116.178 40.9411 116.915 41.3651 117.39C41.8139 117.854 42.549 117.891 43.0164 117.453C44.9953 115.631 46.7483 114.566 48.3607 114.047C48.5431 114.07 49.9386 114.288 50.6828 115.309C51.1621 115.942 51.2826 116.844 51.0455 117.972ZM94.5307 121.37C92.1009 120.887 89.8244 120.068 87.7117 119.001C89.9358 116.088 91.2296 112.481 91.4091 108.61C94.1044 112.835 98.4742 116.05 103.836 117.116C104.881 117.325 105.909 117.412 106.937 117.412C109.139 117.412 111.242 116.915 113.178 116.055C108.313 120.55 101.482 122.772 94.5307 121.37ZM120.446 90.9865C117.552 88.9097 112.507 84.4585 112.384 78.5362C112.347 76.4691 113.798 74.2831 115.2 72.1697C116.824 69.7219 118.363 67.4133 117.846 65.0404C117.299 62.4423 115.132 61.7251 113.695 61.254C113.265 61.1171 112.627 60.8987 112.529 60.815C112.512 60.2982 112.767 59.747 113.277 59.2213C114.725 57.7099 117.803 56.6898 121.137 56.6232L121.464 56.6143C126.399 56.6143 129.872 58.6477 129.927 60.3872C129.809 60.551 129.171 60.7881 128.752 60.9429C127.338 61.4776 125.203 62.2883 124.77 64.896C124.351 67.3026 125.981 69.541 127.702 71.9289C129.175 73.9758 130.715 76.1071 130.774 78.1675C130.878 84.3882 125.463 89.2515 122.763 91.2804V84.7613C125.227 84.1967 127.092 82.0661 127.035 79.4314C126.968 76.4325 124.587 74.0917 121.49 74.0917C118.478 74.1575 116.097 76.6419 116.146 79.6355C116.203 82.1767 118.045 84.2004 120.436 84.7568L120.446 90.9865ZM122.065 82.5596C121.922 82.4751 121.776 82.3682 121.599 82.3682C121.426 82.3682 121.3 82.4751 121.137 82.5596C119.663 82.3323 118.497 81.1096 118.474 79.5996C118.443 77.8781 119.808 76.4459 121.589 76.41C123.297 76.41 124.667 77.7487 124.704 79.4493C124.748 81.0415 123.591 82.3233 122.065 82.5596ZM148.22 121.37C141.326 122.763 134.546 120.568 129.687 116.16C131.604 116.984 133.662 117.425 135.766 117.425C136.818 117.425 137.866 117.325 138.918 117.116C143.681 116.168 147.766 113.522 150.608 109.702C150.967 113.264 152.306 116.551 154.419 119.238C152.451 120.167 150.415 120.932 148.22 121.37ZM191.273 115.304C192.024 114.275 193.449 114.065 193.613 114.047C195.234 114.561 196.988 115.631 198.955 117.444C199.442 117.891 200.162 117.844 200.608 117.38C201.046 116.894 201.018 116.16 200.54 115.727C198.336 113.687 196.342 112.462 194.456 111.802C194.438 111.601 194.47 111.401 194.569 111.192C194.865 110.582 195.544 110.209 195.744 110.168C196.167 110.094 196.573 110.054 196.96 110.054C202.693 110.054 204.437 118.779 204.929 122.913C202.114 121.511 200.216 121.26 198.599 121.215C192.588 121.042 191.372 120.077 190.921 117.963C190.685 116.852 190.808 115.951 191.273 115.304Z" fill="white"/>
</svg>
