<svg width="220" height="181" viewBox="0 0 220 181" fill="none" xmlns="http://www.w3.org/2000/svg">
<path d="M199.857 83.7267C199.565 82.4401 198.813 81.3142 197.779 80.5344C198.614 79.5478 199.079 78.2999 199.079 76.9456C199.079 76.0019 198.844 75.1174 198.387 74.2817C197.783 73.1903 196.844 72.3414 195.714 71.8773C195.901 70.6714 195.689 69.4194 195.075 68.3429C194.624 67.5154 193.972 66.8197 193.189 66.3433C192.081 65.6592 190.755 65.3699 189.456 65.5611C189.351 64.2703 188.79 63.0422 187.852 62.1165C187.178 61.453 186.374 60.9708 185.474 60.7277C184.283 60.3881 183.005 60.4524 181.884 60.9148C181.167 59.9174 180.132 59.1954 178.937 58.8475C178.046 58.5846 177.081 58.5714 176.186 58.7717C174.895 59.0717 173.768 59.8284 172.991 60.8736C171.308 59.4715 168.748 59.141 166.744 60.2545C165.654 60.8736 164.819 61.8132 164.35 62.9251C163.15 62.743 161.88 62.9713 160.82 63.5614C159.994 64.0164 159.321 64.6527 158.812 65.4671C158.099 66.6062 157.833 67.9193 158.025 69.1968C156.725 69.3032 155.496 69.8727 154.57 70.8033C153.922 71.4726 153.435 72.2944 153.183 73.1763C152.839 74.3781 152.913 75.6318 153.374 76.7684C152.378 77.4839 151.652 78.5183 151.317 79.7044C151.057 80.6086 151.04 81.5647 151.244 82.4648C151.535 83.7556 152.292 84.8815 153.334 85.6505C152.499 86.6438 152.026 87.9041 152.034 89.2171C152.026 90.1584 152.269 91.089 152.726 91.9008C153.152 92.6707 153.791 93.2617 154.508 93.748C151.744 95.6347 146.889 99.6422 144.011 102.433C142.529 103.867 141.077 105.428 139.612 106.988C139.364 107.257 139.117 107.519 138.864 107.787C139.864 104.267 139.451 100.82 137.56 97.6772C138.338 97.8948 139.173 98.0597 140.069 98.0597C142.233 98.0597 145.355 97.1991 147.945 93.0738C151.931 86.7278 148.75 81.5689 141.047 73.7014C138.256 70.8239 135.974 67.3621 133.91 59.8358C133.892 59.7559 133.827 59.7163 133.801 59.6487C133.766 59.582 133.745 59.5424 133.71 59.4839C133.554 59.2795 133.358 59.1105 133.098 59.0454C132.832 58.9687 132.589 59.0454 132.354 59.1649C132.285 59.1995 132.245 59.2283 132.189 59.263C132.133 59.3067 132.068 59.3231 132.015 59.3693C131.424 60.0279 117.506 75.7843 119.14 88.4571C119.684 92.6402 121.853 96.0221 125.595 98.5039C126.477 99.0949 127.886 99.451 129.264 99.451C131.48 99.451 133.236 98.5814 134.363 97.0516C138.371 101.746 138.054 107.397 133.524 113.078C128.96 117.12 123.769 120.037 116.754 119.106C115.045 118.871 113.476 118.315 112.02 117.576C113.209 116.59 114.306 115.507 115.19 114.208C118.136 109.883 119.05 104.25 117.693 98.7207C117.545 98.1297 116.954 97.7555 116.349 97.8948C115.749 98.0432 115.385 98.6424 115.532 99.2515C116.737 104.163 115.936 109.166 113.347 112.96C112.43 114.308 111.273 115.394 109.996 116.334C108.722 115.394 107.561 114.308 106.644 112.96C104.054 109.157 103.257 104.154 104.458 99.2515C104.606 98.6432 104.241 98.0432 103.643 97.8948C103.043 97.7555 102.448 98.1297 102.3 98.7207C100.946 104.25 101.864 109.896 104.806 114.208C105.691 115.507 106.79 116.59 107.975 117.576C106.514 118.315 104.947 118.871 103.239 119.106C96.2231 120.045 91.0377 117.132 86.4794 113.086C81.9352 107.422 81.6113 101.741 85.6296 97.0466C86.7597 98.5765 88.5137 99.446 90.7302 99.446C92.115 99.446 93.5162 99.0891 94.399 98.4982C98.142 96.0122 100.319 92.6435 100.856 88.4514C102.49 75.7653 88.5723 60.0221 87.9804 59.3635C87.9302 59.305 87.8634 59.2869 87.8065 59.2564C87.748 59.2061 87.7093 59.1715 87.6417 59.1591C87.4133 59.0388 87.1661 58.9638 86.899 59.0388C86.6361 59.1039 86.4399 59.2737 86.2833 59.4822C86.2445 59.5366 86.2181 59.5754 86.1901 59.6388C86.1555 59.7105 86.097 59.7493 86.0797 59.8301C84.0149 67.3563 81.7308 70.8181 78.9448 73.6857C71.2445 81.5639 68.0628 86.7229 72.0415 93.0606C74.6281 97.1942 77.7463 98.0465 79.9158 98.0465C80.8175 98.0465 81.65 97.8816 82.4257 97.664C80.5373 100.798 80.1243 104.249 81.1217 107.774C80.8719 107.501 80.6222 107.243 80.3716 106.97C78.9093 105.396 77.457 103.844 75.9749 102.41C73.0999 99.6282 68.24 95.6166 65.4754 93.7307C66.1925 93.2526 66.8272 92.6658 67.2509 91.8959C67.7174 91.0651 67.9589 90.1353 67.9507 89.2121C67.9548 87.8999 67.4817 86.6306 66.6492 85.6374C67.6877 84.8642 68.4444 83.7375 68.7379 82.4516C68.9505 81.5474 68.925 80.5913 68.6661 79.6912C68.329 78.4895 67.5995 77.4657 66.6096 76.7486C67.0728 75.6145 67.1445 74.3558 66.8008 73.1541C66.5461 72.2762 66.0656 71.4487 65.4119 70.7811C64.4945 69.8546 63.2581 69.2859 61.9623 69.1746C62.1536 67.9052 61.8906 66.593 61.1801 65.4539C60.6715 64.6346 59.9956 64.0024 59.1804 63.5483C58.1023 62.9482 56.8313 62.7207 55.6427 62.9119C55.1712 61.7909 54.3387 60.8513 53.2432 60.2323C51.2526 59.1278 48.6858 59.4278 46.9994 60.8604C46.2237 59.8235 45.0978 59.0676 43.8111 58.7585C42.8986 58.5368 41.9466 58.5681 41.0556 58.8352C39.8554 59.174 38.8218 59.9042 38.1063 60.8975C36.9845 60.4326 35.7019 60.3757 34.5265 60.7046C33.6223 60.9675 32.8228 61.4349 32.1534 62.0976C31.2097 63.024 30.6492 64.2579 30.5428 65.5487C29.2553 65.3534 27.9216 65.6377 26.813 66.3309C26.0283 66.8024 25.3738 67.5195 24.9262 68.3264C24.3155 69.4021 24.0937 70.6451 24.285 71.8641C23.1565 72.3315 22.2185 73.1772 21.6135 74.2685C21.1552 75.096 20.9228 75.9895 20.9228 76.9333C20.9228 78.2826 21.3901 79.5321 22.2226 80.5254C21.1907 81.301 20.4381 82.4228 20.1447 83.6987C19.9312 84.6112 19.9534 85.5698 20.2073 86.4542C20.5444 87.656 21.2747 88.6879 22.2638 89.41C21.8006 90.5425 21.7289 91.7986 22.0726 92.9938C22.3356 93.9021 22.8029 94.7017 23.4656 95.38C24.3872 96.3015 25.6236 96.867 26.9193 96.9667C26.7322 98.2451 27.0001 99.5837 27.6974 100.696C28.1928 101.5 28.8646 102.135 29.6922 102.604C30.7662 103.204 32.0331 103.43 33.2299 103.238C33.7014 104.36 34.5381 105.299 35.6294 105.912C37.5961 106.999 40.1868 106.724 41.8732 105.299C42.6448 106.333 43.7625 107.086 45.0698 107.39C45.4695 107.481 45.885 107.529 46.2979 107.529C46.8106 107.529 47.3217 107.454 47.8195 107.311C49.0213 106.972 50.0492 106.246 50.7663 105.26C51.8964 105.721 53.183 105.79 54.3502 105.451C55.2544 105.194 56.0828 104.712 56.7324 104.059C57.6712 103.13 58.2317 101.904 58.3389 100.612C59.6297 100.808 60.9551 100.522 62.072 99.826C62.8699 99.3298 63.5243 98.6259 63.9653 97.8396C64.3156 97.2008 64.4937 96.5266 64.5827 95.8309C66.5643 97.2222 69.7723 99.812 72.494 102.242C67.921 100.833 63.4699 101.755 59.6865 105.128C59.2274 105.546 59.1928 106.244 59.6016 106.706C60.008 107.158 60.7144 107.184 61.1727 106.793C65.998 102.468 71.9459 102.811 77.9186 107.779C77.9812 107.835 78.0579 107.814 78.123 107.858C78.3315 108.083 78.5425 108.284 78.7511 108.51C80.6741 110.578 82.6894 112.695 84.8672 114.647C84.9908 114.794 85.0848 114.946 85.2191 115.108C85.304 115.203 85.4417 115.203 85.5472 115.26C89.6916 118.798 94.4905 121.506 100.615 121.506C101.554 121.506 102.532 121.436 103.538 121.306C105.889 120.994 108.065 120.211 109.997 119.072C111.929 120.211 114.104 120.998 116.461 121.306C117.47 121.436 118.438 121.506 119.382 121.506C125.502 121.506 130.305 118.798 134.451 115.26C134.556 115.195 134.695 115.204 134.778 115.108C134.913 114.952 135.003 114.799 135.13 114.647C137.308 112.695 139.32 110.578 141.246 108.51C141.455 108.275 141.664 108.075 141.877 107.858C141.942 107.814 142.02 107.836 142.081 107.779C148.053 102.816 154 102.48 158.824 106.793C159.289 107.206 159.994 107.162 160.402 106.706C160.81 106.241 160.767 105.541 160.311 105.128C156.525 101.742 152.074 100.825 147.501 102.242C150.227 99.7988 153.434 97.2173 155.417 95.8309C155.508 96.5266 155.682 97.2222 156.03 97.8346C156.477 98.6391 157.129 99.3298 157.934 99.826C159.047 100.513 160.364 100.795 161.663 100.612C161.767 101.903 162.324 103.13 163.259 104.05C163.915 104.711 164.746 105.198 165.641 105.446C166.828 105.789 168.096 105.719 169.235 105.259C169.948 106.244 170.983 106.971 172.178 107.309C172.677 107.453 173.191 107.527 173.704 107.527C174.117 107.527 174.535 107.479 174.929 107.389C176.238 107.097 177.354 106.349 178.129 105.297C179.802 106.697 182.38 107.014 184.366 105.911C185.457 105.297 186.301 104.359 186.77 103.237C187.965 103.428 189.235 103.202 190.308 102.602C191.139 102.137 191.803 101.498 192.294 100.707C192.998 99.5771 193.269 98.2426 193.081 96.9642C194.376 96.8645 195.61 96.2991 196.537 95.3685C197.193 94.6992 197.662 93.8997 197.928 92.9864C198.271 91.7962 198.202 90.5392 197.737 89.4075C198.733 88.6863 199.458 87.6452 199.793 86.46C200.049 85.583 200.07 84.6293 199.857 83.7267ZM63.0397 92.4547C62.7133 92.5199 62.433 92.7243 62.2723 93.007C62.1132 93.2938 62.0852 93.6458 62.2072 93.9508C62.5616 94.8764 62.4915 95.9018 62.0159 96.7582C61.7489 97.2404 61.3664 97.6401 60.8883 97.9492C59.9017 98.5666 58.6405 98.6053 57.6127 98.0794C57.2253 97.8709 56.7538 97.9311 56.4068 98.1965C56.0589 98.466 55.913 98.9185 56.0243 99.3447C56.3136 100.471 55.979 101.674 55.1506 102.496C54.7591 102.891 54.2876 103.169 53.7353 103.331C52.8006 103.604 51.7818 103.421 50.9575 102.87C50.6855 102.682 50.3443 102.63 50.0277 102.722C49.7129 102.817 49.4541 103.044 49.3213 103.348C48.9282 104.252 48.1583 104.921 47.2063 105.19C46.668 105.347 46.1026 105.355 45.5676 105.246C44.4202 104.973 43.5201 104.147 43.1599 103.021C43.0272 102.6 42.6621 102.305 42.2252 102.252C42.1815 102.243 42.1403 102.243 42.1016 102.243C41.715 102.243 41.3498 102.442 41.1429 102.782C40.2634 104.26 38.2786 104.86 36.7075 103.981C35.847 103.516 35.2511 102.681 35.0771 101.712C35.0137 101.39 34.8142 101.104 34.5257 100.939C34.2372 100.774 33.8844 100.756 33.5819 100.865C32.6694 101.226 31.6234 101.151 30.7736 100.673C30.2824 100.405 29.8867 100.026 29.5891 99.5392C28.9701 98.5526 28.9182 97.3005 29.4498 96.2793C29.6526 95.8845 29.6064 95.4188 29.3303 95.0709C29.0583 94.7363 28.6264 94.6019 28.1821 94.6885C27.0784 94.9662 25.8395 94.6234 25.04 93.8411C24.6443 93.4282 24.3616 92.9592 24.2034 92.4111C23.9313 91.4764 24.1011 90.4592 24.6575 89.6465C24.8446 89.3679 24.8966 89.0226 24.8075 88.7159C24.7144 88.3986 24.4927 88.1315 24.1902 88.003C23.2818 87.5917 22.61 86.8276 22.3389 85.8715C22.1864 85.3538 22.174 84.7892 22.3018 84.2411C22.5647 83.0896 23.3931 82.1978 24.5141 81.8417C24.9337 81.709 25.2353 81.3438 25.284 80.9029C25.3343 80.4611 25.1249 80.0531 24.7474 79.8264C23.7409 79.2247 23.1392 78.1573 23.1392 76.9687C23.1392 76.4074 23.2777 75.8865 23.5538 75.3927C24.0303 74.5322 24.8578 73.9363 25.823 73.7591C26.1495 73.6981 26.4289 73.4871 26.5946 73.2068C26.7528 72.9175 26.7817 72.5614 26.6597 72.2598C26.3036 71.3333 26.3753 70.3104 26.86 69.4515C27.132 68.9603 27.521 68.5473 27.9769 68.2588C28.9528 67.6308 30.2172 67.5912 31.2542 68.1195C31.6457 68.3306 32.1172 68.2762 32.456 68.0042C32.7972 67.728 32.9447 67.2829 32.8384 66.8609C32.554 65.7309 32.8821 64.5332 33.7097 63.7189C34.1119 63.3142 34.5842 63.043 35.1315 62.8864C36.0786 62.6103 37.09 62.7792 37.8978 63.3405C38.1698 63.5235 38.5127 63.5886 38.835 63.4864C39.1498 63.3933 39.4128 63.1666 39.5455 62.8501C39.9403 61.9566 40.7127 61.2766 41.6639 61.0046C42.1856 60.8521 42.7503 60.8439 43.3025 60.9675C44.4285 61.2354 45.35 62.0761 45.7061 63.1889C45.8388 63.6084 46.204 63.906 46.6367 63.9538C47.0802 64.0173 47.4956 63.7955 47.7206 63.4213C48.6075 61.9302 50.6286 61.3739 52.1544 62.2146C53.0198 62.691 53.6108 63.5276 53.7848 64.4879C53.8416 64.8184 54.0477 65.1119 54.337 65.2685C54.6305 65.4267 54.9783 65.449 55.2841 65.3377C56.1842 64.9923 57.2211 65.0533 58.0965 65.5396C58.5771 65.8001 58.9785 66.1834 59.281 66.6697C59.9091 67.6654 59.9528 68.8779 59.4096 69.9189C59.2093 70.3104 59.2513 70.7769 59.5225 71.1248C59.7945 71.4528 60.2421 71.6094 60.6658 71.5122C61.8 71.236 63.0191 71.5748 63.817 72.3661C64.2126 72.7683 64.5052 73.2612 64.6577 73.7855C64.9297 74.7399 64.7599 75.7373 64.1994 76.5582C64.0123 76.8344 63.9538 77.1822 64.0469 77.4929C64.136 77.8103 64.3643 78.0782 64.666 78.2059C65.5784 78.6098 66.2502 79.3821 66.5222 80.3292C66.678 80.86 66.692 81.4329 66.5634 81.9719C66.3005 83.1201 65.468 84.0152 64.3428 84.3647C63.9233 84.4949 63.6216 84.8601 63.5705 85.297C63.5227 85.7363 63.7312 86.1558 64.1096 86.3808C65.1069 86.9792 65.7268 88.0631 65.7153 89.2393C65.7194 89.7982 65.5875 90.3199 65.3023 90.8194C64.8407 91.6816 64.0131 92.2767 63.0397 92.4547ZM74.197 82.8489L86.9006 90.8994C86.4292 92.0204 85.8266 92.9378 85.0839 93.6293L72.8435 86.0421C72.8435 86.0421 72.8435 86.0421 72.8394 86.0421C73.0892 85.0439 73.4972 84.0029 74.197 82.8489ZM77.8073 78.1672L88.2137 85.4264C88.081 86.6026 87.8791 87.6996 87.6268 88.7168L75.4713 81.0191C76.134 80.1347 76.8899 79.1958 77.8073 78.1672ZM84.4039 70.1283L88.0489 72.7271C88.1741 73.9775 88.2764 75.251 88.353 76.5286L82.8757 72.4774C83.3884 71.7891 83.9011 71.0044 84.4039 70.1283ZM94.1814 72.113L90.5719 76.2838C90.5109 75.1817 90.426 74.0954 90.3238 73.0304C90.3585 72.9868 90.4302 72.9826 90.4565 72.9373L92.4908 69.271C93.0687 70.1546 93.625 71.1215 94.1814 72.113ZM96.8001 77.5358C96.7498 77.5704 96.6913 77.544 96.6476 77.5795L90.6643 82.1953C90.6972 81.3323 90.6972 80.433 90.684 79.5486L95.2983 74.233C95.8464 75.3095 96.3509 76.414 96.8001 77.5358ZM98.6366 84.3664L89.9842 88.2305C90.1887 87.2488 90.3535 86.2292 90.4648 85.1593L97.5568 79.6887C98.0588 81.2556 98.4651 82.8234 98.6366 84.3664ZM98.0027 90.8071C97.8939 90.8071 97.8 90.7428 97.6936 90.7774L87.8659 93.715C88.3917 92.9106 88.8377 92.0237 89.1979 91.0238L98.6564 86.7971C98.6432 87.2603 98.7083 87.7359 98.6523 88.1859C98.5344 89.1124 98.3085 89.977 98.0027 90.8071ZM89.896 69.3436C89.6455 67.4709 89.3809 65.7844 89.1262 64.3519C89.7411 65.1794 90.417 66.1141 91.1193 67.1379L89.896 69.3436ZM87.7076 69.7458L85.4409 68.1311C85.9404 67.0917 86.4341 65.927 86.9138 64.5819C87.1941 66.1537 87.4661 67.9028 87.7076 69.7458ZM93.1725 96.6675C92.753 96.9411 91.81 97.2403 90.7318 97.2403C89.9043 97.2403 88.6415 97.0318 87.6952 96.0848L96.5405 93.4241C95.6635 94.6415 94.5705 95.7369 93.1725 96.6675ZM81.4893 74.2231L88.4593 79.378C88.4808 80.5633 88.4684 81.7189 88.4132 82.8489L79.3371 76.5203C79.7435 76.0876 80.0889 75.6878 80.5389 75.2419C80.8563 74.9188 81.172 74.58 81.4893 74.2231ZM73.9299 91.8943C73.2128 90.751 72.7784 89.6605 72.6301 88.5346L83.151 95.0503C82.2666 95.4542 81.1538 95.8325 79.9125 95.8325C77.5831 95.8325 75.5686 94.5063 73.9299 91.8943ZM121.99 90.8071C121.686 89.977 121.463 89.1124 121.342 88.1909C121.286 87.7318 121.346 87.2603 121.338 86.802L130.796 91.0206C131.157 92.0294 131.604 92.9205 132.131 93.7117L122.302 90.7774C122.19 90.7428 122.099 90.8071 121.99 90.8071ZM122.437 79.6937L129.527 85.1593C129.636 86.2292 129.806 87.2611 130.005 88.2305L121.351 84.3664C121.529 82.8234 121.938 81.2556 122.437 79.6937ZM124.693 74.2231L129.31 79.5412C129.301 80.4273 129.301 81.3142 129.327 82.1945L123.346 77.5787C123.298 77.544 123.246 77.5614 123.193 77.535C123.642 76.414 124.154 75.3095 124.693 74.2231ZM127.506 69.2529L129.536 72.9192C129.562 72.9727 129.632 72.9777 129.666 73.0123C129.567 74.0772 129.479 75.1611 129.414 76.2656L125.801 72.0949C126.372 71.1215 126.931 70.1629 127.506 69.2529ZM137.117 72.4782L131.644 76.5244C131.722 75.2468 131.822 73.9775 131.948 72.7189L135.59 70.1283C136.091 71.0044 136.608 71.7891 137.117 72.4782ZM144.528 81.0232L132.374 88.7209C132.114 87.6996 131.913 86.5869 131.787 85.4222L142.194 78.1672C143.106 79.1958 143.859 80.1347 144.528 81.0232ZM147.153 86.0413L134.909 93.6285C134.166 92.9419 133.566 92.0204 133.097 90.8986L145.802 82.8481C146.497 84.0029 146.905 85.0439 147.153 86.0413ZM132.287 69.7458C132.531 67.8937 132.8 66.1488 133.083 64.5819C133.561 65.927 134.053 67.0826 134.557 68.1311L132.287 69.7458ZM130.101 69.3436L128.883 67.1469C129.579 66.1273 130.261 65.1794 130.87 64.356C130.613 65.7886 130.344 67.4709 130.101 69.3436ZM140.077 95.8325C138.847 95.8325 137.733 95.4542 136.838 95.0503L147.358 88.5346C147.214 89.6605 146.775 90.751 146.058 91.8943C144.423 94.5063 142.406 95.8325 140.077 95.8325ZM140.655 76.5244L131.583 82.853C131.527 81.723 131.513 80.5625 131.535 79.378L138.498 74.2273C138.82 74.5924 139.137 74.9279 139.454 75.251C139.899 75.701 140.251 76.0925 140.655 76.5244ZM126.819 96.6675C125.425 95.746 124.32 94.6415 123.446 93.4241L132.287 96.0848C131.349 97.0318 130.083 97.2403 129.253 97.2403C128.184 97.2403 127.24 96.9444 126.819 96.6675ZM197.649 85.8632C197.379 86.8103 196.71 87.5842 195.797 87.9955C195.497 88.1233 195.271 88.3904 195.18 88.6978C195.089 89.0151 195.145 89.3564 195.328 89.6276C195.885 90.4592 196.054 91.4549 195.784 92.3946C195.624 92.9419 195.342 93.4199 194.95 93.8197C194.333 94.4371 193.485 94.7931 192.625 94.7931C192.35 94.7931 192.073 94.7495 191.803 94.6934C191.377 94.6027 190.929 94.7371 190.655 95.0759C190.377 95.4196 190.333 95.9018 190.534 96.2842C191.068 97.3063 191.017 98.5748 190.394 99.5532C190.103 100.027 189.708 100.41 189.212 100.679C188.365 101.157 187.317 101.231 186.404 100.87C186.1 100.761 185.752 100.779 185.46 100.944C185.173 101.109 184.969 101.396 184.909 101.722C184.735 102.687 184.135 103.499 183.274 103.986C181.736 104.847 179.727 104.281 178.836 102.787C178.614 102.413 178.21 102.221 177.758 102.256C177.319 102.308 176.954 102.604 176.819 103.026C176.462 104.151 175.563 104.977 174.415 105.246C173.876 105.367 173.315 105.36 172.772 105.194C171.825 104.921 171.05 104.256 170.66 103.352C170.529 103.06 170.268 102.821 169.952 102.731C169.852 102.696 169.747 102.682 169.643 102.682C169.426 102.682 169.204 102.752 169.017 102.873C168.2 103.426 167.204 103.621 166.231 103.325C165.688 103.177 165.21 102.896 164.818 102.491C163.992 101.678 163.667 100.474 163.958 99.3488C164.061 98.9218 163.914 98.4792 163.574 98.2006C163.231 97.927 162.757 97.8742 162.366 98.0827C161.34 98.6094 160.071 98.5476 159.093 97.9525C158.615 97.6574 158.232 97.2486 157.963 96.7573C157.489 95.91 157.415 94.8797 157.776 93.9541C157.888 93.6499 157.871 93.307 157.705 93.0103C157.55 92.7276 157.267 92.524 156.941 92.458C155.966 92.2759 155.14 91.6849 154.658 90.8112C154.38 90.3282 154.241 89.7941 154.249 89.2311C154.245 88.0681 154.863 86.9883 155.853 86.3866C156.232 86.1608 156.444 85.7363 156.392 85.3019C156.34 84.865 156.04 84.4999 155.623 84.3721C154.497 84.0152 153.671 83.1201 153.401 81.9727C153.28 81.4337 153.292 80.8691 153.45 80.33C153.723 79.3912 154.394 78.6147 155.306 78.2109C155.605 78.079 155.832 77.816 155.923 77.4987C156.018 77.183 155.962 76.8467 155.775 76.564C155.219 75.7463 155.049 74.7408 155.313 73.7978C155.462 73.2711 155.757 72.7782 156.148 72.376C156.953 71.5608 158.174 71.2369 159.305 71.5171C159.726 71.6111 160.169 71.4635 160.448 71.1305C160.721 70.7868 160.761 70.3063 160.557 69.9238C160.013 68.8869 160.065 67.6571 160.691 66.6705C160.991 66.1883 161.387 65.8059 161.886 65.5405C162.743 65.0624 163.782 64.9932 164.689 65.3385C164.994 65.4564 165.337 65.4317 165.637 65.2734C165.924 65.1127 166.129 64.8234 166.189 64.4937C166.363 63.5326 166.955 62.7141 167.81 62.2245C169.358 61.364 171.366 61.9352 172.249 63.4263C172.479 63.8005 172.888 64.0263 173.335 63.9587C173.774 63.9101 174.14 63.6134 174.265 63.193C174.622 62.0803 175.543 61.2354 176.678 60.9675C177.217 60.8521 177.786 60.8612 178.316 61.0087C179.263 61.2849 180.033 61.9525 180.433 62.8559C180.563 63.1576 180.825 63.3883 181.141 63.4864C181.463 63.5837 181.802 63.5276 182.076 63.3447C182.893 62.7842 183.884 62.6061 184.854 62.8954C185.392 63.0323 185.87 63.3232 186.275 63.7279C187.096 64.539 187.427 65.7408 187.14 66.8659C187.036 67.2879 187.18 67.7289 187.523 68.0091C187.866 68.2893 188.335 68.3306 188.727 68.1311C189.761 67.6003 191.027 67.6481 192.005 68.2547C192.466 68.5391 192.847 68.952 193.13 69.4606C193.608 70.3104 193.678 71.3383 193.325 72.2639C193.208 72.5705 193.235 72.9183 193.391 73.2077C193.556 73.4928 193.839 73.6948 194.165 73.7599C195.129 73.9379 195.955 74.533 196.433 75.3903C196.707 75.884 196.851 76.409 196.851 76.9704C196.851 78.163 196.247 79.2214 195.243 79.8239C194.868 80.0539 194.656 80.4734 194.704 80.9078C194.756 81.3397 195.056 81.7098 195.477 81.8384C196.599 82.1945 197.425 83.0904 197.693 84.246C197.819 84.7678 197.81 85.3332 197.649 85.8632Z" fill="#3B4842"/>
<path d="M176.25 69.6567C176.232 69.6525 176.232 69.6311 176.215 69.6179C176.093 69.5726 175.967 69.6311 175.846 69.6262C175.772 69.6262 175.715 69.6072 175.641 69.6072C175.563 69.6072 175.498 69.6352 175.424 69.6352C175.397 69.6443 175.375 69.6352 175.354 69.6443C173.607 69.6789 171.912 70.0267 170.289 70.7199C168.525 71.4914 167.025 72.591 165.791 73.9254C165.669 74.0318 165.513 74.1084 165.452 74.2733C165.443 74.2988 165.461 74.3252 165.452 74.3582C163.517 76.6183 162.392 79.4463 162.236 82.4111C162.232 82.4284 162.214 82.4284 162.205 82.4499C162.171 82.5438 162.219 82.6238 162.21 82.7128C162.149 84.6407 162.462 86.5925 163.27 88.4809C165.4 93.4157 170.264 96.6154 175.65 96.6154C177.493 96.6154 179.288 96.2412 180.991 95.5019C187.815 92.5461 190.967 84.5946 188.016 77.7698C185.965 72.9998 181.388 69.8866 176.25 69.6567ZM184.453 90.042L179.541 88.0927L181.953 81.999L186.83 83.9442C186.66 86.1648 185.83 88.2798 184.453 90.042ZM174.711 94.2367C172.433 94.0372 170.351 93.1767 168.63 91.7771L170.556 86.9305L176.65 89.3472L174.711 94.2367ZM171.372 84.8657L173.785 78.7671L179.88 81.1838L177.467 87.2783L171.372 84.8657ZM166.936 76.0578L171.717 77.9527L169.304 84.0473L164.492 82.1366C164.688 79.9062 165.535 77.8027 166.936 76.0578ZM176.484 71.9629C178.763 72.1368 180.849 72.9817 182.587 74.3574L180.701 79.1108L174.611 76.6941L176.484 71.9629ZM186.751 81.5102L182.765 79.9342L184.335 75.977C184.987 76.779 185.555 77.6593 185.982 78.6435C186.39 79.5782 186.608 80.5343 186.751 81.5102ZM171.177 72.7624C172.112 72.3627 173.085 72.1253 174.072 71.9975L172.529 75.8748L168.643 74.3293C169.421 73.7293 170.238 73.1779 171.177 72.7624ZM164.539 84.5484L168.486 86.1153L166.904 90.1121C166.283 89.3431 165.73 88.5065 165.327 87.5767C164.892 86.5827 164.67 85.5696 164.539 84.5484ZM180.114 93.438C179.144 93.8641 178.136 94.0899 177.107 94.2284L178.71 90.169L182.761 91.7639C181.966 92.4151 181.109 93.0069 180.114 93.438Z" fill="#3B4842"/>
<path d="M57.781 82.4357C57.7769 82.4225 57.7596 82.4142 57.7505 82.4035C57.5898 79.4387 56.4631 76.6049 54.536 74.3424C54.5269 74.3119 54.5491 74.2863 54.536 74.2558C54.4684 74.0951 54.3184 74.0102 54.1922 73.908C52.9641 72.576 51.4557 71.474 49.6935 70.7066C48.0763 70.0134 46.3726 69.6655 44.6276 69.6309C44.6062 69.6219 44.584 69.6309 44.56 69.6219C44.4842 69.6219 44.4191 69.5938 44.3424 69.5938C44.2707 69.5938 44.2097 69.6029 44.138 69.6029C44.0119 69.6136 43.8924 69.551 43.7688 69.6029C43.7515 69.6136 43.7515 69.6392 43.7325 69.6441C38.6007 69.879 34.0179 72.9865 31.9548 77.7317C29.0056 84.5491 32.1567 92.5031 38.979 95.4588C40.6828 96.1974 42.4821 96.5724 44.3251 96.5724C49.7108 96.5724 54.5698 93.3776 56.7062 88.4354C57.5206 86.5536 57.8272 84.6002 57.7662 82.6722C57.7678 82.6055 57.8165 82.5206 57.781 82.4357ZM43.3459 89.3429L49.4404 86.9254L51.3634 91.772C49.6399 93.1633 47.562 94.0321 45.2829 94.2324L43.3459 89.3429ZM42.5266 87.2782L40.114 81.1836L46.2085 78.7669L48.6211 84.8656L42.5266 87.2782ZM35.5436 90.0419C34.1638 88.2796 33.3354 86.1646 33.1656 83.935L38.0452 81.9947L40.4577 88.0843L35.5436 90.0419ZM45.3851 76.6981L39.2906 79.1148L37.4088 74.3621C39.1447 72.9815 41.2317 72.1408 43.5108 71.9669L45.3851 76.6981ZM48.2774 77.9435L53.0589 76.0486C54.461 77.8026 55.3099 79.897 55.5061 82.1274L50.695 84.0372L48.2774 77.9435ZM51.3395 74.3382L47.4556 75.8837L45.9143 71.9974C46.9034 72.1367 47.8768 72.3625 48.8115 72.773C49.7553 73.1777 50.5746 73.7291 51.3395 74.3382ZM35.659 75.9719L37.2259 79.9299L33.2423 81.5059C33.3807 80.53 33.6033 79.5656 34.0072 78.6309C34.4316 77.6542 35.0004 76.7747 35.659 75.9719ZM37.23 91.7629L41.2812 90.168L42.8876 94.2274C41.859 94.0889 40.8443 93.8631 39.875 93.437C38.8818 93.0067 38.0237 92.4149 37.23 91.7629ZM53.0976 90.1111L51.5134 86.1143L55.4575 84.5474C55.3272 85.5687 55.1055 86.5817 54.6777 87.5749C54.2689 88.5055 53.7125 89.3429 53.0976 90.1111Z" fill="#3B4842"/>
</svg>
