<svg width="220" height="180" viewBox="0 0 220 180" fill="none" xmlns="http://www.w3.org/2000/svg">
<path d="M199.857 83.6667C199.565 82.38 198.813 81.2541 197.779 80.4744C198.614 79.4877 199.079 78.2398 199.079 76.8856C199.079 75.9418 198.844 75.0574 198.387 74.2216C197.783 73.1303 196.844 72.2813 195.714 71.8173C195.901 70.6114 195.689 69.3593 195.075 68.2829C194.624 67.4553 193.972 66.7596 193.189 66.2832C192.081 65.5991 190.755 65.3098 189.456 65.501C189.351 64.2102 188.79 62.9821 187.852 62.0565C187.178 61.3929 186.374 60.9108 185.474 60.6676C184.283 60.328 183.005 60.3923 181.884 60.8547C181.167 59.8574 180.132 59.1353 178.937 58.7875C178.046 58.5246 177.081 58.5114 176.186 58.7117C174.895 59.0117 173.768 59.7683 172.991 60.8135C171.308 59.4114 168.748 59.0809 166.744 60.1945C165.654 60.8135 164.819 61.7531 164.35 62.8651C163.15 62.6829 161.88 62.9112 160.82 63.5014C159.994 63.9564 159.321 64.5927 158.812 65.407C158.099 66.5462 157.833 67.8592 158.025 69.1368C156.725 69.2431 155.496 69.8127 154.57 70.7433C153.922 71.4125 153.435 72.2343 153.183 73.1163C152.839 74.318 152.913 75.5717 153.374 76.7084C152.378 77.4238 151.652 78.4582 151.317 79.6443C151.057 80.5485 151.04 81.5047 151.244 82.4048C151.535 83.6955 152.292 84.8215 153.334 85.5905C152.499 86.5837 152.026 87.844 152.034 89.157C152.026 90.0983 152.269 91.0289 152.726 91.8408C153.152 92.6106 153.791 93.2016 154.508 93.6879C151.744 95.5746 146.889 99.5822 144.011 102.373C142.529 103.807 141.077 105.368 139.612 106.928C139.364 107.197 139.117 107.459 138.864 107.727C139.864 104.207 139.451 100.76 137.56 97.6171C138.338 97.8347 139.173 97.9996 140.069 97.9996C142.233 97.9996 145.355 97.1391 147.945 93.0137C151.931 86.6678 148.75 81.5088 141.047 73.6413C138.256 70.7639 135.974 67.302 133.91 59.7758C133.892 59.6958 133.827 59.6562 133.801 59.5887C133.766 59.5219 133.745 59.4823 133.71 59.4238C133.554 59.2194 133.358 59.0504 133.098 58.9853C132.832 58.9087 132.589 58.9853 132.354 59.1048C132.285 59.1394 132.245 59.1683 132.189 59.2029C132.133 59.2466 132.068 59.2631 132.015 59.3092C131.424 59.9678 117.506 75.7242 119.14 88.3971C119.684 92.5801 121.853 95.962 125.595 98.4439C126.477 99.0349 127.886 99.3909 129.264 99.3909C131.48 99.3909 133.236 98.5213 134.363 96.9915C138.371 101.686 138.054 107.337 133.524 113.017C128.96 117.06 123.769 119.977 116.754 119.046C115.045 118.811 113.476 118.255 112.02 117.516C113.209 116.53 114.306 115.447 115.19 114.147C118.136 109.823 119.05 104.19 117.693 98.6606C117.545 98.0697 116.954 97.6954 116.349 97.8347C115.749 97.9831 115.385 98.5823 115.532 99.1915C116.737 104.103 115.936 109.106 113.347 112.9C112.43 114.248 111.273 115.334 109.996 116.274C108.722 115.334 107.561 114.248 106.644 112.9C104.054 109.097 103.257 104.094 104.458 99.1915C104.606 98.5832 104.241 97.9831 103.643 97.8347C103.043 97.6954 102.448 98.0697 102.3 98.6606C100.946 104.19 101.864 109.836 104.806 114.147C105.691 115.447 106.79 116.53 107.975 117.516C106.514 118.255 104.947 118.811 103.239 119.046C96.2231 119.985 91.0377 117.072 86.4794 113.026C81.9352 107.362 81.6113 101.681 85.6296 96.9866C86.7597 98.5164 88.5137 99.386 90.7302 99.386C92.115 99.386 93.5162 99.0291 94.399 98.4381C98.142 95.9522 100.319 92.5834 100.856 88.3913C102.49 75.7052 88.5723 59.962 87.9804 59.3035C87.9302 59.2449 87.8634 59.2268 87.8065 59.1963C87.748 59.146 87.7093 59.1114 87.6417 59.0991C87.4133 58.9787 87.1661 58.9037 86.899 58.9787C86.6361 59.0438 86.4399 59.2136 86.2833 59.4222C86.2445 59.4766 86.2181 59.5153 86.1901 59.5788C86.1555 59.6505 86.097 59.6892 86.0797 59.77C84.0149 67.2962 81.7308 70.7581 78.9448 73.6257C71.2445 81.5039 68.0628 86.6628 72.0415 93.0005C74.6281 97.1341 77.7463 97.9864 79.9158 97.9864C80.8175 97.9864 81.65 97.8216 82.4257 97.604C80.5373 100.738 80.1243 104.189 81.1217 107.714C80.8719 107.441 80.6222 107.183 80.3716 106.91C78.9093 105.336 77.457 103.784 75.9749 102.35C73.0999 99.5681 68.24 95.5565 65.4754 93.6706C66.1925 93.1926 66.8272 92.6057 67.2509 91.8358C67.7174 91.005 67.9589 90.0752 67.9507 89.1521C67.9548 87.8399 67.4817 86.5705 66.6492 85.5773C67.6877 84.8042 68.4444 83.6774 68.7379 82.3916C68.9505 81.4874 68.925 80.5312 68.6661 79.6312C68.329 78.4294 67.5995 77.4057 66.6096 76.6886C67.0728 75.5544 67.1445 74.2958 66.8008 73.094C66.5461 72.2162 66.0656 71.3886 65.4119 70.721C64.4945 69.7945 63.2581 69.2258 61.9623 69.1145C62.1536 67.8452 61.8906 66.533 61.1801 65.3939C60.6715 64.5746 59.9956 63.9424 59.1804 63.4882C58.1023 62.8881 56.8313 62.6606 55.6427 62.8519C55.1712 61.7309 54.3387 60.7912 53.2432 60.1722C51.2526 59.0677 48.6858 59.3678 46.9994 60.8003C46.2237 59.7634 45.0978 59.0076 43.8111 58.6985C42.8986 58.4767 41.9466 58.5081 41.0556 58.7751C39.8554 59.1139 38.8218 59.8442 38.1063 60.8374C36.9845 60.3725 35.7019 60.3156 34.5265 60.6445C33.6223 60.9075 32.8228 61.3748 32.1534 62.0375C31.2097 62.964 30.6492 64.1979 30.5428 65.4887C29.2553 65.2933 27.9216 65.5777 26.813 66.2709C26.0283 66.7423 25.3738 67.4594 24.9262 68.2664C24.3155 69.342 24.0937 70.585 24.285 71.8041C23.1565 72.2714 22.2185 73.1171 21.6135 74.2084C21.1552 75.036 20.9228 75.9294 20.9228 76.8732C20.9228 78.2225 21.3901 79.4721 22.2226 80.4653C21.1907 81.2409 20.4381 82.3627 20.1447 83.6387C19.9312 84.5511 19.9534 85.5097 20.2073 86.3941C20.5444 87.5959 21.2747 88.6279 22.2638 89.3499C21.8006 90.4824 21.7289 91.7386 22.0726 92.9338C22.3356 93.8421 22.8029 94.6416 23.4656 95.32C24.3872 96.2415 25.6236 96.8069 26.9193 96.9066C26.7322 98.1851 27.0001 99.5236 27.6974 100.636C28.1928 101.44 28.8646 102.075 29.6922 102.544C30.7662 103.144 32.0331 103.37 33.2299 103.178C33.7014 104.3 34.5381 105.239 35.6294 105.852C37.5961 106.939 40.1868 106.664 41.8732 105.239C42.6448 106.273 43.7625 107.026 45.0698 107.33C45.4695 107.421 45.885 107.469 46.2979 107.469C46.8106 107.469 47.3217 107.394 47.8195 107.251C49.0213 106.912 50.0492 106.186 50.7663 105.2C51.8964 105.661 53.183 105.73 54.3502 105.391C55.2544 105.133 56.0828 104.652 56.7324 103.999C57.6712 103.07 58.2317 101.844 58.3389 100.552C59.6297 100.748 60.9551 100.462 62.072 99.766C62.8699 99.2698 63.5243 98.5659 63.9653 97.7795C64.3156 97.1407 64.4937 96.4665 64.5827 95.7708C66.5643 97.1622 69.7723 99.752 72.494 102.182C67.921 100.773 63.4699 101.695 59.6865 105.068C59.2274 105.485 59.1928 106.184 59.6016 106.646C60.008 107.098 60.7144 107.124 61.1727 106.733C65.998 102.408 71.9459 102.751 77.9186 107.719C77.9812 107.775 78.0579 107.754 78.123 107.797C78.3315 108.023 78.5425 108.224 78.7511 108.449C80.6741 110.518 82.6894 112.635 84.8672 114.587C84.9908 114.734 85.0848 114.886 85.2191 115.048C85.304 115.143 85.4417 115.143 85.5472 115.2C89.6916 118.738 94.4905 121.446 100.615 121.446C101.554 121.446 102.532 121.376 103.538 121.246C105.889 120.934 108.065 120.151 109.997 119.012C111.929 120.151 114.104 120.938 116.461 121.246C117.47 121.376 118.438 121.446 119.382 121.446C125.502 121.446 130.305 118.738 134.451 115.2C134.556 115.135 134.695 115.144 134.778 115.048C134.913 114.892 135.003 114.738 135.13 114.587C137.308 112.635 139.32 110.517 141.246 108.449C141.455 108.215 141.664 108.015 141.877 107.797C141.942 107.754 142.02 107.776 142.081 107.719C148.053 102.756 154 102.42 158.824 106.733C159.289 107.145 159.994 107.102 160.402 106.646C160.81 106.181 160.767 105.481 160.311 105.068C156.525 101.682 152.074 100.765 147.501 102.182C150.227 99.7388 153.434 97.1572 155.417 95.7708C155.508 96.4665 155.682 97.1622 156.03 97.7746C156.477 98.579 157.129 99.2698 157.934 99.766C159.047 100.453 160.364 100.735 161.663 100.552C161.767 101.843 162.324 103.07 163.259 103.99C163.915 104.651 164.746 105.138 165.641 105.386C166.828 105.729 168.096 105.659 169.235 105.199C169.948 106.184 170.983 106.911 172.178 107.249C172.677 107.393 173.191 107.467 173.704 107.467C174.117 107.467 174.535 107.419 174.929 107.328C176.238 107.037 177.354 106.289 178.129 105.237C179.802 106.637 182.38 106.954 184.366 105.851C185.457 105.237 186.301 104.299 186.77 103.177C187.965 103.368 189.235 103.142 190.308 102.542C191.139 102.077 191.803 101.438 192.294 100.647C192.998 99.517 193.269 98.1826 193.081 96.9042C194.376 96.8044 195.61 96.239 196.537 95.3084C197.193 94.6391 197.662 93.8396 197.928 92.9263C198.271 91.7361 198.202 90.4791 197.737 89.3474C198.733 88.6262 199.458 87.5852 199.793 86.3999C200.049 85.5229 200.07 84.5692 199.857 83.6667ZM63.0397 92.3947C62.7133 92.4598 62.433 92.6642 62.2723 92.9469C62.1132 93.2338 62.0852 93.5857 62.2072 93.8907C62.5616 94.8163 62.4915 95.8417 62.0159 96.6981C61.7489 97.1803 61.3664 97.5801 60.8883 97.8891C59.9017 98.5065 58.6405 98.5452 57.6127 98.0194C57.2253 97.8108 56.7538 97.871 56.4068 98.1364C56.0589 98.4059 55.913 98.8585 56.0243 99.2846C56.3136 100.411 55.979 101.614 55.1506 102.436C54.7591 102.831 54.2876 103.109 53.7353 103.271C52.8006 103.544 51.7818 103.361 50.9575 102.81C50.6855 102.622 50.3443 102.57 50.0277 102.662C49.7129 102.757 49.4541 102.984 49.3213 103.288C48.9282 104.192 48.1583 104.861 47.2063 105.13C46.668 105.287 46.1026 105.295 45.5676 105.186C44.4202 104.913 43.5201 104.087 43.1599 102.961C43.0272 102.54 42.6621 102.244 42.2252 102.192C42.1815 102.183 42.1403 102.183 42.1016 102.183C41.715 102.183 41.3498 102.382 41.1429 102.722C40.2634 104.2 38.2786 104.8 36.7075 103.921C35.847 103.456 35.2511 102.621 35.0771 101.652C35.0137 101.33 34.8142 101.044 34.5257 100.879C34.2372 100.714 33.8844 100.696 33.5819 100.805C32.6694 101.166 31.6234 101.091 30.7736 100.613C30.2824 100.345 29.8867 99.9663 29.5891 99.4791C28.9701 98.4925 28.9182 97.2405 29.4498 96.2192C29.6526 95.8244 29.6064 95.3587 29.3303 95.0109C29.0583 94.6762 28.6264 94.5419 28.1821 94.6284C27.0784 94.9062 25.8395 94.5633 25.04 93.7811C24.6443 93.3681 24.3616 92.8991 24.2034 92.351C23.9313 91.4163 24.1011 90.3992 24.6575 89.5865C24.8446 89.3079 24.8966 88.9625 24.8075 88.6559C24.7144 88.3385 24.4927 88.0715 24.1902 87.9429C23.2818 87.5316 22.61 86.7675 22.3389 85.8114C22.1864 85.2938 22.174 84.7291 22.3018 84.181C22.5647 83.0295 23.3931 82.1377 24.5141 81.7816C24.9337 81.6489 25.2353 81.2838 25.284 80.8428C25.3343 80.401 25.1249 79.993 24.7474 79.7663C23.7409 79.1646 23.1392 78.0972 23.1392 76.9087C23.1392 76.3473 23.2777 75.8264 23.5538 75.3327C24.0303 74.4722 24.8578 73.8762 25.823 73.699C26.1495 73.638 26.4289 73.427 26.5946 73.1468C26.7528 72.8575 26.7817 72.5014 26.6597 72.1997C26.3036 71.2732 26.3753 70.2503 26.86 69.3915C27.132 68.9002 27.521 68.4873 27.9769 68.1988C28.9528 67.5707 30.2172 67.5311 31.2542 68.0595C31.6457 68.2705 32.1172 68.2161 32.456 67.9441C32.7972 67.668 32.9447 67.2229 32.8384 66.8009C32.554 65.6708 32.8821 64.4732 33.7097 63.6588C34.1119 63.2541 34.5842 62.9829 35.1315 62.8263C36.0786 62.5502 37.09 62.7192 37.8978 63.2805C38.1698 63.4635 38.5127 63.5286 38.835 63.4264C39.1498 63.3332 39.4128 63.1066 39.5455 62.7901C39.9403 61.8966 40.7127 61.2166 41.6639 60.9446C42.1856 60.7921 42.7503 60.7838 43.3025 60.9075C44.4285 61.1753 45.35 62.0161 45.7061 63.1288C45.8388 63.5484 46.204 63.8459 46.6367 63.8937C47.0802 63.9572 47.4956 63.7355 47.7206 63.3613C48.6075 61.8702 50.6286 61.3138 52.1544 62.1546C53.0198 62.631 53.6108 63.4676 53.7848 64.4278C53.8416 64.7584 54.0477 65.0518 54.337 65.2084C54.6305 65.3667 54.9783 65.3889 55.2841 65.2776C56.1842 64.9323 57.2211 64.9933 58.0965 65.4796C58.5771 65.74 58.9785 66.1233 59.281 66.6096C59.9091 67.6053 59.9528 68.8178 59.4096 69.8588C59.2093 70.2503 59.2513 70.7169 59.5225 71.0647C59.7945 71.3928 60.2421 71.5494 60.6658 71.4521C61.8 71.176 63.0191 71.5148 63.817 72.306C64.2126 72.7083 64.5052 73.2012 64.6577 73.7254C64.9297 74.6799 64.7599 75.6772 64.1994 76.4982C64.0123 76.7743 63.9538 77.1221 64.0469 77.4329C64.136 77.7502 64.3643 78.0181 64.666 78.1459C65.5784 78.5497 66.2502 79.3221 66.5222 80.2691C66.678 80.7999 66.692 81.3728 66.5634 81.9119C66.3005 83.06 65.468 83.9552 64.3428 84.3047C63.9233 84.4349 63.6216 84.8 63.5705 85.2369C63.5227 85.6762 63.7312 86.0958 64.1096 86.3208C65.1069 86.9192 65.7268 88.0031 65.7153 89.1793C65.7194 89.7381 65.5875 90.2599 65.3023 90.7594C64.8407 91.6215 64.0131 92.2167 63.0397 92.3947ZM74.197 82.7889L86.9006 90.8393C86.4292 91.9603 85.8266 92.8777 85.0839 93.5692L72.8435 85.982C72.8435 85.982 72.8435 85.982 72.8394 85.982C73.0892 84.9838 73.4972 83.9428 74.197 82.7889ZM77.8073 78.1071L88.2137 85.3663C88.081 86.5425 87.8791 87.6396 87.6268 88.6567L75.4713 80.959C76.134 80.0746 76.8899 79.1358 77.8073 78.1071ZM84.4039 70.0682L88.0489 72.6671C88.1741 73.9174 88.2764 75.1909 88.353 76.4685L82.8757 72.4173C83.3884 71.7291 83.9011 70.9444 84.4039 70.0682ZM94.1814 72.053L90.5719 76.2237C90.5109 75.1217 90.426 74.0353 90.3238 72.9704C90.3585 72.9267 90.4302 72.9226 90.4565 72.8772L92.4908 69.211C93.0687 70.0946 93.625 71.0614 94.1814 72.053ZM96.8001 77.4757C96.7498 77.5104 96.6913 77.484 96.6476 77.5194L90.6643 82.1352C90.6972 81.2722 90.6972 80.373 90.684 79.4886L95.2983 74.173C95.8464 75.2494 96.3509 76.3539 96.8001 77.4757ZM98.6366 84.3063L89.9842 88.1704C90.1887 87.1887 90.3535 86.1691 90.4648 85.0992L97.5568 79.6287C98.0588 81.1956 98.4651 82.7633 98.6366 84.3063ZM98.0027 90.747C97.8939 90.747 97.8 90.6827 97.6936 90.7173L87.8659 93.655C88.3917 92.8505 88.8377 91.9636 89.1979 90.9638L98.6564 86.737C98.6432 87.2003 98.7083 87.6758 98.6523 88.1259C98.5344 89.0523 98.3085 89.917 98.0027 90.747ZM89.896 69.2835C89.6455 67.4108 89.3809 65.7244 89.1262 64.2918C89.7411 65.1194 90.417 66.0541 91.1193 67.0778L89.896 69.2835ZM87.7076 69.6857L85.4409 68.071C85.9404 67.0316 86.4341 65.867 86.9138 64.5218C87.1941 66.0937 87.4661 67.8427 87.7076 69.6857ZM93.1725 96.6074C92.753 96.8811 91.81 97.1803 90.7318 97.1803C89.9043 97.1803 88.6415 96.9718 87.6952 96.0247L96.5405 93.364C95.6635 94.5814 94.5705 95.6769 93.1725 96.6074ZM81.4893 74.1631L88.4593 79.3179C88.4808 80.5032 88.4684 81.6588 88.4132 82.7889L79.3371 76.4603C79.7435 76.0275 80.0889 75.6278 80.5389 75.1818C80.8563 74.8587 81.172 74.52 81.4893 74.1631ZM73.9299 91.8342C73.2128 90.691 72.7784 89.6005 72.6301 88.4745L83.151 94.9903C82.2666 95.3941 81.1538 95.7725 79.9125 95.7725C77.5831 95.7725 75.5686 94.4463 73.9299 91.8342ZM121.99 90.747C121.686 89.917 121.463 89.0523 121.342 88.1308C121.286 87.6717 121.346 87.2003 121.338 86.742L130.796 90.9605C131.157 91.9694 131.604 92.8604 132.131 93.6517L122.302 90.7173C122.19 90.6827 122.099 90.747 121.99 90.747ZM122.437 79.6336L129.527 85.0992C129.636 86.1691 129.806 87.2011 130.005 88.1704L121.351 84.3063C121.529 82.7633 121.938 81.1956 122.437 79.6336ZM124.693 74.1631L129.31 79.4811C129.301 80.3672 129.301 81.2541 129.327 82.1344L123.346 77.5186C123.298 77.484 123.246 77.5013 123.193 77.4749C123.642 76.3539 124.154 75.2494 124.693 74.1631ZM127.506 69.1928L129.536 72.8591C129.562 72.9127 129.632 72.9176 129.666 72.9523C129.567 74.0172 129.479 75.1011 129.414 76.2056L125.801 72.0349C126.372 71.0614 126.931 70.1028 127.506 69.1928ZM137.117 72.4181L131.644 76.4644C131.722 75.1868 131.822 73.9174 131.948 72.6588L135.59 70.0682C136.091 70.9444 136.608 71.7291 137.117 72.4181ZM144.528 80.9631L132.374 88.6608C132.114 87.6396 131.913 86.5268 131.787 85.3622L142.194 78.1071C143.106 79.1358 143.859 80.0746 144.528 80.9631ZM147.153 85.9812L134.909 93.5684C134.166 92.8818 133.566 91.9603 133.097 90.8385L145.802 82.788C146.497 83.9428 146.905 84.9838 147.153 85.9812ZM132.287 69.6857C132.531 67.8336 132.8 66.0887 133.083 64.5218C133.561 65.867 134.053 67.0226 134.557 68.071L132.287 69.6857ZM130.101 69.2835L128.883 67.0869C129.579 66.0673 130.261 65.1194 130.87 64.296C130.613 65.7285 130.344 67.4108 130.101 69.2835ZM140.077 95.7725C138.847 95.7725 137.733 95.3941 136.838 94.9903L147.358 88.4745C147.214 89.6005 146.775 90.691 146.058 91.8342C144.423 94.4463 142.406 95.7725 140.077 95.7725ZM140.655 76.4644L131.583 82.793C131.527 81.6629 131.513 80.5024 131.535 79.3179L138.498 74.1672C138.82 74.5323 139.137 74.8678 139.454 75.1909C139.899 75.641 140.251 76.0325 140.655 76.4644ZM126.819 96.6074C125.425 95.6859 124.32 94.5814 123.446 93.364L132.287 96.0247C131.349 96.9718 130.083 97.1803 129.253 97.1803C128.184 97.1803 127.24 96.8844 126.819 96.6074ZM197.649 85.8032C197.379 86.7502 196.71 87.5242 195.797 87.9355C195.497 88.0632 195.271 88.3303 195.18 88.6378C195.089 88.9551 195.145 89.2963 195.328 89.5675C195.885 90.3992 196.054 91.3949 195.784 92.3345C195.624 92.8818 195.342 93.3599 194.95 93.7596C194.333 94.377 193.485 94.7331 192.625 94.7331C192.35 94.7331 192.073 94.6894 191.803 94.6334C191.377 94.5427 190.929 94.677 190.655 95.0158C190.377 95.3595 190.333 95.8417 190.534 96.2242C191.068 97.2462 191.017 98.5148 190.394 99.4931C190.103 99.9671 189.708 100.35 189.212 100.619C188.365 101.097 187.317 101.171 186.404 100.81C186.1 100.701 185.752 100.719 185.46 100.884C185.173 101.049 184.969 101.336 184.909 101.662C184.735 102.627 184.135 103.439 183.274 103.926C181.736 104.786 179.727 104.221 178.836 102.727C178.614 102.352 178.21 102.161 177.758 102.196C177.319 102.248 176.954 102.544 176.819 102.966C176.462 104.091 175.563 104.917 174.415 105.186C173.876 105.307 173.315 105.3 172.772 105.134C171.825 104.861 171.05 104.195 170.66 103.292C170.529 103 170.268 102.761 169.952 102.671C169.852 102.636 169.747 102.622 169.643 102.622C169.426 102.622 169.204 102.692 169.017 102.813C168.2 103.365 167.204 103.561 166.231 103.265C165.688 103.117 165.21 102.835 164.818 102.431C163.992 101.618 163.667 100.414 163.958 99.2887C164.061 98.8618 163.914 98.4191 163.574 98.1405C163.231 97.8669 162.757 97.8141 162.366 98.0227C161.34 98.5494 160.071 98.4876 159.093 97.8924C158.615 97.5974 158.232 97.1885 157.963 96.6973C157.489 95.85 157.415 94.8196 157.776 93.894C157.888 93.5899 157.871 93.247 157.705 92.9502C157.55 92.6675 157.267 92.4639 156.941 92.398C155.966 92.2158 155.14 91.6248 154.658 90.7511C154.38 90.2681 154.241 89.734 154.249 89.171C154.245 88.008 154.863 86.9283 155.853 86.3266C156.232 86.1007 156.444 85.6762 156.392 85.2418C156.34 84.805 156.04 84.4398 155.623 84.3121C154.497 83.9552 153.671 83.06 153.401 81.9127C153.28 81.3736 153.292 80.809 153.45 80.27C153.723 79.3311 154.394 78.5547 155.306 78.1508C155.605 78.0189 155.832 77.756 155.923 77.4386C156.018 77.123 155.962 76.7867 155.775 76.5039C155.219 75.6863 155.049 74.6807 155.313 73.7378C155.462 73.2111 155.757 72.7182 156.148 72.3159C156.953 71.5007 158.174 71.1768 159.305 71.4571C159.726 71.551 160.169 71.4035 160.448 71.0705C160.721 70.7268 160.761 70.2462 160.557 69.8638C160.013 68.8269 160.065 67.5971 160.691 66.6105C160.991 66.1283 161.387 65.7458 161.886 65.4804C162.743 65.0023 163.782 64.9331 164.689 65.2785C164.994 65.3963 165.337 65.3716 165.637 65.2133C165.924 65.0526 166.129 64.7633 166.189 64.4336C166.363 63.4725 166.955 62.6541 167.81 62.1644C169.358 61.3039 171.366 61.8751 172.249 63.3662C172.479 63.7404 172.888 63.9663 173.335 63.8987C173.774 63.85 174.14 63.5533 174.265 63.1329C174.622 62.0202 175.543 61.1753 176.678 60.9075C177.217 60.7921 177.786 60.8011 178.316 60.9487C179.263 61.2248 180.033 61.8924 180.433 62.7958C180.563 63.0975 180.825 63.3283 181.141 63.4264C181.463 63.5236 181.802 63.4676 182.076 63.2846C182.893 62.7241 183.884 62.5461 184.854 62.8354C185.392 62.9722 185.87 63.2632 186.275 63.6679C187.096 64.4789 187.427 65.6807 187.14 66.8058C187.036 67.2278 187.18 67.6688 187.523 67.949C187.866 68.2293 188.335 68.2705 188.727 68.071C189.761 67.5402 191.027 67.588 192.005 68.1947C192.466 68.479 192.847 68.892 193.13 69.4005C193.608 70.2503 193.678 71.2782 193.325 72.2038C193.208 72.5104 193.235 72.8583 193.391 73.1476C193.556 73.4328 193.839 73.6347 194.165 73.6998C195.129 73.8779 195.955 74.473 196.433 75.3302C196.707 75.8239 196.851 76.349 196.851 76.9103C196.851 78.103 196.247 79.1613 195.243 79.7639C194.868 79.9938 194.656 80.4134 194.704 80.8477C194.756 81.2797 195.056 81.6497 195.477 81.7783C196.599 82.1344 197.425 83.0304 197.693 84.186C197.819 84.7077 197.81 85.2732 197.649 85.8032Z" fill="#864982"/>
<path d="M176.25 69.5966C176.232 69.5925 176.232 69.571 176.215 69.5579C176.093 69.5125 175.967 69.571 175.846 69.5661C175.772 69.5661 175.715 69.5471 175.641 69.5471C175.563 69.5471 175.498 69.5752 175.424 69.5752C175.397 69.5842 175.375 69.5752 175.354 69.5842C173.607 69.6188 171.912 69.9667 170.289 70.6599C168.525 71.4314 167.025 72.5309 165.791 73.8654C165.669 73.9717 165.513 74.0484 165.452 74.2132C165.443 74.2388 165.461 74.2652 165.452 74.2981C163.517 76.5582 162.392 79.3862 162.236 82.3511C162.232 82.3684 162.214 82.3684 162.205 82.3898C162.171 82.4838 162.219 82.5637 162.21 82.6527C162.149 84.5807 162.462 86.5325 163.27 88.4208C165.4 93.3556 170.264 96.5554 175.65 96.5554C177.493 96.5554 179.288 96.1812 180.991 95.4418C187.815 92.4861 190.967 84.5345 188.016 77.7097C185.965 72.9398 181.388 69.8266 176.25 69.5966ZM184.453 89.982L179.541 88.0326L181.953 81.9389L186.83 83.8842C186.66 86.1047 185.83 88.2197 184.453 89.982ZM174.711 94.1766C172.433 93.9771 170.351 93.1166 168.63 91.717L170.556 86.8704L176.65 89.2871L174.711 94.1766ZM171.372 84.8057L173.785 78.707L179.88 81.1237L177.467 87.2183L171.372 84.8057ZM166.936 75.9977L171.717 77.8927L169.304 83.9872L164.492 82.0766C164.688 79.8462 165.535 77.7427 166.936 75.9977ZM176.484 71.9029C178.763 72.0768 180.849 72.9216 182.587 74.2973L180.701 79.0508L174.611 76.6341L176.484 71.9029ZM186.751 81.4502L182.765 79.8742L184.335 75.917C184.987 76.7189 185.555 77.5992 185.982 78.5834C186.39 79.5181 186.608 80.4742 186.751 81.4502ZM171.177 72.7024C172.112 72.3026 173.085 72.0652 174.072 71.9375L172.529 75.8147L168.643 74.2693C169.421 73.6692 170.238 73.1178 171.177 72.7024ZM164.539 84.4883L168.486 86.0552L166.904 90.052C166.283 89.283 165.73 88.4464 165.327 87.5166C164.892 86.5226 164.67 85.5096 164.539 84.4883ZM180.114 93.3779C179.144 93.804 178.136 94.0299 177.107 94.1684L178.71 90.1089L182.761 91.7038C181.966 92.355 181.109 92.9468 180.114 93.3779Z" fill="#864982"/>
<path d="M57.781 82.3761C57.7769 82.3629 57.7596 82.3547 57.7505 82.344C57.5898 79.3791 56.4631 76.5454 54.536 74.2828C54.5269 74.2523 54.5491 74.2267 54.536 74.1962C54.4684 74.0355 54.3184 73.9506 54.1922 73.8484C52.9641 72.5164 51.4557 71.4144 49.6935 70.647C48.0763 69.9538 46.3726 69.606 44.6276 69.5714C44.6062 69.5623 44.584 69.5714 44.56 69.5623C44.4842 69.5623 44.4191 69.5343 44.3424 69.5343C44.2707 69.5343 44.2097 69.5433 44.138 69.5433C44.0119 69.5541 43.8924 69.4914 43.7688 69.5433C43.7515 69.5541 43.7515 69.5796 43.7325 69.5845C38.6007 69.8195 34.0179 72.9269 31.9548 77.6721C29.0056 84.4895 32.1567 92.4435 38.979 95.3993C40.6828 96.1378 42.4821 96.5128 44.3251 96.5128C49.7108 96.5128 54.5698 93.318 56.7062 88.3758C57.5206 86.4941 57.8272 84.5406 57.7662 82.6127C57.7678 82.5459 57.8165 82.461 57.781 82.3761ZM43.3459 89.2833L49.4404 86.8658L51.3634 91.7124C49.6399 93.1037 47.562 93.9725 45.2829 94.1728L43.3459 89.2833ZM42.5266 87.2186L40.114 81.1241L46.2085 78.7074L48.6211 84.806L42.5266 87.2186ZM35.5436 89.9823C34.1638 88.22 33.3354 86.105 33.1656 83.8754L38.0452 81.9351L40.4577 88.0247L35.5436 89.9823ZM45.3851 76.6385L39.2906 79.0552L37.4088 74.3026C39.1447 72.9219 41.2317 72.0812 43.5108 71.9073L45.3851 76.6385ZM48.2774 77.8839L53.0589 75.989C54.461 77.743 55.3099 79.8374 55.5061 82.0678L50.695 83.9776L48.2774 77.8839ZM51.3395 74.2787L47.4556 75.8241L45.9143 71.9378C46.9034 72.0771 47.8768 72.3029 48.8115 72.7134C49.7553 73.1181 50.5746 73.6695 51.3395 74.2787ZM35.659 75.9123L37.2259 79.8704L33.2423 81.4463C33.3807 80.4704 33.6033 79.5061 34.0072 78.5714C34.4316 77.5946 35.0004 76.7151 35.659 75.9123ZM37.23 91.7033L41.2812 90.1084L42.8876 94.1678C41.859 94.0294 40.8443 93.8035 39.875 93.3774C38.8818 92.9471 38.0237 92.3553 37.23 91.7033ZM53.0976 90.0515L51.5134 86.0547L55.4575 84.4878C55.3272 85.5091 55.1055 86.5221 54.6777 87.5153C54.2689 88.4459 53.7125 89.2833 53.0976 90.0515Z" fill="#864982"/>
</svg>
