<svg width="580" height="396" viewBox="0 0 580 396" fill="none" xmlns="http://www.w3.org/2000/svg">
<g id="title">
<g id="SVG">
<g id="Group">
<g id="Group_2">
<path id="Vector" d="M375.503 75.9493C370.89 70.4779 364.463 68.1488 361.263 70.8147C359.677 72.1505 360.396 74.0079 360.895 75.3729C361.509 77.0389 361.82 78.1331 360.942 79.2218C359.896 80.5085 357.219 80.7613 354.394 81.0254C351.131 81.3386 347.443 81.6801 344.909 83.8196C338.045 89.5957 338.12 99.5734 338.505 103.847C335.357 104.231 331.641 104.088 327.229 103.685C332.835 101.48 336.506 97.0802 337.603 90.7617C337.735 89.957 337.212 89.1995 336.408 89.0608C335.558 88.9174 334.834 89.4636 334.707 90.256C333.329 98.298 327.205 102.606 317.399 102.387C317.301 102.387 317.261 102.468 317.17 102.48C316.791 102.421 316.417 102.376 316.032 102.331C312.999 101.871 309.869 101.406 306.727 101.153C311.645 99.0904 314.942 95.4265 317.475 91.2786C317.688 91.1239 317.872 90.9164 317.986 90.6645C318.067 90.4692 318.113 90.274 318.175 90.0721C319.589 87.5911 320.806 84.9979 321.961 82.4904C322.082 82.2376 322.191 82.0075 322.318 81.7556C322.375 81.698 322.444 81.649 322.49 81.5858C326.407 75.256 331.681 73.1212 337.379 75.5805C338.114 75.8786 338.981 75.5578 339.321 74.8107C339.642 74.0617 339.287 73.2165 338.546 72.8806C334.324 71.0628 330.246 71.292 326.616 73.3523C328.086 70.8562 329.677 68.4092 330.878 66.7461C331.154 67.2026 331.482 67.6281 331.883 67.9979C332.607 68.662 333.485 69.1205 334.446 69.3516C335.651 69.6497 336.949 69.5346 338.087 69.0525C338.65 70.144 339.545 71.0628 340.672 71.6288C341.481 72.0278 342.355 72.2401 343.273 72.2401C343.296 72.2401 343.504 72.2288 343.527 72.2288C344.744 72.1627 345.876 71.7458 346.83 71.0109C347.771 71.5967 348.909 71.9099 350.168 71.9099C350.179 71.9099 350.179 71.9099 350.189 71.9099C351.154 71.8873 352.12 71.5911 353.01 71.0628C354.101 70.3902 354.906 69.4138 355.348 68.262C356.52 68.6328 357.796 68.6441 359.024 68.2394C359.954 67.8979 360.805 67.363 361.437 66.6461C362.259 65.7697 362.77 64.6358 362.908 63.4755C364.091 63.2114 365.171 62.6114 365.975 61.7067C366.619 60.9832 367.09 60.1068 367.332 59.1361C367.63 57.907 367.505 56.6231 367.022 55.5062C368.119 54.9401 369.008 54.0477 369.584 52.9186C370.032 52.0431 370.238 51.0772 370.193 50.0782C370.13 48.8603 369.71 47.7208 368.975 46.7727C369.607 45.7614 369.939 44.5785 369.883 43.3493C369.825 42.3503 369.52 41.3966 369.021 40.5891C368.372 39.5005 367.401 38.6967 366.229 38.2487C366.603 37.0855 366.603 35.8129 366.212 34.6008C365.902 33.6621 365.35 32.8141 364.615 32.1537C363.742 31.3321 362.616 30.8151 361.421 30.6661C361.168 29.5143 360.565 28.4483 359.675 27.6332C358.928 26.9436 358.072 26.4729 357.101 26.2541C355.883 25.9786 354.573 26.0909 353.459 26.5729C352.896 25.4673 352 24.5598 350.881 24.0136C350.076 23.6089 349.169 23.3901 348.031 23.4023C346.819 23.4571 345.682 23.874 344.722 24.5976C343.78 24.0033 342.642 23.6844 341.344 23.6844C341.333 23.6844 341.322 23.6844 341.31 23.6844C340.322 23.7448 339.368 24.0438 338.541 24.5428C337.456 25.2098 336.657 26.1975 336.197 27.3606C335.026 26.9729 333.694 26.9842 332.556 27.3748C331.62 27.6851 330.765 28.2304 330.098 28.9605C329.283 29.868 328.777 30.9745 328.633 32.1434C327.473 32.3962 326.41 33.0027 325.594 33.9046C324.916 34.6281 324.445 35.4979 324.221 36.4799C323.917 37.7204 324.037 38.9845 324.52 40.1212C323.411 40.673 322.526 41.5598 321.963 42.6956C321.539 43.5568 321.32 44.5389 321.349 45.5614C321.418 46.7793 321.849 47.9075 322.572 48.8556C321.935 49.8555 321.602 51.0357 321.648 52.2677C321.717 53.2902 322.01 54.244 322.504 55.025C323.158 56.1137 324.135 56.9174 325.307 57.3711C324.934 58.5428 324.922 59.8182 325.325 61.0021C325.623 61.9322 326.175 62.7888 326.917 63.4831C327.474 63.9774 328.112 64.3189 328.789 64.5717C326.755 67.3262 323.699 72.2542 321.965 75.6116C321.075 77.3351 320.23 79.1652 319.391 81.0226C318.995 78.1709 317.714 75.6776 315.589 73.6476C318.335 73.2825 322.011 71.6948 323.413 65.8782C325.216 58.4711 320.333 54.4128 310.696 49.4952C307.237 47.683 304.067 45.2077 299.822 38.8609C299.764 38.7769 299.67 38.7373 299.598 38.6854C299.523 38.5968 299.474 38.5618 299.382 38.4902C299.075 38.3147 298.771 38.1798 298.474 38.226C298.462 38.226 298.462 38.226 298.462 38.226C298.462 38.226 298.462 38.226 298.451 38.226C298.098 38.2713 297.834 38.4552 297.592 38.6967C297.529 38.7543 297.469 38.8203 297.44 38.8892C297.391 38.9609 297.317 39.0128 297.276 39.1014C296.924 39.9146 288.758 59.1371 294.315 70.6487C296.188 74.4881 299.35 77.0587 303.75 78.2275C304.158 78.3539 304.605 78.3945 305.129 78.3945C306.72 78.3945 308.995 77.8115 310.591 76.2002C311.12 75.6606 311.493 75.0173 311.786 74.3475C316.537 77.4181 317.829 82.565 315.458 88.9665C312.488 94.1134 308.69 98.2499 301.958 99.5357C298.552 100.179 295.223 99.564 292.382 97.933C295.668 94.7567 297.822 90.3457 298.227 85.3884C298.305 84.5639 297.698 83.8687 296.88 83.7941C296.081 83.6706 295.364 84.3234 295.286 85.1412C294.922 89.5646 292.957 93.4709 289.981 96.1821C286.989 93.4709 285.042 89.5646 284.677 85.1412C284.599 84.3168 283.881 83.6828 283.083 83.7941C282.258 83.8687 281.669 84.5639 281.735 85.3884C282.135 90.3457 284.306 94.7567 287.581 97.933C284.723 99.564 281.405 100.196 277.999 99.5357C271.264 98.2499 267.47 94.1134 264.5 88.9665C262.125 82.565 263.417 77.4181 268.171 74.3475C268.464 75.0173 268.828 75.6776 269.366 76.2002C270.96 77.8115 273.218 78.3945 274.829 78.3945C275.349 78.3945 275.8 78.335 276.193 78.2275C280.594 77.0587 283.765 74.4881 285.629 70.6487C291.189 59.1371 283.029 39.8967 282.67 39.1014C282.631 39.0014 282.547 38.9722 282.513 38.8892C282.467 38.8024 282.401 38.7533 282.355 38.6967C282.119 38.4552 281.838 38.2713 281.497 38.226C281.485 38.226 281.485 38.226 281.485 38.226C281.485 38.226 281.485 38.226 281.474 38.226C281.184 38.1798 280.863 38.3147 280.578 38.4902C280.471 38.5562 280.42 38.6137 280.325 38.7081C280.256 38.7713 280.185 38.8081 280.133 38.8609C275.879 45.1907 272.708 47.684 269.261 49.4848C259.62 54.4138 254.738 58.4711 256.533 65.8782C257.937 71.6948 261.608 73.2995 264.356 73.6476C262.256 75.6776 260.978 78.1709 260.562 81.0226C259.72 79.1812 258.885 77.3351 257.986 75.6116C256.251 72.2542 253.187 67.3262 251.15 64.5717C251.839 64.3189 252.491 63.9651 253.045 63.4661C253.78 62.7944 254.332 61.9379 254.619 61.019C255.032 59.8361 255.021 58.5616 254.656 57.3891C255.791 56.9495 256.768 56.125 257.431 55.059C257.936 54.2496 258.244 53.2959 258.296 52.2422C258.351 51.0357 258.02 49.8669 257.38 48.8556C258.103 47.9368 258.526 46.785 258.603 45.5501C258.633 44.5615 258.414 43.5738 257.992 42.7324C257.426 41.5985 256.534 40.673 255.434 40.1391C255.916 39.0014 256.039 37.7496 255.727 36.5082C255.5 35.5205 255.04 34.6621 254.363 33.9329C253.571 33.0678 252.545 32.4622 251.322 32.1981C251.181 31.0142 250.675 29.8803 249.845 28.9784C249.181 28.2568 248.334 27.6974 247.412 27.3983C246.252 26.9852 244.934 26.9852 243.759 27.3757C243.282 26.2163 242.458 25.2277 241.4 24.5561C240.57 24.0448 239.605 23.7457 238.335 23.7004C237.227 23.7004 236.13 24.0221 235.199 24.6108C234.245 23.8863 233.038 23.4703 231.629 23.4042C230.722 23.4042 229.845 23.6108 229.075 24.0155C227.953 24.5759 227.027 25.4739 226.482 26.5861C225.371 26.1031 224.069 25.9918 222.841 26.2729C221.881 26.4861 221.005 26.9569 220.264 27.6342C219.382 28.4671 218.771 29.5095 218.507 30.684C217.312 30.8274 216.201 31.3443 215.325 32.1688C214.59 32.8263 214.035 33.6735 213.731 34.613C213.337 35.8309 213.337 37.0968 213.708 38.2487C212.57 38.6967 211.6 39.5212 210.931 40.5891C210.414 41.4079 210.112 42.3607 210.071 43.3833C210.011 44.6011 210.347 45.7728 210.976 46.7831C210.252 47.7141 209.824 48.866 209.77 50.0895C209.723 51.0894 209.93 52.0535 210.381 52.9186C210.958 54.0647 211.846 54.9722 212.946 55.5231C212.484 56.641 212.339 57.9192 212.647 59.1588C212.877 60.0983 213.348 60.9945 213.994 61.7181C214.781 62.5831 215.817 63.1887 217.047 63.4529C217.193 64.6358 217.704 65.7707 218.517 66.6583C219.164 67.3706 220.011 67.9281 220.964 68.2582C222.145 68.6403 223.458 68.6403 224.618 68.2762C225.069 69.4044 225.893 70.3921 226.982 71.0817C227.841 71.6043 228.811 71.8948 230.029 71.9288C231.135 71.9288 232.223 71.6043 233.139 71.0298C234.076 71.7533 235.222 72.1693 236.445 72.2363C236.468 72.2363 236.663 72.2476 236.675 72.2476C237.605 72.2476 238.487 72.041 239.286 71.6364C240.403 71.0704 241.316 70.1515 241.863 69.061C243 69.5431 244.321 69.6582 245.504 69.3591C246.458 69.1289 247.339 68.6705 248.08 68.0064C248.479 67.6422 248.804 67.2111 249.086 66.7536C250.281 68.4167 251.863 70.8524 253.334 73.3485C249.703 71.2892 245.616 71.06 241.412 72.8891C240.67 73.2249 240.317 74.0692 240.639 74.8192C240.969 75.5654 241.834 75.9135 242.569 75.588C248.256 73.1297 253.54 75.2522 257.458 81.5933C257.503 81.6763 257.582 81.7112 257.638 81.7745C257.756 82.0159 257.874 82.2461 257.998 82.498C259.133 85.0054 260.35 87.5986 261.781 90.0806C261.855 90.2758 261.904 90.4589 261.961 90.6721C262.084 90.9362 262.268 91.1315 262.481 91.2862C265.031 95.4331 268.302 99.098 273.231 101.161C270.086 101.414 266.956 101.885 263.914 102.338C263.543 102.402 263.155 102.448 262.785 102.487C262.685 102.465 262.656 102.395 262.549 102.395C252.767 102.597 246.627 98.3169 245.251 90.2636C245.115 89.4712 244.392 88.9193 243.55 89.0693C242.738 89.207 242.203 89.9645 242.355 90.7692C243.449 97.0877 247.12 101.487 252.726 103.693C248.309 104.096 244.587 104.245 241.45 103.854C241.827 99.5753 241.91 89.6032 235.046 83.8281C232.498 81.6933 228.81 81.3462 225.556 81.033C222.727 80.7688 220.044 80.516 219.004 79.2293C218.134 78.1237 218.432 77.0474 219.062 75.3814C219.567 74.0173 220.268 72.141 218.697 70.8232C215.52 68.146 209.07 70.4987 204.462 75.9578C199.721 81.5877 198.575 88.1326 201.84 90.873C203.115 91.954 204.873 91.356 206.387 90.4598C207.644 89.7136 208.897 89.0467 210.158 89.7476C211.614 90.5626 212.315 93.1474 213.062 95.8944C213.921 99.0536 214.898 102.637 217.439 104.775C220.61 107.44 224.792 108.813 229.856 108.813C235.428 108.813 240.069 107.158 240.273 107.09C240.463 107.015 240.627 106.882 240.755 106.728C245.437 107.394 250.756 106.877 256.466 106.319C259.056 106.055 261.731 105.653 264.407 105.222C264.772 105.176 265.119 105.119 265.484 105.079C261.908 107.744 259.726 111.403 259.114 115.867C257.296 113.477 254.501 111.393 250.437 111.393C248.814 111.393 247.057 111.743 245.198 112.38C236.237 115.551 235.327 123.209 236.786 137.069C237.303 142.096 236.855 147.293 232.992 156.381C232.947 156.473 232.97 156.576 232.947 156.668C232.927 156.771 232.915 156.817 232.915 156.91C232.904 157.272 232.97 157.588 233.188 157.863H233.199C233.199 157.876 233.199 157.876 233.199 157.876C233.487 158.237 233.908 158.427 234.339 158.427C234.428 158.427 234.503 158.415 234.592 158.405C235.698 158.21 261.886 153.511 270.227 139.649C272.984 135.054 273.489 129.964 271.709 124.577C270.95 122.21 267.628 118.786 263.61 118.786C263.016 118.786 262.449 118.969 261.875 119.114C261.591 111.359 266.345 106.023 275.262 103.996C279.091 103.778 282.862 104.018 286.444 105.093C284.686 106.183 282.974 107.431 281.352 109.125C277.049 113.605 274.909 119.35 275.338 125.358C275.809 131.986 279.338 138.316 285.02 142.751C285.287 142.946 285.609 143.067 285.916 143.067C286.345 143.067 286.775 142.872 287.068 142.498C287.568 141.861 287.439 140.925 286.81 140.419C281.786 136.501 278.665 130.929 278.256 125.122C277.891 119.964 279.738 115.001 283.458 111.152C285.517 109.055 287.709 107.562 289.975 106.43C292.27 107.545 294.444 109.038 296.492 111.152C300.2 115.001 302.038 119.964 301.694 125.122C301.286 130.912 298.158 136.501 293.141 140.419C292.511 140.925 292.389 141.838 292.888 142.498C293.176 142.866 293.611 143.067 294.04 143.067C294.364 143.067 294.669 142.946 294.933 142.751C300.62 138.316 304.147 131.987 304.612 125.358C305.037 119.355 302.901 113.605 298.604 109.125C296.981 107.458 295.27 106.183 293.511 105.093C297.092 104.007 300.862 103.777 304.699 103.996C313.613 106.029 318.363 111.36 318.077 119.114C317.497 118.976 316.94 118.786 316.33 118.786C312.327 118.786 309.012 122.21 308.243 124.577C306.456 129.988 306.967 135.053 309.725 139.649C318.065 153.51 344.248 158.21 345.361 158.405C345.448 158.416 345.522 158.427 345.615 158.427C345.643 158.427 345.667 158.427 345.689 158.427C346.504 158.427 347.16 157.778 347.16 156.956C347.16 156.594 347.039 156.256 346.81 156.002C343.099 147.157 342.673 142.021 343.185 137.081C344.644 123.209 343.748 115.562 334.769 112.38C332.937 111.743 331.173 111.393 329.542 111.393C325.486 111.393 322.683 113.477 320.857 115.867C320.242 111.404 318.048 107.745 314.487 105.079C314.848 105.137 315.199 105.194 315.561 105.222C318.25 105.635 320.897 106.055 323.505 106.319C329.216 106.894 334.534 107.422 339.209 106.728C339.342 106.865 339.509 106.992 339.698 107.09C339.882 107.158 344.523 108.813 350.113 108.813C355.179 108.813 359.361 107.463 362.532 104.775C365.082 102.655 366.048 99.0536 366.909 95.8944C367.656 93.1483 368.356 90.5636 369.81 89.7476C371.08 89.0589 372.332 89.7136 373.578 90.4598C375.099 91.3447 376.858 91.954 378.139 90.873C381.392 88.125 380.237 81.5792 375.503 75.9493ZM298.313 71.2515C298.255 71.2515 298.218 71.309 298.177 71.309C297.718 70.709 297.313 70.0685 296.948 69.344C296.836 69.1261 296.812 68.862 296.707 68.6318L306.13 69.5516C306.526 70.0572 306.957 70.5515 307.382 70.9619L298.313 71.2515ZM315.544 55.6156L307.113 65.9433C306.7 65.2565 306.291 64.5217 305.923 63.7264L313.097 54.111C313.989 54.6279 314.822 55.1326 315.544 55.6156ZM295.348 61.7388L303.005 64.4038C303.333 65.0905 303.671 65.7508 304.034 66.3914L295.764 65.5848C295.507 64.3443 295.389 63.0623 295.348 61.7388ZM295.383 58.6399C295.442 57.7702 295.556 56.8683 295.67 55.9976L300.984 59.1333C301.156 59.6965 301.352 60.2389 301.564 60.7851L295.383 58.6399ZM298.301 48.0566L297.506 47.333C297.643 46.8397 297.795 46.368 297.93 45.9114C298.042 46.585 298.166 47.3095 298.301 48.0566ZM299.255 52.9271C299.267 52.9384 299.283 52.9271 299.295 52.9384C299.447 53.628 299.637 54.3289 299.812 55.026L296.191 52.8808C296.33 52.0856 296.5 51.3158 296.673 50.5574L299.255 52.9271ZM320.542 65.1509C319.646 68.8846 317.504 70.7798 314.224 70.7798C314.138 70.7798 314.097 70.7685 314.023 70.7685L320.761 62.6548C320.806 63.4397 320.756 64.266 320.542 65.1509ZM319.629 59.4097L310.915 69.91C310.214 69.545 309.571 69.0393 308.928 68.3564L317.877 57.4221C318.607 58.0852 319.181 58.7522 319.629 59.4097ZM310.484 52.6856L304.608 60.5549C304.315 59.7852 304.052 58.9786 303.787 58.1683L308.429 51.5394C308.727 51.7092 309.043 51.9158 309.331 52.0686C309.761 52.2865 310.094 52.4799 310.484 52.6856ZM305.964 49.9404L302.741 54.5326C302.505 53.628 302.299 52.7035 302.092 51.8092L304.379 48.699C304.913 49.1678 305.435 49.5499 305.964 49.9404ZM302.224 46.634L301.287 47.9207C301.104 46.8868 300.92 45.8841 300.771 44.9454C301.259 45.5171 301.759 46.1407 302.224 46.634ZM305.096 75.4333C304.763 75.4333 304.568 75.3843 304.486 75.3616C303.337 75.0484 302.35 74.6032 301.42 74.0862L308.623 73.856C308.554 73.94 308.525 74.0258 308.462 74.1202C307.578 75.0192 306.136 75.4333 305.096 75.4333ZM328.642 57.2702C329.016 56.8334 329.061 56.2099 328.819 55.6929C328.578 55.1505 328.015 54.8345 327.452 54.8345C326.436 54.8345 325.522 54.3147 324.988 53.444C324.747 53.0686 324.61 52.5856 324.575 52.0913C324.541 51.2328 324.897 50.4168 325.536 49.8169C325.863 49.515 326.035 49.0924 326.012 48.6565C325.989 48.2349 325.77 47.8151 325.408 47.551C324.754 47.0453 324.305 46.2407 324.277 45.4171C324.259 44.9115 324.37 44.4408 324.599 43.9813C325.041 43.088 325.937 42.4767 326.96 42.3928C327.54 42.3475 328.034 41.9701 328.23 41.4277C328.425 40.8768 328.287 40.2702 327.862 39.8627C327.127 39.1533 326.828 38.1279 327.068 37.1289C327.196 36.6459 327.425 36.2242 327.747 35.8535C328.299 35.2413 329.057 34.9224 330.01 34.9224C330.021 34.9224 330.021 34.9224 330.021 34.9224C330.47 34.9224 330.883 34.7762 331.182 34.4404C331.48 34.1159 331.606 33.6819 331.544 33.2452C331.423 32.3924 331.676 31.5472 332.256 30.9161C332.595 30.5604 332.991 30.3038 333.474 30.135C334.415 29.8105 335.507 30.0284 336.283 30.6859C336.72 31.0651 337.34 31.1453 337.869 30.9038C338.386 30.651 338.73 30.1227 338.725 29.551C338.707 28.5294 339.242 27.5634 340.097 27.0352C340.488 26.7823 340.965 26.6474 341.603 26.6097C342.43 26.6097 343.189 26.9569 343.739 27.5634C344.038 27.8993 344.44 28.0351 344.888 28.0464C345.325 28.0238 345.728 27.8049 345.991 27.4578C346.515 26.7682 347.313 26.3522 348.324 26.3229C348.761 26.3229 349.174 26.4408 349.576 26.6474C350.478 27.0701 351.092 27.9804 351.162 28.9737C351.22 29.551 351.575 30.0454 352.116 30.251C352.673 30.4585 353.276 30.335 353.69 29.9039C354.408 29.169 355.464 28.87 356.476 29.0992C356.918 29.2143 357.337 29.4331 357.716 29.7746C358.348 30.3633 358.693 31.1727 358.646 32.0518C358.628 32.4858 358.807 32.9103 359.129 33.198C359.451 33.4989 359.911 33.6197 360.312 33.5631C361.18 33.4452 362.036 33.7093 362.639 34.2866C363.007 34.6347 363.265 35.0224 363.426 35.4818C363.759 36.4695 363.553 37.5383 362.869 38.2996C362.507 38.7335 362.473 39.3561 362.713 39.8759C362.943 40.4042 363.512 40.7315 364.074 40.7315C365.074 40.7315 365.981 41.24 366.522 42.105C366.763 42.4871 366.906 42.9635 366.93 43.4521C366.971 44.3106 366.614 45.1379 365.976 45.7322C365.655 46.0341 365.483 46.451 365.5 46.8878C365.522 47.3208 365.735 47.734 366.086 47.9934C366.774 48.5103 367.194 49.3093 367.235 50.1499C367.257 50.6442 367.154 51.1149 366.93 51.546C366.471 52.462 365.58 53.062 364.557 53.1403C363.977 53.1865 363.477 53.5619 363.282 54.1166C363.087 54.6562 363.23 55.2628 363.644 55.6788C364.368 56.3674 364.684 57.4277 364.454 58.4041C364.327 58.8861 364.091 59.3088 363.764 59.6908C363.225 60.3021 362.46 60.621 361.502 60.621C361.496 60.621 361.49 60.621 361.49 60.621C361.042 60.5983 360.628 60.7672 360.335 61.1153C360.042 61.4398 359.916 61.8737 359.967 62.3105C360.094 63.1265 359.824 63.9962 359.232 64.6339C358.911 64.9896 358.497 65.2631 358.043 65.4263C357.113 65.7367 355.992 65.5329 355.246 64.8754C354.797 64.4962 354.177 64.4038 353.653 64.6575C353.119 64.899 352.792 65.416 352.792 66.0046C352.804 67.0385 352.286 67.9809 351.442 68.5082C351.005 68.7837 350.546 68.9082 349.896 68.9337C349.081 68.9337 348.317 68.5979 347.77 67.9913C347.472 67.6668 347.161 67.5083 346.616 67.5083C346.191 67.5432 345.771 67.7498 345.507 68.1092C344.99 68.7978 344.209 69.2148 343.37 69.2318L343.243 70.7138V69.2431C342.773 69.2431 342.336 69.1365 341.933 68.9441C341.038 68.4847 340.417 67.5913 340.337 66.5772C340.291 65.9772 339.924 65.4829 339.36 65.2905C339.217 65.2301 339.039 65.2075 338.867 65.2075C338.493 65.2075 338.097 65.3565 337.81 65.6556C337.121 66.3678 336.059 66.6772 335.076 66.4367C334.594 66.3187 334.168 66.1037 333.806 65.7725C333.168 65.1839 332.83 64.3858 332.864 63.4727C332.882 63.051 332.709 62.6199 332.376 62.3378C332.048 62.036 331.623 61.9614 331.192 61.9737C330.377 62.1029 329.481 61.8331 328.86 61.2615C328.498 60.9257 328.239 60.503 328.061 60.0323C327.768 59.0965 327.982 58.0277 328.642 57.2702ZM266.826 54.111L274.003 63.7264C273.632 64.5217 273.225 65.2575 272.813 65.9433L264.378 55.6269C265.102 55.1326 265.944 54.6279 266.826 54.111ZM276.918 64.4038L284.578 61.7388C284.537 63.0623 284.42 64.3443 284.167 65.5848L275.906 66.3914C276.255 65.7508 276.602 65.0905 276.918 64.4038ZM283.748 52.8808L280.114 55.026C280.289 54.3279 280.476 53.628 280.631 52.9384C280.643 52.9271 280.66 52.9384 280.671 52.9271L283.253 50.5517C283.437 51.3102 283.596 52.0856 283.748 52.8808ZM281.625 48.0566C281.76 47.3095 281.884 46.5859 281.99 45.9114C282.119 46.3671 282.266 46.8387 282.401 47.333L281.625 48.0566ZM278.943 59.1333L284.253 55.9976C284.377 56.8674 284.483 57.7692 284.544 58.6399L278.36 60.7851C278.567 60.2332 278.759 59.6908 278.943 59.1333ZM273.808 69.5506L283.219 68.6309C283.125 68.861 283.096 69.1252 282.979 69.3431C282.625 70.0666 282.22 70.7072 281.761 71.3081C281.701 71.3081 281.666 71.2505 281.626 71.2505L272.573 70.96C272.994 70.5506 273.408 70.0563 273.808 69.5506ZM275.43 75.3607C275.339 75.3833 275.143 75.4324 274.819 75.4324C273.785 75.4324 272.343 75.0192 271.461 74.1192C271.378 74.024 271.355 73.939 271.304 73.8551L278.502 74.0853C277.568 74.6088 276.579 75.0569 275.43 75.3607ZM279.155 44.9454C279.005 45.885 278.82 46.8878 278.636 47.9207L277.702 46.634C278.168 46.1407 278.668 45.5171 279.155 44.9454ZM275.559 48.6999L277.842 51.8101C277.636 52.7035 277.431 53.6289 277.196 54.5336L273.959 49.9414C274.491 49.5499 275.014 49.1678 275.559 48.6999ZM271.49 51.5394L276.131 58.1683C275.867 58.9984 275.591 59.7852 275.295 60.5549L269.419 52.6856C269.812 52.4676 270.154 52.2865 270.574 52.0686C270.878 51.9167 271.191 51.7092 271.49 51.5394ZM262.061 57.4221L270.996 68.3677C270.385 69.0346 269.71 69.5506 269.02 69.91L260.309 59.4097C260.742 58.7522 261.314 58.0852 262.061 57.4221ZM259.372 65.1509C259.163 64.266 259.114 63.4397 259.163 62.6548L265.904 70.7685C265.821 70.7685 265.78 70.7798 265.703 70.7798C262.402 70.7798 260.28 68.8846 259.372 65.1509ZM247.527 62.3624C247.192 62.6491 247.019 63.0746 247.039 63.4849C247.074 64.3811 246.731 65.1971 246.103 65.7971C245.738 66.1329 245.308 66.3518 244.822 66.4489C243.88 66.7131 242.78 66.3801 242.09 65.6678C241.697 65.2688 241.079 65.116 240.539 65.3028C239.979 65.498 239.609 65.9914 239.563 66.5866C239.474 67.5979 238.874 68.4969 237.969 68.9563C237.573 69.1488 237.117 69.2544 236.656 69.2544V70.7251L236.538 69.2431C235.68 69.2082 234.899 68.8035 234.378 68.1139C234.114 67.7611 233.715 67.5479 233.272 67.5196C233.238 67.5196 233.215 67.5196 233.192 67.5196C232.79 67.5196 232.38 67.6894 232.104 68.0017C231.543 68.6082 230.786 68.9327 229.808 68.9327H229.798C229.327 68.9176 228.868 68.7922 228.451 68.5507C227.592 67.9903 227.076 67.0489 227.076 66.015C227.087 65.4207 226.74 64.9094 226.217 64.6679C225.697 64.4151 225.079 64.5217 224.628 64.8858C223.87 65.5263 222.698 65.7386 221.851 65.449C221.363 65.2914 220.952 65.015 220.622 64.633C220.045 64.0189 219.775 63.1368 219.904 62.3095C219.964 61.8963 219.746 61.4568 219.47 61.1379C219.192 60.8247 218.686 60.6323 218.264 60.6323C217.411 60.6323 216.664 60.2964 216.121 59.7125C215.783 59.3371 215.541 58.8852 215.44 58.4258C215.204 57.4268 215.52 56.3787 216.238 55.6778C216.658 55.2901 216.81 54.6666 216.603 54.126C216.417 53.5723 215.917 53.1959 215.328 53.1497C214.291 53.0667 213.42 52.4724 212.955 51.5441C212.74 51.1309 212.628 50.6621 212.651 50.1687C212.697 49.3075 213.11 48.5264 213.797 48.0094C214.156 47.7453 214.363 47.3547 214.386 46.9029C214.409 46.4727 214.24 46.0444 213.915 45.7511C213.274 45.1568 212.915 44.3379 212.964 43.4795C212.986 42.9739 213.121 42.5031 213.375 42.1098C213.903 41.2513 214.811 40.7513 215.868 40.7513C216.474 40.7259 216.974 40.4212 217.221 39.8929C217.463 39.3731 217.382 38.7552 217.017 38.31C216.35 37.5204 216.152 36.4752 216.457 35.4932C216.61 35.0337 216.873 34.6347 217.259 34.2866C217.87 33.7036 218.703 33.4395 219.588 33.5744C219.998 33.6263 220.447 33.4914 220.768 33.2037C221.093 32.9169 221.268 32.4914 221.251 32.0641C221.205 31.1991 221.552 30.3746 222.194 29.7812C222.559 29.4275 222.98 29.2152 223.423 29.1124C224.411 28.8822 225.488 29.1813 226.211 29.9171C226.605 30.3302 227.234 30.4661 227.78 30.2708C228.323 30.0727 228.682 29.5699 228.723 28.9954C228.806 27.9757 229.407 27.088 230.334 26.6484C230.705 26.4531 231.305 26.3182 231.729 26.3531C232.582 26.3758 233.352 26.7889 233.874 27.47C234.138 27.8238 234.535 28.0417 234.98 28.0643C235.417 28.0757 235.839 27.9115 236.129 27.5823C236.703 26.971 237.455 26.6286 238.381 26.6286C238.392 26.6286 238.392 26.6286 238.392 26.6286C238.909 26.6597 239.38 26.8012 239.78 27.0531C240.638 27.5823 241.17 28.5464 241.152 29.569C241.147 30.152 241.48 30.6746 241.997 30.9161C242.528 31.1462 243.14 31.0651 243.591 30.7066C244.369 30.052 245.426 29.8416 246.409 30.1463C246.879 30.3038 247.276 30.5708 247.597 30.9161C248.192 31.5594 248.456 32.4179 248.322 33.2593C248.259 33.6753 248.485 34.1093 248.77 34.4225C249.045 34.7526 249.562 34.9281 249.982 34.9281C250.821 34.9281 251.575 35.2696 252.127 35.8818C252.457 36.2346 252.682 36.6506 252.779 37.1449C253.032 38.1326 252.727 39.1637 251.987 39.8769C251.575 40.2702 251.426 40.8881 251.622 41.439C251.817 41.9881 252.323 42.3579 252.903 42.4041C253.939 42.4937 254.816 43.0823 255.275 44.004C255.493 44.4408 255.603 44.9115 255.586 45.3747C255.528 46.2331 255.109 47.0406 254.446 47.5453C254.092 47.8094 253.874 48.2122 253.852 48.6509C253.818 49.0877 253.998 49.5093 254.323 49.8112C254.964 50.397 255.323 51.2102 255.277 52.0516C255.255 52.5809 255.117 53.0629 254.858 53.4506C254.336 54.31 253.431 54.8147 252.348 54.8147C251.702 54.7694 251.242 55.1279 251.001 55.6741C250.754 56.1939 250.848 56.8004 251.224 57.2627C251.876 58.0239 252.084 59.0918 251.771 60.0691C251.63 60.5172 251.366 60.9389 251.001 61.2643C250.377 61.8416 249.47 62.1237 248.666 61.9879C248.275 61.9567 247.844 62.0605 247.527 62.3624ZM229.821 105.846C225.463 105.846 221.916 104.731 219.286 102.514C217.45 100.963 216.641 97.9877 215.851 95.1152C214.947 91.7607 214.082 88.5788 211.552 87.1741C210.716 86.7025 209.857 86.4732 208.975 86.4732C207.324 86.4732 205.951 87.2666 204.876 87.909C204.441 88.1646 203.771 88.5495 203.699 88.6061C202.022 87.1968 202.841 82.4263 206.691 77.8426C209.756 74.2032 213.186 72.5722 215.204 72.5722C215.856 72.5722 216.394 72.7448 216.703 72.9193C216.733 73.1495 216.463 73.873 216.299 74.3551C215.669 76.0437 214.705 78.6086 216.703 81.0905C218.539 83.3423 221.804 83.6659 225.268 83.9592C228.232 84.2498 231.285 84.5366 233.138 86.0704C238.709 90.7607 238.827 99.2848 238.532 103.26C235.763 102.455 233.497 100.973 231.55 98.4857C233.31 96.0387 233.087 92.6267 230.791 90.5362C228.433 88.3646 224.415 88.5599 222.244 90.9211C221.144 92.104 220.604 93.6549 220.655 95.2746C220.727 96.8708 221.428 98.3641 222.614 99.4678C223.731 100.49 225.191 101.059 226.704 101.059C227.625 101.059 228.527 100.795 229.338 100.399C231.15 102.691 233.244 104.218 235.579 105.23C233.957 105.558 231.981 105.846 229.821 105.846ZM224.605 97.3094C223.993 96.7462 223.628 95.9708 223.591 95.1492C223.55 94.3228 223.838 93.5474 224.41 92.921C225.01 92.2663 225.834 91.8993 226.722 91.8993C227.497 91.8993 228.238 92.1861 228.805 92.7144C230.08 93.8738 230.163 95.8501 229.008 97.1141C227.891 98.332 225.82 98.4178 224.605 97.3094ZM266.656 139.415L260.651 127.903C261.05 126.697 261.297 125.525 261.42 124.371L268.761 134.859C268.857 134.98 268.992 134.952 269.103 135.02C268.749 136.077 268.291 137.1 267.695 138.082C267.396 138.564 266.978 138.966 266.656 139.415ZM240.485 120.102L258.485 122.159C258.666 123.388 258.556 124.737 258.149 126.186L239.367 124.222C239.575 122.562 239.974 121.251 240.485 120.102ZM257.12 129.017C256.587 130.189 255.943 131.384 255.179 132.613L239.25 131.671C239.15 129.994 239.138 128.511 239.173 127.139L257.12 129.017ZM250.673 138.816L239.767 138.461C239.738 137.868 239.733 137.277 239.675 136.749C239.586 135.98 239.549 135.348 239.498 134.636L253.273 135.469C252.462 136.588 251.591 137.702 250.673 138.816ZM245.055 145.101L239.486 144.826C239.662 143.595 239.75 142.482 239.799 141.413L248.25 141.689C247.192 142.848 246.126 143.981 245.055 145.101ZM238.897 147.743L242.237 147.898C240.62 149.489 239.037 150.937 237.599 152.206C238.127 150.621 238.586 149.11 238.897 147.743ZM244.167 150.126L243.685 153.045C242.31 153.482 241.002 153.854 239.839 154.154C241.126 153.017 242.596 151.649 244.167 150.126ZM247.637 146.669C248.533 145.726 249.431 144.767 250.325 143.762L250.626 150.505C249.349 151.045 248.085 151.539 246.844 151.965L247.696 146.864C247.696 146.801 247.637 146.743 247.637 146.669ZM253.12 140.471C253.786 139.644 254.455 138.805 255.072 137.966L257.368 147.111C257.379 147.157 257.431 147.18 257.456 147.238C256.167 147.962 254.866 148.622 253.527 149.26L253.12 140.471ZM257.289 134.727C257.99 133.618 258.619 132.522 259.174 131.423L264.631 141.89C263.284 143.234 261.69 144.463 260.013 145.59L257.289 134.727ZM246.138 115.14C247.663 114.593 249.085 114.318 250.386 114.318C254.404 114.318 256.587 116.983 257.678 119.097L242.361 117.339C243.357 116.403 244.597 115.68 246.138 115.14ZM268.884 125.456C269.525 127.42 269.743 129.275 269.714 131.085L263.178 121.756C263.307 121.745 263.462 121.683 263.591 121.683C266.219 121.683 268.465 124.164 268.884 125.456ZM339.436 120.102C339.953 121.251 340.343 122.561 340.551 124.204L321.767 126.168C321.382 124.732 321.25 123.382 321.434 122.153L339.436 120.102ZM312.247 138.099C311.633 137.099 311.173 136.076 310.841 135.036C310.939 134.951 311.088 134.979 311.168 134.865L318.521 124.376C318.647 125.512 318.889 126.702 319.279 127.908L313.276 139.431C312.938 138.966 312.524 138.576 312.247 138.099ZM320.743 131.43C321.306 132.538 321.915 133.623 322.61 134.738L319.887 145.618C318.216 144.493 316.618 143.285 315.274 141.918L320.743 131.43ZM322.553 147.111L324.852 137.966C325.471 138.806 326.137 139.644 326.804 140.471L326.419 149.259C325.075 148.627 323.771 147.973 322.472 147.237C322.478 147.174 322.541 147.157 322.553 147.111ZM334.863 145.101C333.789 143.986 332.731 142.848 331.687 141.689L340.142 141.413C340.189 142.482 340.269 143.595 340.453 144.826L334.863 145.101ZM340.251 136.76C340.193 137.3 340.189 137.892 340.153 138.471L329.25 138.816C328.331 137.713 327.464 136.587 326.653 135.478L340.452 134.634C340.355 135.347 340.325 135.991 340.251 136.76ZM329.59 143.762C330.485 144.767 331.387 145.726 332.279 146.669C332.279 146.743 332.21 146.795 332.22 146.864L333.077 151.988C331.836 151.552 330.566 151.058 329.29 150.517L329.59 143.762ZM335.753 150.126C337.327 151.649 338.809 153.011 340.091 154.165C338.919 153.854 337.621 153.486 336.23 153.05L335.753 150.126ZM337.667 147.898L341.022 147.743C341.332 149.105 341.791 150.621 342.32 152.235C340.859 150.937 339.304 149.488 337.667 147.898ZM340.676 131.671L324.747 132.625C323.978 131.395 323.34 130.19 322.805 129.018L340.75 127.162C340.785 128.511 340.775 129.993 340.676 131.671ZM316.332 121.683C316.459 121.683 316.608 121.745 316.745 121.756L310.208 131.096C310.162 129.275 310.381 127.42 311.035 125.445C311.45 124.164 313.701 121.683 316.332 121.683ZM329.538 114.318C330.848 114.318 332.261 114.593 333.795 115.14C335.34 115.679 336.58 116.403 337.591 117.356L322.277 119.114C323.392 116.988 325.574 114.318 329.538 114.318ZM286.161 101.83C287.508 101.387 288.76 100.709 289.961 99.9177C291.161 100.71 292.425 101.388 293.76 101.83C292.465 102.158 291.201 102.617 289.961 103.135C288.713 102.617 287.448 102.158 286.161 101.83ZM376.394 88.5665C376.152 88.5542 375.503 88.1816 375.049 87.926C373.947 87.2817 372.602 86.4902 370.953 86.4902C370.074 86.4902 369.196 86.7194 368.38 87.1789C365.841 88.5778 364.985 91.7597 364.076 95.1322C363.29 98.0046 362.485 100.98 360.642 102.542C358.011 104.759 354.466 105.863 350.106 105.863C347.947 105.863 345.971 105.575 344.35 105.248C346.677 104.237 348.779 102.692 350.588 100.422C351.421 100.813 352.299 101.078 353.225 101.078C354.747 101.078 356.189 100.508 357.314 99.4857C359.773 97.2339 359.934 93.3974 357.683 90.9381C355.512 88.5778 351.496 88.3646 349.124 90.5532C346.844 92.6389 346.62 96.0566 348.377 98.5037C346.459 100.986 344.167 102.479 341.398 103.278C341.1 99.314 341.221 90.79 346.792 86.1025C348.624 84.5432 351.692 84.2677 354.657 83.9979C358.12 83.6668 361.395 83.3659 363.227 81.1141C365.232 78.6322 364.29 76.0908 363.629 74.373C363.462 73.9013 363.187 73.1778 363.136 73.0976C364.698 71.7911 369.15 73.0316 373.234 77.8737C377.1 82.432 377.921 87.1968 376.394 88.5665ZM350.913 97.1141C349.764 95.8501 349.844 93.8738 351.108 92.7144C351.694 92.1852 352.434 91.8993 353.199 91.8993C354.066 91.8993 354.906 92.255 355.508 92.921C356.657 94.1851 356.589 96.15 355.325 97.3094C354.739 97.8386 353.992 98.1245 353.222 98.1245C352.331 98.1245 351.521 97.7584 350.913 97.1141Z" fill="white"/>
<path id="Vector_2" d="M332.686 51.3214C332.686 51.3676 332.72 51.3931 332.72 51.4393C333.289 53.4269 334.236 55.2966 335.661 56.8843C338.245 59.7907 341.956 61.4453 345.839 61.4453C349.199 61.4453 352.445 60.202 354.961 57.9616C357.685 55.5145 359.299 52.1638 359.494 48.5093C359.689 44.868 358.459 41.3635 356.025 38.6523C354.634 37.0873 352.905 35.927 351.004 35.1572C350.93 35.1346 350.889 35.0516 350.827 35.0516C350.792 35.0516 350.764 35.0516 350.74 35.0516C350.74 35.0516 350.74 35.0516 350.734 35.0516C349.166 34.4506 347.53 34.0752 345.829 34.0752C344.593 34.0752 343.393 34.2931 342.227 34.6289C342.199 34.6289 342.188 34.6035 342.165 34.6035C341.952 34.6176 341.826 34.7299 341.665 34.7761C339.838 35.3761 338.139 36.2807 336.702 37.5825C335.243 38.8947 334.129 40.4635 333.371 42.2096C333.302 42.3474 333.182 42.4766 333.164 42.6577C333.164 42.6926 333.182 42.7068 333.182 42.7294C332.642 44.0765 332.262 45.5123 332.182 47.0178C332.101 48.4885 332.308 49.9243 332.687 51.3053C332.686 51.3101 332.686 51.31 332.686 51.3214ZM356.558 48.3461C356.507 49.3083 356.277 50.2271 355.99 51.1374L351.435 50.8733L351.75 45.1632L356.272 45.4047C356.491 46.3556 356.622 47.3433 356.558 48.3461ZM348.494 50.7101L342.778 50.3969L343.088 44.6868L348.809 44.9972L348.494 50.7101ZM339.843 50.2394L335.385 49.9865C335.19 49.0677 335.058 48.1395 335.11 47.1688C335.179 46.1688 335.408 45.2047 335.719 44.2878L340.141 44.5293L339.843 50.2394ZM336.495 52.9986L339.688 53.1798L339.515 56.3852C338.906 55.9626 338.35 55.4806 337.855 54.9259C337.315 54.3287 336.879 53.6741 336.495 52.9986ZM342.388 57.7861L342.629 53.3373L348.333 53.6505L348.092 58.1191C346.197 58.4983 344.232 58.3729 342.388 57.7861ZM351.102 57.0748L351.275 53.809L354.56 53.9929C354.117 54.6099 353.595 55.2221 352.998 55.7617C352.417 56.2786 351.774 56.7097 351.102 57.0748ZM355.128 42.3926L351.906 42.2228L352.073 39.0523C352.698 39.4975 353.302 40.0164 353.83 40.6286C354.325 41.1625 354.767 41.7634 355.128 42.3926ZM349.206 37.6335L348.965 42.0568L343.249 41.7465L343.49 37.3118C344.249 37.1392 345.03 37.0099 345.823 37.0099C346.995 37.0279 348.126 37.2797 349.206 37.6335ZM340.481 38.4863L340.314 41.588L337.207 41.4153C337.626 40.8267 338.12 40.2805 338.694 39.7749C339.235 39.2815 339.843 38.8513 340.481 38.4863Z" fill="white"/>
<path id="Vector_3" d="M246.755 42.6684C246.743 42.5325 246.631 42.4505 246.591 42.3241C245.822 40.5402 244.705 38.912 243.213 37.5762C241.82 36.3216 240.18 35.4282 238.437 34.8396C238.245 34.7245 238.072 34.5981 237.84 34.5981C237.802 34.5981 237.774 34.5981 237.745 34.5981C237.722 34.5981 237.707 34.6236 237.673 34.6236C236.516 34.2877 235.315 34.0698 234.08 34.0698C232.38 34.0698 230.739 34.4462 229.174 35.0462C229.169 35.0462 229.169 35.0462 229.169 35.0462C229.146 35.0462 229.114 35.0462 229.08 35.0462C228.997 35.0462 228.957 35.1292 228.905 35.1528C227.009 35.9225 225.28 37.0829 223.881 38.6479C221.446 41.359 220.216 44.8635 220.409 48.5048C220.604 52.1584 222.227 55.5101 224.944 57.9571C227.462 60.1976 230.702 61.4409 234.068 61.4409C237.948 61.4409 241.662 59.7863 244.239 56.8911C245.66 55.3026 246.62 53.4329 247.18 51.4339C247.18 51.3877 247.226 51.3622 247.226 51.316C247.226 51.3047 247.215 51.3047 247.215 51.2934C247.58 49.918 247.809 48.4765 247.721 47.0059C247.638 45.4984 247.267 44.0768 246.721 42.7184C246.732 42.7052 246.755 42.692 246.755 42.6684ZM223.356 48.3464C223.298 47.3436 223.446 46.3559 223.651 45.405L228.187 45.1635L228.503 50.8736L223.957 51.1377C223.641 50.2274 223.411 49.3086 223.356 48.3464ZM231.116 44.9975L236.832 44.6871L237.145 50.3972L231.432 50.7104L231.116 44.9975ZM239.767 44.5296L244.185 44.2881C244.515 45.205 244.744 46.1691 244.796 47.1691C244.851 48.1341 244.727 49.0624 244.532 49.9868L240.063 50.2396L239.767 44.5296ZM242.731 41.4156L239.609 41.5883L239.456 38.4865C240.079 38.8516 240.703 39.2818 241.268 39.7761C241.803 40.2817 242.297 40.827 242.731 41.4156ZM236.427 37.3178L236.668 41.7515L230.938 42.076L230.697 37.6385C231.797 37.2791 232.908 37.0272 234.074 37.0272C234.884 37.0281 235.668 37.1395 236.427 37.3178ZM227.833 39.0526L228.003 42.2231L224.786 42.3929C225.15 41.7637 225.578 41.1638 226.087 40.6119C226.615 40.0176 227.21 39.4978 227.833 39.0526ZM225.363 53.9989L228.663 53.8149L228.833 57.1147C228.17 56.7506 227.508 56.2987 226.941 55.7676C226.328 55.228 225.82 54.6281 225.363 53.9989ZM231.839 58.2439L231.592 53.6517L237.296 53.3385L237.543 57.8675C236.437 58.2439 235.28 58.4986 234.085 58.4986C233.322 58.4986 232.575 58.3986 231.839 58.2439ZM240.416 56.4346L240.238 53.18L243.432 52.9989C243.05 53.6857 242.602 54.346 242.074 54.9262C241.562 55.4922 241.008 55.9921 240.416 56.4346Z" fill="white"/>
</g>
</g>
</g>
<rect id="Heading 1" x="43.88" y="220.56" width="100" height="2" fill="white"/>
<path id="Heading 1 &#226;&#134;&#146; The Wedding of" d="M163.806 227.516C162.822 227.516 161.946 227.264 161.178 226.76C160.422 226.256 159.828 225.542 159.396 224.618C158.976 223.694 158.766 222.602 158.766 221.342C158.766 220.082 158.976 219.002 159.396 218.102C159.828 217.19 160.422 216.494 161.178 216.014C161.946 215.522 162.822 215.276 163.806 215.276C164.802 215.276 165.678 215.522 166.434 216.014C167.19 216.494 167.784 217.19 168.216 218.102C168.648 219.002 168.864 220.082 168.864 221.342C168.864 222.602 168.648 223.694 168.216 224.618C167.784 225.542 167.19 226.256 166.434 226.76C165.678 227.264 164.802 227.516 163.806 227.516ZM163.806 226.202C164.514 226.202 165.126 226.004 165.642 225.608C166.17 225.2 166.578 224.636 166.866 223.916C167.154 223.184 167.298 222.326 167.298 221.342C167.298 219.878 166.98 218.72 166.344 217.868C165.708 217.016 164.862 216.59 163.806 216.59C162.75 216.59 161.904 217.016 161.268 217.868C160.632 218.72 160.314 219.878 160.314 221.342C160.314 222.326 160.458 223.184 160.746 223.916C161.034 224.636 161.442 225.2 161.97 225.608C162.498 226.004 163.11 226.202 163.806 226.202ZM199.471 227.516C198.487 227.516 197.605 227.276 196.825 226.796C196.057 226.304 195.445 225.602 194.989 224.69C194.545 223.778 194.323 222.68 194.323 221.396C194.323 220.124 194.551 219.032 195.007 218.12C195.463 217.208 196.087 216.506 196.879 216.014C197.671 215.522 198.565 215.276 199.561 215.276C200.281 215.276 200.917 215.426 201.469 215.726C202.021 216.014 202.465 216.35 202.801 216.734L201.991 217.706C201.679 217.37 201.325 217.1 200.929 216.896C200.533 216.692 200.083 216.59 199.579 216.59C198.835 216.59 198.181 216.788 197.617 217.184C197.065 217.568 196.633 218.114 196.321 218.822C196.021 219.53 195.871 220.376 195.871 221.36C195.871 222.344 196.021 223.202 196.321 223.934C196.621 224.654 197.041 225.212 197.581 225.608C198.133 226.004 198.781 226.202 199.525 226.202C200.089 226.202 200.593 226.082 201.037 225.842C201.481 225.602 201.889 225.278 202.261 224.87L203.089 225.806C202.621 226.346 202.093 226.766 201.505 227.066C200.917 227.366 200.239 227.516 199.471 227.516ZM217.324 220.694L216.766 222.494H220.312L219.754 220.694C219.538 220.034 219.334 219.38 219.142 218.732C218.95 218.072 218.758 217.4 218.566 216.716H218.494C218.314 217.4 218.128 218.072 217.936 218.732C217.744 219.38 217.54 220.034 217.324 220.694ZM213.724 227.3L217.72 215.492H219.412L223.408 227.3H221.806L220.69 223.7H216.388L215.254 227.3H213.724ZM238.357 227.516C237.529 227.516 236.761 227.36 236.053 227.048C235.345 226.724 234.733 226.298 234.217 225.77L235.117 224.726C235.537 225.17 236.029 225.53 236.593 225.806C237.169 226.07 237.763 226.202 238.375 226.202C239.155 226.202 239.761 226.028 240.193 225.68C240.625 225.32 240.841 224.852 240.841 224.276C240.841 223.868 240.751 223.544 240.571 223.304C240.403 223.064 240.169 222.86 239.869 222.692C239.581 222.524 239.251 222.356 238.879 222.188L237.187 221.45C236.815 221.294 236.443 221.09 236.071 220.838C235.711 220.586 235.405 220.262 235.153 219.866C234.913 219.47 234.793 218.984 234.793 218.408C234.793 217.808 234.949 217.274 235.261 216.806C235.585 216.326 236.029 215.954 236.593 215.69C237.157 215.414 237.793 215.276 238.501 215.276C239.209 215.276 239.863 215.414 240.463 215.69C241.063 215.954 241.573 216.302 241.993 216.734L241.183 217.706C240.823 217.358 240.421 217.088 239.977 216.896C239.545 216.692 239.053 216.59 238.501 216.59C237.841 216.59 237.307 216.746 236.899 217.058C236.503 217.37 236.305 217.79 236.305 218.318C236.305 218.69 236.401 219.002 236.593 219.254C236.797 219.494 237.049 219.692 237.349 219.848C237.649 220.004 237.955 220.148 238.267 220.28L239.941 221C240.397 221.192 240.805 221.426 241.165 221.702C241.537 221.966 241.831 222.296 242.047 222.692C242.263 223.076 242.371 223.562 242.371 224.15C242.371 224.774 242.209 225.344 241.885 225.86C241.561 226.364 241.099 226.766 240.499 227.066C239.899 227.366 239.185 227.516 238.357 227.516ZM256.73 220.694L256.172 222.494H259.718L259.16 220.694C258.944 220.034 258.74 219.38 258.548 218.732C258.356 218.072 258.164 217.4 257.972 216.716H257.9C257.72 217.4 257.534 218.072 257.342 218.732C257.15 219.38 256.946 220.034 256.73 220.694ZM253.13 227.3L257.126 215.492H258.818L262.814 227.3H261.212L260.096 223.7H255.794L254.66 227.3H253.13ZM274.487 227.3V215.492H276.287L278.555 221.792C278.699 222.2 278.837 222.614 278.969 223.034C279.113 223.442 279.257 223.85 279.401 224.258H279.473C279.617 223.85 279.749 223.442 279.869 223.034C280.001 222.614 280.139 222.2 280.283 221.792L282.515 215.492H284.333V227.3H282.929V220.802C282.929 220.274 282.953 219.692 283.001 219.056C283.049 218.408 283.091 217.826 283.127 217.31H283.055L282.119 219.992L279.887 226.112H278.897L276.665 219.992L275.729 217.31H275.657C275.693 217.826 275.729 218.408 275.765 219.056C275.813 219.692 275.837 220.274 275.837 220.802V227.3H274.487ZM297.565 227.3V215.492H304.369V216.752H299.059V220.46H303.541V221.738H299.059V226.022H304.549V227.3H297.565ZM317.058 227.3V215.492H318.606L322.872 222.908L324.15 225.356H324.222C324.186 224.756 324.144 224.138 324.096 223.502C324.06 222.854 324.042 222.218 324.042 221.594V215.492H325.464V227.3H323.916L319.632 219.866L318.354 217.436H318.282C318.33 218.024 318.372 218.63 318.408 219.254C318.456 219.878 318.48 220.502 318.48 221.126V227.3H317.058ZM341.16 227.3V216.752H337.596V215.492H346.236V216.752H342.672V227.3H341.16ZM362.279 227.516C361.295 227.516 360.419 227.264 359.651 226.76C358.895 226.256 358.301 225.542 357.869 224.618C357.449 223.694 357.239 222.602 357.239 221.342C357.239 220.082 357.449 219.002 357.869 218.102C358.301 217.19 358.895 216.494 359.651 216.014C360.419 215.522 361.295 215.276 362.279 215.276C363.275 215.276 364.151 215.522 364.907 216.014C365.663 216.494 366.257 217.19 366.689 218.102C367.121 219.002 367.337 220.082 367.337 221.342C367.337 222.602 367.121 223.694 366.689 224.618C366.257 225.542 365.663 226.256 364.907 226.76C364.151 227.264 363.275 227.516 362.279 227.516ZM362.279 226.202C362.987 226.202 363.599 226.004 364.115 225.608C364.643 225.2 365.051 224.636 365.339 223.916C365.627 223.184 365.771 222.326 365.771 221.342C365.771 219.878 365.453 218.72 364.817 217.868C364.181 217.016 363.335 216.59 362.279 216.59C361.223 216.59 360.377 217.016 359.741 217.868C359.105 218.72 358.787 219.878 358.787 221.342C358.787 222.326 358.931 223.184 359.219 223.916C359.507 224.636 359.915 225.2 360.443 225.608C360.971 226.004 361.583 226.202 362.279 226.202ZM393.479 227.3V215.492H396.431C398.255 215.492 399.641 216.002 400.589 217.022C401.537 218.03 402.011 219.47 402.011 221.342C402.011 223.226 401.537 224.69 400.589 225.734C399.653 226.778 398.291 227.3 396.503 227.3H393.479ZM394.973 226.076H396.323C397.703 226.076 398.735 225.662 399.419 224.834C400.115 223.994 400.463 222.83 400.463 221.342C400.463 219.854 400.115 218.714 399.419 217.922C398.735 217.118 397.703 216.716 396.323 216.716H394.973V226.076ZM414.554 227.3V215.492H421.358V216.752H416.048V220.46H420.53V221.738H416.048V226.022H421.538V227.3H414.554Z" fill="white"/>
<rect id="Heading 1_2" x="436.06" y="220.56" width="100" height="2" fill="white"/>
<path id="Heading 2 &#226;&#134;&#146; Louie Jie &#38; Marializa" d="M148.725 326.302C148.699 326.302 148.286 326.237 147.487 326.108C146.713 326.005 145.733 325.696 144.547 325.18C143.387 324.69 142.123 323.942 140.756 322.936C139.415 321.956 138.165 320.59 137.004 318.836C135.844 317.083 134.877 314.891 134.103 312.26C133.329 309.604 132.943 306.394 132.943 302.629C132.943 301.211 133.02 299.521 133.175 297.562C133.329 295.576 133.536 293.461 133.794 291.218C134.077 288.974 134.374 286.654 134.683 284.255C135.019 281.857 135.354 279.523 135.689 277.254C136.05 274.985 136.385 272.832 136.695 270.794C137.03 268.757 137.314 266.978 137.546 265.456C137.236 266.694 136.888 268.048 136.501 269.518C136.14 270.962 135.753 272.496 135.341 274.121C134.928 275.72 134.503 277.37 134.064 279.072C133.652 280.774 133.226 282.476 132.788 284.178C132.35 285.932 131.86 287.762 131.318 289.671C130.777 291.553 130.171 293.423 129.5 295.279C128.83 297.11 128.095 298.864 127.295 300.54C126.496 302.19 125.606 303.647 124.626 304.911C123.646 306.175 122.589 307.18 121.454 307.928C120.32 308.676 119.082 309.05 117.741 309.05C116.993 309.05 116.284 308.908 115.614 308.624C114.943 308.341 114.35 307.864 113.834 307.193C113.344 306.497 112.945 305.581 112.635 304.447C112.351 303.286 112.21 301.829 112.21 300.076C112.21 299.044 112.248 297.794 112.326 296.324C112.429 294.828 112.545 293.204 112.674 291.45C112.829 289.671 112.996 287.788 113.177 285.803C113.383 283.817 113.589 281.818 113.796 279.807C114.002 277.77 114.208 275.758 114.414 273.773C114.621 271.787 114.814 269.892 114.995 268.087C114.324 270.82 113.525 274.224 112.596 278.298C111.668 282.373 110.637 286.937 109.502 291.992C108.548 296.246 107.542 300.024 106.485 303.325C105.453 306.6 104.422 309.475 103.39 311.951C102.385 314.401 101.418 316.464 100.489 318.14C99.5609 319.842 98.7357 321.209 98.0137 322.24C97.3174 323.297 96.7501 324.058 96.3117 324.522C95.8733 325.012 95.6541 325.27 95.6541 325.296L94.3003 324.561C94.3003 324.535 94.5195 324.123 94.9579 323.323C95.4221 322.55 96.0152 321.454 96.7372 320.035C97.4593 318.617 98.2845 316.915 99.2128 314.929C100.141 312.918 101.095 310.7 102.075 308.276C103.055 305.852 104.035 303.235 105.015 300.424C105.995 297.613 106.885 294.673 107.684 291.605C108.844 287.272 109.876 283.263 110.778 279.575C111.707 275.887 112.493 272.703 113.138 270.021C113.783 267.313 114.273 265.199 114.608 263.677C114.969 262.156 115.149 261.382 115.149 261.356L116.658 261.511C116.658 261.562 116.645 262.168 116.619 263.329C116.619 264.489 116.606 265.998 116.581 267.855C116.581 269.711 116.568 271.813 116.542 274.16C116.542 276.48 116.529 278.827 116.503 281.2C116.503 283.572 116.49 285.854 116.465 288.046C116.465 290.212 116.465 292.082 116.465 293.655C116.465 295.46 116.529 297.11 116.658 298.606C116.813 300.076 117.045 301.339 117.354 302.397C117.689 303.428 118.102 304.228 118.592 304.795C119.082 305.362 119.675 305.646 120.371 305.646C120.939 305.646 121.609 305.272 122.383 304.524C123.182 303.751 124.046 302.513 124.974 300.811C125.928 299.083 126.921 296.827 127.953 294.042C129.01 291.257 130.093 287.827 131.202 283.753C131.589 282.36 132.014 280.813 132.478 279.111C132.968 277.409 133.497 275.488 134.064 273.347C134.632 271.181 135.238 268.77 135.882 266.114C136.553 263.458 137.262 260.492 138.01 257.217L139.518 257.449C139.003 263.638 138.513 269.802 138.049 275.939C137.61 282.051 137.391 288.201 137.391 294.39C137.391 299.057 137.649 303.119 138.165 306.574C138.68 310.03 139.441 312.982 140.447 315.432C141.452 317.856 142.69 319.829 144.16 321.35C145.656 322.898 147.384 324.071 149.343 324.87L148.725 326.302ZM179.631 297.562C178.573 300.424 177.606 302.822 176.73 304.756C175.879 306.69 175.041 308.25 174.215 309.437C173.416 310.623 172.617 311.474 171.817 311.99C171.018 312.505 170.141 312.763 169.187 312.763C168.026 312.763 167.034 312.364 166.208 311.564C165.383 310.739 164.867 309.475 164.661 307.773C163.836 309.553 162.766 311.01 161.451 312.144C160.135 313.253 158.485 313.808 156.499 313.808C155.442 313.808 154.424 313.614 153.444 313.227C152.489 312.841 151.638 312.248 150.891 311.448C150.143 310.623 149.537 309.591 149.073 308.354C148.634 307.116 148.415 305.659 148.415 303.983C148.415 302.281 148.621 300.682 149.034 299.186C149.472 297.691 150.04 296.324 150.736 295.086C151.432 293.822 152.232 292.701 153.134 291.721C154.062 290.741 155.017 289.916 155.997 289.245C156.976 288.575 157.956 288.059 158.936 287.698C159.916 287.337 160.819 287.156 161.644 287.156C162.366 287.156 163.062 287.247 163.733 287.427C164.403 287.608 164.996 287.904 165.512 288.317C166.054 288.704 166.479 289.232 166.789 289.903C167.124 290.573 167.291 291.411 167.291 292.417C167.291 293.603 167.059 294.635 166.595 295.512C166.157 296.388 165.615 297.123 164.971 297.716C164.352 298.309 163.707 298.787 163.036 299.148C162.392 299.509 161.876 299.766 161.489 299.921L161.025 298.413C161.102 298.413 161.386 298.309 161.876 298.103C162.392 297.897 162.92 297.562 163.462 297.097C164.029 296.607 164.545 295.989 165.009 295.241C165.473 294.493 165.705 293.577 165.705 292.494C165.705 291.257 165.357 290.315 164.661 289.671C163.965 289 163.075 288.665 161.992 288.665C161.167 288.665 160.2 288.962 159.091 289.555C157.982 290.148 156.912 291.076 155.881 292.34C154.875 293.603 154.011 295.202 153.289 297.136C152.593 299.07 152.244 301.378 152.244 304.06C152.244 306.716 152.709 308.74 153.637 310.133C154.591 311.525 155.868 312.222 157.466 312.222C158.266 312.222 159.027 312.003 159.749 311.564C160.496 311.1 161.18 310.494 161.799 309.746C162.418 308.998 162.972 308.134 163.462 307.155C163.952 306.149 164.377 305.117 164.738 304.06C164.738 303.235 164.829 302.268 165.009 301.159C165.216 300.024 165.525 298.877 165.938 297.716L168.297 298.49C168.168 298.825 168.039 299.264 167.91 299.805C167.781 300.347 167.652 300.94 167.523 301.584C167.42 302.229 167.33 302.9 167.253 303.596C167.175 304.266 167.137 304.924 167.137 305.569C167.137 307.58 167.33 308.973 167.717 309.746C168.13 310.494 168.826 310.868 169.806 310.868C170.373 310.868 170.927 310.662 171.469 310.249C172.036 309.836 172.642 309.114 173.287 308.083C173.932 307.051 174.641 305.659 175.414 303.905C176.188 302.126 177.091 299.882 178.122 297.175L179.631 297.562ZM180.404 295.512C180.146 296.414 179.889 297.188 179.631 297.832C179.373 298.477 179.089 299.083 178.78 299.65C178.47 300.192 178.122 300.721 177.735 301.236C177.374 301.726 176.962 302.268 176.497 302.861L176.188 302.551C176.781 301.03 177.297 299.599 177.735 298.258C178.199 296.917 178.612 295.576 178.973 294.235C178.56 293.642 178.199 292.907 177.89 292.03C177.606 291.128 177.465 290.058 177.465 288.82C177.465 287.711 177.632 286.795 177.967 286.073C178.328 285.326 178.793 284.952 179.36 284.952C179.669 284.952 179.953 285.093 180.211 285.377C180.495 285.661 180.727 286.035 180.907 286.499C181.088 286.963 181.229 287.505 181.333 288.123C181.436 288.717 181.487 289.348 181.487 290.019C181.487 290.328 181.462 290.664 181.41 291.025C181.384 291.386 181.346 291.759 181.294 292.146C181.242 292.507 181.178 292.868 181.101 293.229C181.023 293.565 180.946 293.848 180.868 294.08C181.023 294.209 181.268 294.325 181.603 294.428C181.964 294.506 182.429 294.545 182.996 294.545C183.976 294.545 184.84 294.403 185.588 294.119C186.335 293.835 186.928 293.474 187.367 293.036C187.754 292.417 188.05 291.94 188.257 291.605C188.489 291.27 188.669 291.025 188.798 290.87C188.927 290.689 189.017 290.586 189.069 290.56C189.146 290.509 189.236 290.483 189.34 290.483C189.623 290.483 189.855 290.56 190.036 290.715C190.216 290.87 190.307 291.089 190.307 291.373C190.307 291.45 190.268 291.553 190.191 291.682C190.113 291.811 190.01 291.979 189.881 292.185C188.798 293.758 187.947 295.486 187.328 297.368C186.709 299.251 186.4 301.339 186.4 303.635C186.4 306.291 186.825 308.212 187.676 309.398C188.553 310.584 189.791 311.177 191.39 311.177C192.266 311.177 193.105 310.919 193.904 310.404C194.703 309.862 195.49 309.037 196.264 307.928C197.037 306.794 197.811 305.349 198.584 303.596C199.384 301.817 200.235 299.676 201.137 297.175L202.646 297.562C201.537 300.837 200.493 303.531 199.513 305.646C198.533 307.735 197.566 309.398 196.612 310.636C195.658 311.848 194.678 312.699 193.672 313.189C192.666 313.653 191.57 313.885 190.384 313.885C189.636 313.885 188.863 313.717 188.063 313.382C187.264 313.047 186.529 312.518 185.858 311.796C185.214 311.074 184.685 310.146 184.272 309.011C183.86 307.851 183.653 306.458 183.653 304.834C183.653 304.034 183.718 303.209 183.847 302.358C184.002 301.481 184.195 300.643 184.427 299.844C184.659 299.019 184.917 298.232 185.201 297.484C185.484 296.711 185.781 296.014 186.09 295.395C185.162 295.834 184.156 296.053 183.073 296.053C182.016 296.053 181.126 295.873 180.404 295.512ZM210.421 295.976C210.421 294.428 210.782 293.088 211.504 291.953C212.252 290.818 213.206 289.722 214.366 288.665C214.005 288.433 213.618 288.265 213.206 288.162C212.793 288.033 212.393 287.969 212.007 287.969C211.156 287.969 210.24 288.188 209.26 288.626C208.306 289.039 207.417 289.748 206.591 290.754C205.792 291.759 205.121 293.113 204.58 294.815C204.038 296.491 203.768 298.593 203.768 301.12C203.768 303.209 204.013 305.001 204.503 306.497C205.018 307.993 205.715 309.23 206.591 310.21C207.468 311.164 208.487 311.874 209.647 312.338C210.808 312.776 212.045 312.995 213.361 312.995C214.934 312.995 216.339 312.596 217.577 311.796C218.815 310.971 219.949 309.849 220.981 308.431C222.012 306.987 222.966 305.311 223.843 303.402C224.746 301.468 225.635 299.393 226.512 297.175L227.982 297.562C227.466 298.825 226.925 300.127 226.357 301.468C225.816 302.809 225.21 304.137 224.539 305.453C223.895 306.742 223.173 307.967 222.373 309.127C221.6 310.288 220.697 311.306 219.666 312.183C218.66 313.06 217.525 313.756 216.262 314.272C214.998 314.788 213.58 315.045 212.007 315.045C210.408 315.045 208.886 314.788 207.442 314.272C206.024 313.73 204.773 312.931 203.69 311.874C202.607 310.791 201.743 309.437 201.099 307.812C200.454 306.188 200.132 304.279 200.132 302.087C200.132 299.87 200.493 297.807 201.215 295.898C201.963 293.99 202.904 292.34 204.038 290.947C205.173 289.555 206.424 288.459 207.79 287.659C209.157 286.86 210.459 286.46 211.697 286.46C213.141 286.46 214.431 286.834 215.565 287.582C215.772 287.427 215.965 287.272 216.146 287.118C216.352 286.937 216.558 286.744 216.764 286.538L217.615 287.737C217.461 287.891 217.306 288.033 217.151 288.162C216.997 288.291 216.842 288.433 216.687 288.588C217.151 289.155 217.525 289.825 217.809 290.599C218.118 291.373 218.273 292.237 218.273 293.191C218.273 294.248 218.144 295.189 217.886 296.014C217.654 296.814 217.319 297.497 216.88 298.064C216.468 298.632 215.991 299.057 215.449 299.341C214.908 299.625 214.34 299.766 213.747 299.766C213.438 299.766 213.09 299.702 212.703 299.573C212.316 299.418 211.955 299.199 211.62 298.915C211.285 298.606 211.001 298.219 210.769 297.755C210.537 297.265 210.421 296.672 210.421 295.976ZM216.687 293.191C216.687 292.443 216.571 291.772 216.339 291.179C216.133 290.586 215.849 290.07 215.488 289.632C214.534 290.457 213.709 291.386 213.012 292.417C212.342 293.423 212.007 294.609 212.007 295.976C212.007 296.698 212.187 297.265 212.548 297.678C212.909 298.064 213.335 298.258 213.825 298.258C214.392 298.258 214.856 298.077 215.217 297.716C215.604 297.355 215.901 296.917 216.107 296.401C216.313 295.86 216.455 295.305 216.532 294.738C216.636 294.145 216.687 293.629 216.687 293.191ZM241.327 307.155C240.527 308.599 239.754 309.798 239.006 310.752C238.258 311.706 237.51 312.467 236.763 313.034C236.04 313.601 235.306 314.001 234.558 314.233C233.81 314.465 233.036 314.581 232.237 314.581C231.592 314.581 230.857 314.478 230.032 314.272C229.207 314.066 228.42 313.64 227.673 312.995C226.95 312.325 226.332 311.371 225.816 310.133C225.326 308.895 225.081 307.232 225.081 305.143C225.081 303.054 225.326 301.094 225.816 299.264C226.306 297.407 226.847 295.782 227.44 294.39C228.137 292.791 228.936 291.308 229.839 289.941L231.27 290.406C231.244 290.431 231.154 290.664 230.999 291.102C230.87 291.54 230.69 292.133 230.458 292.881C230.251 293.629 230.019 294.493 229.761 295.473C229.529 296.453 229.297 297.497 229.065 298.606C228.859 299.689 228.678 300.798 228.523 301.933C228.395 303.067 228.33 304.163 228.33 305.22C228.33 307.644 228.756 309.566 229.607 310.984C230.483 312.376 231.618 313.073 233.01 313.073C234.558 313.073 236.053 312.183 237.497 310.404C238.942 308.599 240.321 306.084 241.636 302.861C241.868 301.365 242.178 299.973 242.565 298.683C242.977 297.394 243.377 296.246 243.764 295.241C244.176 294.235 244.55 293.397 244.886 292.727C245.221 292.056 245.466 291.605 245.62 291.373L246.974 291.682C246.562 293.616 246.201 295.357 245.891 296.904C245.608 298.426 245.376 299.805 245.195 301.043C245.014 302.281 244.873 303.39 244.77 304.369C244.692 305.324 244.653 306.188 244.653 306.961C244.653 308.508 244.898 309.746 245.388 310.674C245.878 311.603 246.639 312.067 247.671 312.067C248.367 312.067 249.037 311.809 249.682 311.293C250.327 310.778 250.997 309.927 251.693 308.74C252.39 307.554 253.125 306.02 253.898 304.137C254.672 302.255 255.549 299.934 256.529 297.175L258.037 297.562C257.599 298.645 257.16 299.805 256.722 301.043C256.284 302.281 255.807 303.519 255.291 304.756C254.801 305.994 254.272 307.18 253.705 308.315C253.163 309.45 252.544 310.455 251.848 311.332C251.178 312.209 250.443 312.905 249.643 313.421C248.844 313.937 247.954 314.194 246.974 314.194C246.046 314.194 245.234 314.014 244.537 313.653C243.841 313.292 243.248 312.802 242.758 312.183C242.294 311.564 241.933 310.829 241.675 309.978C241.443 309.101 241.327 308.16 241.327 307.155ZM259.314 294.235C259.03 294.983 258.746 295.718 258.463 296.44C258.205 297.162 257.908 297.884 257.573 298.606C257.263 299.328 256.89 300.037 256.451 300.733C256.013 301.43 255.484 302.139 254.865 302.861L254.556 302.551C255.226 300.927 255.819 299.264 256.335 297.562C256.851 295.86 257.367 293.951 257.882 291.837C257.753 291.476 257.637 291.166 257.534 290.908C257.431 290.651 257.341 290.419 257.263 290.212C257.186 289.98 257.122 289.748 257.07 289.516C257.019 289.258 256.993 288.974 256.993 288.665C256.993 288.252 257.044 287.801 257.147 287.311C257.276 286.795 257.444 286.318 257.65 285.88C257.882 285.442 258.14 285.081 258.424 284.797C258.708 284.487 259.004 284.333 259.314 284.333C259.675 284.333 259.958 284.423 260.165 284.603C260.397 284.758 260.577 284.965 260.706 285.222C260.835 285.48 260.925 285.751 260.977 286.035C261.028 286.318 261.054 286.589 261.054 286.847C261.054 287.234 261.003 287.685 260.9 288.201C260.822 288.691 260.719 289.181 260.59 289.671C260.487 290.135 260.384 290.547 260.281 290.908C260.203 291.27 260.165 291.502 260.165 291.605C260.371 292.301 260.719 293.01 261.209 293.732C261.725 294.454 262.305 295.189 262.95 295.937C263.594 296.685 264.265 297.471 264.961 298.297C265.683 299.096 266.328 299.947 266.895 300.85C267.488 301.752 267.965 302.719 268.326 303.751C268.713 304.756 268.906 305.826 268.906 306.961C268.906 308.586 268.661 309.901 268.172 310.907C267.707 311.912 267.076 312.686 266.276 313.227C267.437 312.763 268.52 311.938 269.525 310.752C270.557 309.566 271.498 308.212 272.349 306.69C273.226 305.143 274.025 303.531 274.747 301.855C275.495 300.179 276.153 298.619 276.72 297.175L278.229 297.562C277.352 299.805 276.423 301.997 275.444 304.137C274.464 306.278 273.355 308.186 272.117 309.862C270.879 311.538 269.474 312.892 267.901 313.924C266.354 314.955 264.574 315.471 262.563 315.471C262.021 315.471 261.467 315.432 260.9 315.355C260.358 315.252 259.816 315.11 259.275 314.929C258.759 314.723 258.269 314.452 257.805 314.117C257.341 313.782 256.941 313.382 256.606 312.918L257.882 312.067C258.114 312.428 258.475 312.763 258.965 313.073C259.455 313.382 260.1 313.537 260.9 313.537C261.673 313.537 262.344 313.382 262.911 313.073C263.504 312.737 263.994 312.299 264.381 311.758C264.793 311.19 265.09 310.533 265.27 309.785C265.477 309.037 265.58 308.238 265.58 307.387C265.58 305.633 265.322 304.125 264.806 302.861C264.316 301.597 263.723 300.476 263.027 299.496C262.356 298.49 261.66 297.575 260.938 296.749C260.242 295.924 259.7 295.086 259.314 294.235ZM302.675 315.548C301.36 315.548 300.096 315.316 298.884 314.852C297.672 314.388 296.602 313.692 295.674 312.763C294.771 311.809 294.049 310.623 293.508 309.205C292.966 307.786 292.695 306.123 292.695 304.215C292.695 301.894 293.031 299.831 293.701 298.026C294.372 296.195 295.222 294.661 296.254 293.423C297.311 292.159 298.485 291.205 299.774 290.56C301.063 289.89 302.327 289.555 303.565 289.555C305.164 289.555 306.427 290.083 307.355 291.141C308.31 292.198 308.787 293.565 308.787 295.241C308.787 296.685 308.516 298 307.974 299.186C307.433 300.347 306.711 301.352 305.808 302.203C304.931 303.029 303.913 303.673 302.752 304.137C301.618 304.602 300.432 304.834 299.194 304.834C298.601 304.834 298.033 304.808 297.492 304.756C296.976 304.679 296.512 304.602 296.099 304.524C296.254 306.123 296.563 307.503 297.028 308.663C297.492 309.824 298.072 310.778 298.768 311.525C299.465 312.273 300.238 312.828 301.089 313.189C301.966 313.55 302.868 313.73 303.797 313.73C304.957 313.73 306.027 313.447 307.007 312.879C307.987 312.312 308.89 311.577 309.715 310.674C310.54 309.746 311.288 308.689 311.958 307.503C312.655 306.316 313.274 305.117 313.815 303.905C314.357 302.668 314.834 301.468 315.246 300.308C315.685 299.122 316.072 298.077 316.407 297.175L317.915 297.562C317.58 298.413 317.18 299.444 316.716 300.656C316.278 301.868 315.762 303.145 315.169 304.486C314.576 305.801 313.88 307.129 313.08 308.47C312.281 309.785 311.378 310.971 310.373 312.028C309.367 313.06 308.219 313.911 306.93 314.581C305.666 315.226 304.248 315.548 302.675 315.548ZM303.642 291.063C302.688 291.063 301.747 291.373 300.818 291.992C299.916 292.585 299.103 293.41 298.381 294.467C297.659 295.524 297.066 296.775 296.602 298.219C296.164 299.663 295.945 301.211 295.945 302.861C296.28 302.99 296.744 303.106 297.337 303.209C297.956 303.286 298.704 303.325 299.581 303.325C300.509 303.325 301.424 303.132 302.327 302.745C303.255 302.332 304.08 301.778 304.802 301.082C305.55 300.36 306.143 299.509 306.582 298.529C307.046 297.549 307.278 296.479 307.278 295.318C307.278 294.751 307.201 294.209 307.046 293.694C306.891 293.178 306.659 292.727 306.35 292.34C306.04 291.953 305.653 291.643 305.189 291.411C304.751 291.179 304.235 291.063 303.642 291.063ZM341.665 275.939C341.665 277.383 341.962 278.685 342.555 279.846C343.148 280.98 343.948 282.025 344.953 282.979C345.959 283.907 347.132 284.771 348.473 285.571C349.84 286.344 351.284 287.105 352.806 287.853C354.327 288.575 355.887 289.297 357.486 290.019C359.111 290.715 360.684 291.463 362.205 292.262C363.727 293.036 365.158 293.887 366.499 294.815C367.865 295.718 369.052 296.736 370.057 297.871C371.063 298.98 371.862 300.231 372.456 301.623C373.049 302.99 373.345 304.537 373.345 306.265C373.345 309.411 372.752 312.144 371.566 314.465C370.38 316.76 368.794 318.656 366.808 320.151C364.823 321.673 362.515 322.795 359.884 323.517C357.254 324.264 354.508 324.638 351.645 324.638C349.118 324.638 346.733 324.303 344.489 323.633C342.246 322.988 340.273 322.073 338.571 320.886C336.869 319.726 335.515 318.32 334.509 316.67C333.53 315.045 333.04 313.266 333.04 311.332C333.04 309.63 333.297 308.186 333.813 307C334.355 305.788 334.935 304.795 335.554 304.021C336.199 303.248 336.805 302.68 337.372 302.319C337.939 301.958 338.262 301.765 338.339 301.739L339.19 303.557C339.138 303.583 338.893 303.751 338.455 304.06C338.017 304.344 337.54 304.795 337.024 305.414C336.534 306.033 336.07 306.832 335.631 307.812C335.219 308.766 335.012 309.94 335.012 311.332C335.012 312.725 335.27 313.975 335.786 315.084C336.327 316.167 337.037 317.121 337.913 317.947C338.816 318.772 339.835 319.481 340.969 320.074C342.13 320.667 343.329 321.144 344.567 321.505C345.804 321.892 347.042 322.163 348.28 322.317C349.518 322.498 350.665 322.588 351.723 322.588C354.456 322.588 356.932 322.24 359.149 321.544C361.367 320.873 363.249 319.932 364.797 318.72C366.37 317.534 367.582 316.154 368.433 314.581C369.284 312.982 369.709 311.268 369.709 309.437C369.709 307.374 369.271 305.594 368.394 304.099C367.517 302.603 366.357 301.288 364.913 300.153C363.469 298.993 361.818 297.961 359.962 297.059C358.131 296.13 356.248 295.228 354.314 294.351C352.406 293.474 350.523 292.559 348.667 291.605C346.836 290.625 345.198 289.503 343.754 288.24C342.31 286.976 341.15 285.519 340.273 283.869C339.396 282.192 338.958 280.207 338.958 277.912C338.958 275.359 339.383 273.025 340.234 270.91C341.111 268.796 342.297 266.978 343.793 265.456C345.314 263.909 347.094 262.723 349.131 261.898C351.168 261.047 353.373 260.621 355.745 260.621C358.144 260.621 360.245 260.905 362.05 261.472C363.855 262.014 365.364 262.787 366.576 263.793C367.814 264.773 368.729 265.959 369.322 267.352C369.941 268.744 370.251 270.279 370.251 271.955C370.251 273.322 370.083 274.662 369.748 275.978C369.438 277.267 369.09 278.427 368.704 279.459C368.317 280.49 367.956 281.328 367.62 281.973C367.285 282.618 367.105 282.979 367.079 283.056L365.338 282.089C365.338 282.063 365.48 281.754 365.764 281.161C366.073 280.568 366.408 279.794 366.769 278.84C367.13 277.886 367.453 276.816 367.736 275.629C368.046 274.417 368.201 273.193 368.201 271.955C368.201 270.562 367.943 269.299 367.427 268.164C366.937 267.004 366.176 266.024 365.145 265.224C364.113 264.425 362.811 263.806 361.238 263.368C359.665 262.929 357.808 262.71 355.668 262.71C353.682 262.71 351.839 263.045 350.137 263.716C348.435 264.36 346.952 265.276 345.688 266.462C344.451 267.648 343.471 269.054 342.749 270.678C342.027 272.277 341.665 274.031 341.665 275.939ZM410.324 297.562C409.267 300.424 408.3 302.822 407.423 304.756C406.572 306.69 405.734 308.25 404.909 309.437C404.11 310.623 403.31 311.474 402.511 311.99C401.711 312.505 400.835 312.763 399.88 312.763C398.72 312.763 397.727 312.364 396.902 311.564C396.077 310.739 395.561 309.475 395.355 307.773C394.53 309.553 393.459 311.01 392.144 312.144C390.829 313.253 389.179 313.808 387.193 313.808C386.136 313.808 385.117 313.614 384.137 313.227C383.183 312.841 382.332 312.248 381.584 311.448C380.837 310.623 380.23 309.591 379.766 308.354C379.328 307.116 379.109 305.659 379.109 303.983C379.109 302.281 379.315 300.682 379.728 299.186C380.166 297.691 380.733 296.324 381.43 295.086C382.126 293.822 382.925 292.701 383.828 291.721C384.756 290.741 385.71 289.916 386.69 289.245C387.67 288.575 388.65 288.059 389.63 287.698C390.61 287.337 391.512 287.156 392.338 287.156C393.06 287.156 393.756 287.247 394.426 287.427C395.097 287.608 395.69 287.904 396.206 288.317C396.747 288.704 397.173 289.232 397.482 289.903C397.817 290.573 397.985 291.411 397.985 292.417C397.985 293.603 397.753 294.635 397.289 295.512C396.85 296.388 396.309 297.123 395.664 297.716C395.045 298.309 394.401 298.787 393.73 299.148C393.085 299.509 392.57 299.766 392.183 299.921L391.719 298.413C391.796 298.413 392.08 298.309 392.57 298.103C393.085 297.897 393.614 297.562 394.156 297.097C394.723 296.607 395.239 295.989 395.703 295.241C396.167 294.493 396.399 293.577 396.399 292.494C396.399 291.257 396.051 290.315 395.355 289.671C394.659 289 393.769 288.665 392.686 288.665C391.861 288.665 390.894 288.962 389.785 289.555C388.676 290.148 387.606 291.076 386.574 292.34C385.568 293.603 384.705 295.202 383.983 297.136C383.286 299.07 382.938 301.378 382.938 304.06C382.938 306.716 383.402 308.74 384.331 310.133C385.285 311.525 386.561 312.222 388.16 312.222C388.96 312.222 389.72 312.003 390.442 311.564C391.19 311.1 391.873 310.494 392.492 309.746C393.111 308.998 393.666 308.134 394.156 307.155C394.646 306.149 395.071 305.117 395.432 304.06C395.432 303.235 395.522 302.268 395.703 301.159C395.909 300.024 396.219 298.877 396.631 297.716L398.991 298.49C398.862 298.825 398.733 299.264 398.604 299.805C398.475 300.347 398.346 300.94 398.217 301.584C398.114 302.229 398.024 302.9 397.946 303.596C397.869 304.266 397.83 304.924 397.83 305.569C397.83 307.58 398.024 308.973 398.411 309.746C398.823 310.494 399.519 310.868 400.499 310.868C401.067 310.868 401.621 310.662 402.163 310.249C402.73 309.836 403.336 309.114 403.981 308.083C404.625 307.051 405.334 305.659 406.108 303.905C406.882 302.126 407.784 299.882 408.816 297.175L410.324 297.562ZM411.098 295.512C410.84 296.414 410.582 297.188 410.324 297.832C410.066 298.477 409.783 299.083 409.473 299.65C409.164 300.192 408.816 300.721 408.429 301.236C408.068 301.726 407.655 302.268 407.191 302.861L406.882 302.551C407.475 301.03 407.991 299.599 408.429 298.258C408.893 296.917 409.306 295.576 409.667 294.235C409.254 293.642 408.893 292.907 408.584 292.03C408.3 291.128 408.158 290.058 408.158 288.82C408.158 287.711 408.326 286.795 408.661 286.073C409.022 285.326 409.486 284.952 410.054 284.952C410.363 284.952 410.647 285.093 410.905 285.377C411.188 285.661 411.42 286.035 411.601 286.499C411.781 286.963 411.923 287.505 412.026 288.123C412.129 288.717 412.181 289.348 412.181 290.019C412.181 290.328 412.155 290.664 412.104 291.025C412.078 291.386 412.039 291.759 411.988 292.146C411.936 292.507 411.872 292.868 411.794 293.229C411.717 293.565 411.639 293.848 411.562 294.08C411.717 294.209 411.962 294.325 412.297 294.428C412.658 294.506 413.122 294.545 413.69 294.545C414.67 294.545 415.533 294.403 416.281 294.119C417.029 293.835 417.622 293.474 418.061 293.036C418.447 292.417 418.744 291.94 418.95 291.605C419.182 291.27 419.363 291.025 419.492 290.87C419.621 290.689 419.711 290.586 419.763 290.56C419.84 290.509 419.93 290.483 420.033 290.483C420.317 290.483 420.549 290.56 420.73 290.715C420.91 290.87 421 291.089 421 291.373C421 291.45 420.962 291.553 420.884 291.682C420.807 291.811 420.704 291.979 420.575 292.185C419.492 293.758 418.641 295.486 418.022 297.368C417.403 299.251 417.094 301.339 417.094 303.635C417.094 306.291 417.519 308.212 418.37 309.398C419.247 310.584 420.485 311.177 422.083 311.177C422.96 311.177 423.798 310.919 424.598 310.404C425.397 309.862 426.184 309.037 426.957 307.928C427.731 306.794 428.504 305.349 429.278 303.596C430.077 301.817 430.928 299.676 431.831 297.175L433.34 297.562C432.231 300.837 431.186 303.531 430.206 305.646C429.226 307.735 428.259 309.398 427.305 310.636C426.351 311.848 425.371 312.699 424.366 313.189C423.36 313.653 422.264 313.885 421.078 313.885C420.33 313.885 419.556 313.717 418.757 313.382C417.957 313.047 417.222 312.518 416.552 311.796C415.907 311.074 415.379 310.146 414.966 309.011C414.553 307.851 414.347 306.458 414.347 304.834C414.347 304.034 414.412 303.209 414.541 302.358C414.695 301.481 414.889 300.643 415.121 299.844C415.353 299.019 415.611 298.232 415.894 297.484C416.178 296.711 416.475 296.014 416.784 295.395C415.856 295.834 414.85 296.053 413.767 296.053C412.71 296.053 411.82 295.873 411.098 295.512ZM461.615 297.562C460.558 300.424 459.591 302.822 458.714 304.756C457.863 306.69 457.025 308.25 456.2 309.437C455.401 310.623 454.601 311.474 453.802 311.99C453.002 312.505 452.126 312.763 451.171 312.763C450.011 312.763 449.018 312.364 448.193 311.564C447.368 310.739 446.852 309.475 446.646 307.773C445.821 309.553 444.75 311.01 443.435 312.144C442.12 313.253 440.47 313.808 438.484 313.808C437.427 313.808 436.408 313.614 435.428 313.227C434.474 312.841 433.623 312.248 432.875 311.448C432.128 310.623 431.522 309.591 431.057 308.354C430.619 307.116 430.4 305.659 430.4 303.983C430.4 302.281 430.606 300.682 431.019 299.186C431.457 297.691 432.024 296.324 432.721 295.086C433.417 293.822 434.216 292.701 435.119 291.721C436.047 290.741 437.001 289.916 437.981 289.245C438.961 288.575 439.941 288.059 440.921 287.698C441.901 287.337 442.803 287.156 443.629 287.156C444.351 287.156 445.047 287.247 445.717 287.427C446.388 287.608 446.981 287.904 447.497 288.317C448.038 288.704 448.464 289.232 448.773 289.903C449.108 290.573 449.276 291.411 449.276 292.417C449.276 293.603 449.044 294.635 448.58 295.512C448.141 296.388 447.6 297.123 446.955 297.716C446.336 298.309 445.692 298.787 445.021 299.148C444.377 299.509 443.861 299.766 443.474 299.921L443.01 298.413C443.087 298.413 443.371 298.309 443.861 298.103C444.377 297.897 444.905 297.562 445.447 297.097C446.014 296.607 446.53 295.989 446.994 295.241C447.458 294.493 447.69 293.577 447.69 292.494C447.69 291.257 447.342 290.315 446.646 289.671C445.95 289 445.06 288.665 443.977 288.665C443.152 288.665 442.185 288.962 441.076 289.555C439.967 290.148 438.897 291.076 437.865 292.34C436.859 293.603 435.996 295.202 435.274 297.136C434.577 299.07 434.229 301.378 434.229 304.06C434.229 306.716 434.693 308.74 435.622 310.133C436.576 311.525 437.852 312.222 439.451 312.222C440.251 312.222 441.011 312.003 441.733 311.564C442.481 311.1 443.165 310.494 443.783 309.746C444.402 308.998 444.957 308.134 445.447 307.155C445.937 306.149 446.362 305.117 446.723 304.06C446.723 303.235 446.813 302.268 446.994 301.159C447.2 300.024 447.51 298.877 447.922 297.716L450.282 298.49C450.153 298.825 450.024 299.264 449.895 299.805C449.766 300.347 449.637 300.94 449.508 301.584C449.405 302.229 449.315 302.9 449.237 303.596C449.16 304.266 449.121 304.924 449.121 305.569C449.121 307.58 449.315 308.973 449.702 309.746C450.114 310.494 450.81 310.868 451.79 310.868C452.358 310.868 452.912 310.662 453.454 310.249C454.021 309.836 454.627 309.114 455.272 308.083C455.916 307.051 456.626 305.659 457.399 303.905C458.173 302.126 459.075 299.882 460.107 297.175L461.615 297.562ZM472.988 272.458C472.988 274.082 472.704 275.9 472.137 277.912C471.595 279.923 470.847 282.115 469.893 284.487C468.939 286.86 467.817 289.413 466.528 292.146C465.264 294.854 463.91 297.716 462.466 300.733C462.337 301.971 462.221 303.222 462.118 304.486C462.041 305.723 461.963 306.974 461.886 308.238C462.221 307.387 462.634 306.407 463.124 305.298C463.64 304.163 464.207 303.003 464.826 301.817C465.471 300.605 466.167 299.418 466.915 298.258C467.662 297.097 468.449 296.066 469.274 295.163C470.125 294.235 471.015 293.487 471.943 292.92C472.897 292.353 473.877 292.069 474.883 292.069C475.579 292.069 476.211 292.198 476.778 292.456C477.346 292.714 477.823 293.075 478.21 293.539C478.622 294.003 478.932 294.545 479.138 295.163C479.37 295.782 479.486 296.453 479.486 297.175C479.486 298.103 479.357 299.109 479.099 300.192C478.867 301.249 478.596 302.332 478.287 303.441C477.977 304.55 477.694 305.659 477.436 306.768C477.204 307.877 477.088 308.921 477.088 309.901C477.088 310.7 477.281 311.384 477.668 311.951C478.055 312.493 478.764 312.763 479.795 312.763C480.517 312.763 481.227 312.467 481.923 311.874C482.619 311.281 483.29 310.52 483.934 309.591C484.579 308.637 485.172 307.58 485.714 306.42C486.281 305.233 486.797 304.06 487.261 302.9C487.751 301.739 488.176 300.656 488.537 299.65C488.924 298.619 489.234 297.794 489.466 297.175L490.974 297.562C490.536 298.722 490.085 299.947 489.62 301.236C489.156 302.526 488.653 303.815 488.112 305.104C487.596 306.368 487.029 307.58 486.41 308.74C485.791 309.901 485.108 310.932 484.36 311.835C483.638 312.712 482.838 313.421 481.962 313.962C481.085 314.478 480.105 314.736 479.022 314.736C478.042 314.736 477.23 314.594 476.585 314.311C475.94 314.027 475.424 313.64 475.038 313.15C474.677 312.66 474.419 312.08 474.264 311.409C474.109 310.713 474.032 309.952 474.032 309.127C474.032 308.25 474.161 307.258 474.419 306.149C474.677 305.014 474.96 303.854 475.27 302.668C475.605 301.456 475.902 300.256 476.159 299.07C476.417 297.858 476.546 296.749 476.546 295.744C476.546 295.176 476.404 294.673 476.121 294.235C475.863 293.797 475.399 293.577 474.728 293.577C473.671 293.577 472.652 293.964 471.672 294.738C470.693 295.486 469.764 296.466 468.887 297.678C468.011 298.89 467.185 300.256 466.412 301.778C465.638 303.299 464.929 304.821 464.284 306.342C463.64 307.838 463.059 309.269 462.544 310.636C462.054 312.003 461.628 313.137 461.267 314.04L459.759 313.808C459.759 313.679 459.746 313.511 459.72 313.305C459.72 313.073 459.72 312.763 459.72 312.376C459.72 311.99 459.707 311.513 459.681 310.945C459.681 310.352 459.681 309.643 459.681 308.818C459.681 306.394 459.746 303.196 459.875 299.225C460.004 295.254 460.313 290.496 460.803 284.952C461.009 282.244 461.319 279.936 461.731 278.028C462.144 276.094 462.608 274.482 463.124 273.193C463.64 271.877 464.181 270.833 464.749 270.059C465.342 269.286 465.909 268.706 466.45 268.319C466.992 267.906 467.495 267.648 467.959 267.545C468.423 267.416 468.81 267.352 469.119 267.352C470.306 267.352 471.247 267.816 471.943 268.744C472.639 269.673 472.988 270.91 472.988 272.458ZM469.197 268.938C468.526 268.938 467.92 269.273 467.379 269.943C466.863 270.588 466.386 271.516 465.948 272.728C465.535 273.915 465.174 275.346 464.865 277.022C464.555 278.698 464.271 280.568 464.014 282.631C463.756 284.668 463.524 286.873 463.317 289.245C463.137 291.592 462.956 294.042 462.776 296.595C463.988 294.274 465.11 291.979 466.141 289.709C467.198 287.414 468.114 285.222 468.887 283.134C469.661 281.045 470.267 279.098 470.705 277.293C471.17 275.462 471.402 273.85 471.402 272.458C471.402 272.045 471.363 271.632 471.286 271.22C471.234 270.781 471.118 270.395 470.937 270.059C470.783 269.724 470.564 269.453 470.28 269.247C469.996 269.041 469.635 268.938 469.197 268.938Z" fill="white"/>
<path id="07.09.2024" d="M205.378 384.33C204.098 384.33 203.091 383.757 202.358 382.61C201.638 381.45 201.278 379.803 201.278 377.67C201.278 375.523 201.638 373.89 202.358 372.77C203.091 371.65 204.098 371.09 205.378 371.09C206.644 371.09 207.638 371.65 208.358 372.77C209.091 373.89 209.458 375.523 209.458 377.67C209.458 379.803 209.091 381.45 208.358 382.61C207.638 383.757 206.644 384.33 205.378 384.33ZM205.378 383.01C206.124 383.01 206.724 382.59 207.178 381.75C207.631 380.897 207.858 379.537 207.858 377.67C207.858 375.803 207.631 374.463 207.178 373.65C206.724 372.823 206.124 372.41 205.378 372.41C204.631 372.41 204.024 372.823 203.558 373.65C203.104 374.463 202.878 375.803 202.878 377.67C202.878 379.537 203.104 380.897 203.558 381.75C204.024 382.59 204.631 383.01 205.378 383.01ZM223.879 384.09C223.959 382.49 224.126 381.057 224.379 379.79C224.646 378.51 225.032 377.31 225.539 376.19C226.059 375.057 226.739 373.91 227.579 372.75H221.219V371.33H229.439V372.35C228.679 373.31 228.059 374.237 227.579 375.13C227.099 376.01 226.726 376.903 226.459 377.81C226.192 378.703 225.992 379.663 225.859 380.69C225.726 381.717 225.632 382.85 225.579 384.09H223.879ZM242.78 384.33C242.447 384.33 242.16 384.217 241.92 383.99C241.694 383.75 241.58 383.45 241.58 383.09C241.58 382.703 241.694 382.397 241.92 382.17C242.16 381.93 242.447 381.81 242.78 381.81C243.1 381.81 243.374 381.93 243.6 382.17C243.84 382.397 243.96 382.703 243.96 383.09C243.96 383.45 243.84 383.75 243.6 383.99C243.374 384.217 243.1 384.33 242.78 384.33ZM260.241 384.33C258.961 384.33 257.954 383.757 257.221 382.61C256.501 381.45 256.141 379.803 256.141 377.67C256.141 375.523 256.501 373.89 257.221 372.77C257.954 371.65 258.961 371.09 260.241 371.09C261.507 371.09 262.501 371.65 263.221 372.77C263.954 373.89 264.321 375.523 264.321 377.67C264.321 379.803 263.954 381.45 263.221 382.61C262.501 383.757 261.507 384.33 260.241 384.33ZM260.241 383.01C260.987 383.01 261.587 382.59 262.041 381.75C262.494 380.897 262.721 379.537 262.721 377.67C262.721 375.803 262.494 374.463 262.041 373.65C261.587 372.823 260.987 372.41 260.241 372.41C259.494 372.41 258.887 372.823 258.421 373.65C257.967 374.463 257.741 375.803 257.741 377.67C257.741 379.537 257.967 380.897 258.421 381.75C258.887 382.59 259.494 383.01 260.241 383.01ZM277.542 375.19C277.542 376.017 277.736 376.677 278.122 377.17C278.522 377.65 279.116 377.89 279.902 377.89C280.329 377.89 280.776 377.757 281.242 377.49C281.722 377.223 282.169 376.79 282.582 376.19C282.476 374.95 282.182 374.01 281.702 373.37C281.222 372.717 280.576 372.39 279.762 372.39C279.149 372.39 278.622 372.65 278.182 373.17C277.756 373.677 277.542 374.35 277.542 375.19ZM279.302 384.33C278.622 384.33 278.022 384.203 277.502 383.95C276.996 383.683 276.569 383.363 276.222 382.99L277.142 381.95C277.409 382.257 277.722 382.503 278.082 382.69C278.456 382.877 278.842 382.97 279.242 382.97C279.842 382.97 280.396 382.797 280.902 382.45C281.409 382.103 281.816 381.53 282.122 380.73C282.442 379.93 282.609 378.85 282.622 377.49C282.222 377.997 281.756 378.397 281.222 378.69C280.689 378.983 280.156 379.13 279.622 379.13C278.529 379.13 277.649 378.803 276.982 378.15C276.329 377.483 276.002 376.497 276.002 375.19C276.002 374.377 276.176 373.663 276.522 373.05C276.869 372.437 277.322 371.957 277.882 371.61C278.456 371.263 279.082 371.09 279.762 371.09C280.602 371.09 281.356 371.317 282.022 371.77C282.689 372.223 283.209 372.903 283.582 373.81C283.969 374.717 284.162 375.857 284.162 377.23C284.162 378.937 283.929 380.31 283.462 381.35C283.009 382.39 282.416 383.15 281.682 383.63C280.949 384.097 280.156 384.33 279.302 384.33ZM297.644 384.33C297.31 384.33 297.024 384.217 296.784 383.99C296.557 383.75 296.444 383.45 296.444 383.09C296.444 382.703 296.557 382.397 296.784 382.17C297.024 381.93 297.31 381.81 297.644 381.81C297.964 381.81 298.237 381.93 298.464 382.17C298.704 382.397 298.824 382.703 298.824 383.09C298.824 383.45 298.704 383.75 298.464 383.99C298.237 384.217 297.964 384.33 297.644 384.33ZM310.924 384.09V383.11C312.204 381.83 313.291 380.71 314.184 379.75C315.077 378.777 315.757 377.903 316.224 377.13C316.691 376.343 316.924 375.61 316.924 374.93C316.924 374.197 316.724 373.597 316.324 373.13C315.924 372.663 315.317 372.43 314.504 372.43C313.971 372.43 313.477 372.583 313.024 372.89C312.571 373.183 312.157 373.543 311.784 373.97L310.844 373.03C311.377 372.443 311.944 371.977 312.544 371.63C313.157 371.27 313.877 371.09 314.704 371.09C315.891 371.09 316.824 371.437 317.504 372.13C318.184 372.81 318.524 373.717 318.524 374.85C318.524 375.65 318.297 376.463 317.844 377.29C317.404 378.103 316.791 378.963 316.004 379.87C315.231 380.763 314.337 381.737 313.324 382.79C313.671 382.763 314.031 382.737 314.404 382.71C314.777 382.683 315.131 382.67 315.464 382.67H319.164V384.09H310.924ZM335.045 384.33C333.765 384.33 332.759 383.757 332.025 382.61C331.305 381.45 330.945 379.803 330.945 377.67C330.945 375.523 331.305 373.89 332.025 372.77C332.759 371.65 333.765 371.09 335.045 371.09C336.312 371.09 337.305 371.65 338.025 372.77C338.759 373.89 339.125 375.523 339.125 377.67C339.125 379.803 338.759 381.45 338.025 382.61C337.305 383.757 336.312 384.33 335.045 384.33ZM335.045 383.01C335.792 383.01 336.392 382.59 336.845 381.75C337.299 380.897 337.525 379.537 337.525 377.67C337.525 375.803 337.299 374.463 336.845 373.65C336.392 372.823 335.792 372.41 335.045 372.41C334.299 372.41 333.692 372.823 333.225 373.65C332.772 374.463 332.545 375.803 332.545 377.67C332.545 379.537 332.772 380.897 333.225 381.75C333.692 382.59 334.299 383.01 335.045 383.01ZM350.807 384.09V383.11C352.087 381.83 353.174 380.71 354.067 379.75C354.96 378.777 355.64 377.903 356.107 377.13C356.574 376.343 356.807 375.61 356.807 374.93C356.807 374.197 356.607 373.597 356.207 373.13C355.807 372.663 355.2 372.43 354.387 372.43C353.854 372.43 353.36 372.583 352.907 372.89C352.454 373.183 352.04 373.543 351.667 373.97L350.727 373.03C351.26 372.443 351.827 371.977 352.427 371.63C353.04 371.27 353.76 371.09 354.587 371.09C355.774 371.09 356.707 371.437 357.387 372.13C358.067 372.81 358.407 373.717 358.407 374.85C358.407 375.65 358.18 376.463 357.727 377.29C357.287 378.103 356.674 378.963 355.887 379.87C355.114 380.763 354.22 381.737 353.207 382.79C353.554 382.763 353.914 382.737 354.287 382.71C354.66 382.683 355.014 382.67 355.347 382.67H359.047V384.09H350.807ZM372.028 379.25H376.028V375.55C376.028 375.203 376.042 374.79 376.068 374.31C376.095 373.83 376.115 373.423 376.128 373.09H376.048C375.888 373.397 375.722 373.697 375.548 373.99C375.375 374.283 375.195 374.583 375.008 374.89L372.028 379.25ZM376.028 384.09V380.57H370.288V379.49L375.748 371.33H377.588V379.25H379.328V380.57H377.588V384.09H376.028Z" fill="white"/>
</g>
</svg>
