<svg width="192" height="181" viewBox="0 0 192 181" fill="none" xmlns="http://www.w3.org/2000/svg">
<path d="M181.503 75.9493C176.89 70.4779 170.463 68.1488 167.263 70.8147C165.677 72.1505 166.396 74.0079 166.895 75.3729C167.509 77.0389 167.82 78.1331 166.942 79.2218C165.896 80.5085 163.219 80.7613 160.394 81.0254C157.131 81.3386 153.443 81.6801 150.909 83.8196C144.045 89.5957 144.12 99.5734 144.505 103.847C141.357 104.231 137.641 104.088 133.229 103.685C138.835 101.48 142.506 97.0802 143.603 90.7617C143.735 89.957 143.212 89.1995 142.408 89.0608C141.558 88.9174 140.834 89.4636 140.707 90.256C139.329 98.298 133.205 102.606 123.399 102.387C123.301 102.387 123.261 102.468 123.17 102.48C122.791 102.421 122.417 102.376 122.032 102.331C118.999 101.871 115.869 101.406 112.727 101.153C117.645 99.0904 120.942 95.4265 123.475 91.2786C123.688 91.1239 123.872 90.9164 123.986 90.6645C124.067 90.4692 124.113 90.274 124.175 90.0721C125.589 87.5911 126.806 84.9979 127.961 82.4904C128.082 82.2376 128.191 82.0075 128.318 81.7556C128.375 81.698 128.444 81.649 128.49 81.5858C132.407 75.256 137.681 73.1212 143.379 75.5805C144.114 75.8786 144.981 75.5578 145.321 74.8107C145.642 74.0617 145.287 73.2165 144.546 72.8806C140.324 71.0628 136.246 71.292 132.616 73.3523C134.086 70.8562 135.677 68.4092 136.878 66.7461C137.154 67.2026 137.482 67.6281 137.883 67.9979C138.607 68.662 139.485 69.1205 140.446 69.3516C141.651 69.6497 142.949 69.5346 144.087 69.0525C144.65 70.144 145.545 71.0628 146.672 71.6288C147.481 72.0278 148.355 72.2401 149.273 72.2401C149.296 72.2401 149.504 72.2288 149.527 72.2288C150.744 72.1627 151.876 71.7458 152.83 71.0109C153.771 71.5967 154.909 71.9099 156.168 71.9099C156.179 71.9099 156.179 71.9099 156.189 71.9099C157.154 71.8873 158.12 71.5911 159.01 71.0628C160.101 70.3902 160.906 69.4138 161.348 68.262C162.52 68.6328 163.796 68.6441 165.024 68.2394C165.954 67.8979 166.805 67.363 167.437 66.6461C168.259 65.7697 168.77 64.6358 168.908 63.4755C170.091 63.2114 171.171 62.6114 171.975 61.7067C172.619 60.9832 173.09 60.1068 173.332 59.1361C173.63 57.907 173.505 56.6231 173.022 55.5062C174.119 54.9401 175.008 54.0477 175.584 52.9186C176.032 52.0431 176.238 51.0772 176.193 50.0782C176.13 48.8603 175.71 47.7208 174.975 46.7727C175.607 45.7614 175.939 44.5785 175.883 43.3493C175.825 42.3503 175.52 41.3966 175.021 40.5891C174.372 39.5005 173.401 38.6967 172.229 38.2487C172.603 37.0855 172.603 35.8129 172.212 34.6008C171.902 33.6621 171.35 32.8141 170.615 32.1537C169.742 31.3321 168.616 30.8151 167.421 30.6661C167.168 29.5143 166.565 28.4483 165.675 27.6332C164.928 26.9436 164.072 26.4729 163.101 26.2541C161.883 25.9786 160.573 26.0909 159.459 26.5729C158.896 25.4673 158 24.5598 156.881 24.0136C156.076 23.6089 155.169 23.3901 154.031 23.4023C152.819 23.4571 151.682 23.874 150.722 24.5976C149.78 24.0033 148.642 23.6844 147.344 23.6844C147.333 23.6844 147.322 23.6844 147.31 23.6844C146.322 23.7448 145.368 24.0438 144.541 24.5428C143.456 25.2098 142.657 26.1975 142.197 27.3606C141.026 26.9729 139.694 26.9842 138.556 27.3748C137.62 27.6851 136.765 28.2304 136.098 28.9605C135.283 29.868 134.777 30.9745 134.633 32.1434C133.473 32.3962 132.41 33.0027 131.594 33.9046C130.916 34.6281 130.445 35.4979 130.221 36.4799C129.917 37.7204 130.037 38.9845 130.52 40.1212C129.411 40.673 128.526 41.5598 127.963 42.6956C127.539 43.5568 127.32 44.5389 127.349 45.5614C127.418 46.7793 127.849 47.9075 128.572 48.8556C127.935 49.8555 127.602 51.0357 127.648 52.2677C127.717 53.2902 128.01 54.244 128.504 55.025C129.158 56.1137 130.135 56.9174 131.307 57.3711C130.934 58.5428 130.922 59.8182 131.325 61.0021C131.623 61.9322 132.175 62.7888 132.917 63.4831C133.474 63.9774 134.112 64.3189 134.789 64.5717C132.755 67.3262 129.699 72.2542 127.965 75.6116C127.075 77.3351 126.23 79.1652 125.391 81.0226C124.995 78.1709 123.714 75.6776 121.589 73.6476C124.335 73.2825 128.011 71.6948 129.413 65.8782C131.216 58.4711 126.333 54.4128 116.696 49.4952C113.237 47.683 110.067 45.2077 105.822 38.8609C105.764 38.7769 105.67 38.7373 105.598 38.6854C105.523 38.5968 105.474 38.5618 105.382 38.4902C105.075 38.3147 104.771 38.1798 104.474 38.226C104.462 38.226 104.462 38.226 104.462 38.226C104.462 38.226 104.462 38.226 104.451 38.226C104.098 38.2713 103.834 38.4552 103.592 38.6967C103.529 38.7543 103.469 38.8203 103.44 38.8892C103.391 38.9609 103.317 39.0128 103.276 39.1014C102.924 39.9146 94.7578 59.1371 100.315 70.6487C102.188 74.4881 105.35 77.0587 109.75 78.2275C110.158 78.3539 110.605 78.3945 111.129 78.3945C112.72 78.3945 114.995 77.8115 116.591 76.2002C117.12 75.6606 117.493 75.0173 117.786 74.3475C122.537 77.4181 123.829 82.565 121.458 88.9665C118.488 94.1134 114.69 98.2499 107.958 99.5357C104.552 100.179 101.223 99.564 98.3822 97.933C101.668 94.7567 103.822 90.3457 104.227 85.3884C104.305 84.5639 103.698 83.8687 102.88 83.7941C102.081 83.6706 101.364 84.3234 101.286 85.1412C100.922 89.5646 98.9567 93.4709 95.9814 96.1821C92.989 93.4709 91.0419 89.5646 90.6769 85.1412C90.5986 84.3168 89.8807 83.6828 89.0826 83.7941C88.2581 83.8687 87.6694 84.5639 87.7355 85.3884C88.1345 90.3457 90.3061 94.7567 93.5805 97.933C90.7231 99.564 87.4053 100.196 83.9988 99.5357C77.2642 98.2499 73.47 94.1134 70.5004 88.9665C68.125 82.565 69.4174 77.4181 74.171 74.3475C74.4643 75.0173 74.8285 75.6776 75.3662 76.2002C76.9605 77.8115 79.2179 78.3945 80.8292 78.3945C81.349 78.3945 81.7999 78.335 82.1933 78.2275C86.594 77.0587 89.7646 74.4881 91.6287 70.6487C97.1889 59.1371 89.0288 39.8967 88.6703 39.1014C88.6307 39.0014 88.5468 38.9722 88.5128 38.8892C88.4666 38.8024 88.4005 38.7533 88.3553 38.6967C88.1194 38.4552 87.8383 38.2713 87.4968 38.226C87.4855 38.226 87.4855 38.226 87.4855 38.226C87.4855 38.226 87.4855 38.226 87.4742 38.226C87.1836 38.1798 86.8629 38.3147 86.578 38.4902C86.4714 38.5562 86.4204 38.6137 86.3252 38.7081C86.2563 38.7713 86.1846 38.8081 86.1327 38.8609C81.8791 45.1907 78.7085 47.684 75.2615 49.4848C65.6204 54.4138 60.7376 58.4711 62.5328 65.8782C63.9374 71.6948 67.608 73.2995 70.356 73.6476C68.2561 75.6776 66.9779 78.1709 66.5618 81.0226C65.7204 79.1812 64.8846 77.3351 63.9855 75.6116C62.2507 72.2542 59.1867 67.3262 57.15 64.5717C57.8386 64.3189 58.4914 63.9651 59.0452 63.4661C59.78 62.7944 60.3319 61.9379 60.6187 61.019C61.0319 59.8361 61.0206 58.5616 60.6564 57.3891C61.7913 56.9495 62.7677 56.125 63.4308 55.059C63.9365 54.2496 64.244 53.2959 64.2959 52.2422C64.3506 51.0357 64.0204 49.8669 63.3799 48.8556C64.1035 47.9368 64.5261 46.785 64.6034 45.5501C64.6327 44.5615 64.4138 43.5738 63.9921 42.7324C63.4261 41.5985 62.5337 40.673 61.4338 40.1391C61.9158 39.0014 62.0394 37.7496 61.7271 36.5082C61.4998 35.5205 61.0404 34.6621 60.363 33.9329C59.5706 33.0678 58.5452 32.4622 57.3217 32.1981C57.1811 31.0142 56.6755 29.8803 55.8453 28.9784C55.1812 28.2568 54.334 27.6974 53.4124 27.3983C52.2521 26.9852 50.9342 26.9852 49.7588 27.3757C49.2824 26.2163 48.4579 25.2277 47.4004 24.5561C46.5702 24.0448 45.6052 23.7457 44.3354 23.7004C43.227 23.7004 42.1298 24.0221 41.1987 24.6108C40.245 23.8863 39.0385 23.4703 37.6291 23.4042C36.7216 23.4042 35.8452 23.6108 35.0754 24.0155C33.9528 24.5759 33.0274 25.4739 32.4821 26.5861C31.3709 26.1031 30.069 25.9918 28.8408 26.2729C27.8814 26.4861 27.005 26.9569 26.2645 27.6342C25.3824 28.4671 24.7711 29.5095 24.507 30.684C23.3118 30.8274 22.2014 31.3443 21.325 32.1688C20.5902 32.8263 20.0355 33.6735 19.7308 34.613C19.3374 35.8309 19.3374 37.0968 19.7081 38.2487C18.5704 38.6967 17.5997 39.5212 16.9309 40.5891C16.4139 41.4079 16.1121 42.3607 16.0715 43.3833C16.0111 44.6011 16.347 45.7728 16.9762 46.7831C16.2517 47.7141 15.8243 48.866 15.7696 50.0895C15.7234 51.0894 15.93 52.0535 16.3809 52.9186C16.9583 54.0647 17.846 54.9722 18.9459 55.5231C18.4837 56.641 18.3393 57.9192 18.6469 59.1588C18.877 60.0983 19.3478 60.9945 19.994 61.7181C20.7807 62.5831 21.8175 63.1887 23.0467 63.4529C23.1929 64.6358 23.7042 65.7707 24.5174 66.6583C25.1636 67.3706 26.0107 67.9281 26.9644 68.2582C28.1446 68.6403 29.4577 68.6403 30.6181 68.2762C31.069 69.4044 31.8935 70.3921 32.9821 71.0817C33.8406 71.6043 34.8113 71.8948 36.0292 71.9288C37.1348 71.9288 38.2234 71.6043 39.1394 71.0298C40.0762 71.7533 41.2223 72.1693 42.4449 72.2363C42.4676 72.2363 42.6628 72.2476 42.6751 72.2476C43.6053 72.2476 44.4873 72.041 45.2863 71.6364C46.4032 71.0704 47.3164 70.1515 47.8626 69.061C49.0003 69.5431 50.321 69.6582 51.504 69.3591C52.4577 69.1289 53.3388 68.6705 54.0803 68.0064C54.4793 67.6422 54.8038 67.2111 55.0859 66.7536C56.2811 68.4167 57.8631 70.8524 59.3338 73.3485C55.7029 71.2892 51.6162 71.06 47.4117 72.8891C46.6702 73.2249 46.3174 74.0692 46.6391 74.8192C46.9693 75.5654 47.8343 75.9135 48.5692 75.588C54.2557 73.1297 59.5404 75.2522 63.4582 81.5933C63.5035 81.6763 63.5818 81.7112 63.6384 81.7745C63.7563 82.0159 63.8742 82.2461 63.9978 82.498C65.1327 85.0054 66.3496 87.5986 67.7807 90.0806C67.8552 90.2758 67.9042 90.4589 67.9608 90.6721C68.0844 90.9362 68.2684 91.1315 68.4806 91.2862C71.0315 95.4331 74.3021 99.098 79.2311 101.161C76.086 101.414 72.9559 101.885 69.9136 102.338C69.5428 102.402 69.1551 102.448 68.7853 102.487C68.6853 102.465 68.6561 102.395 68.5495 102.395C58.7669 102.597 52.6266 98.3169 51.2512 90.2636C51.1153 89.4712 50.3918 88.9193 49.5503 89.0693C48.7381 89.207 48.2032 89.9645 48.3551 90.7692C49.4493 97.0877 53.1199 101.487 58.7263 103.693C54.3086 104.096 50.587 104.245 47.4504 103.854C47.8268 99.5753 47.9098 89.6032 41.0459 83.8281C38.4979 81.6933 34.8103 81.3462 31.5558 81.033C28.7266 80.7688 26.0437 80.516 25.0041 79.2293C24.1344 78.1237 24.4325 77.0474 25.0617 75.3814C25.5673 74.0173 26.2682 72.141 24.6966 70.8232C21.5203 68.146 15.0697 70.4987 10.4623 75.9578C5.72099 81.5877 4.57481 88.1326 7.83976 90.873C9.11518 91.954 10.8727 91.356 12.3867 90.4598C13.6442 89.7136 14.897 89.0467 16.1583 89.7476C17.6139 90.5626 18.3148 93.1474 19.0619 95.8944C19.9213 99.0536 20.8977 102.637 23.4391 104.775C26.6097 107.44 30.7916 108.813 35.8556 108.813C41.428 108.813 46.0693 107.158 46.2731 107.09C46.4627 107.015 46.6268 106.882 46.7551 106.728C51.437 107.394 56.7556 106.877 62.4658 106.319C65.0562 106.055 67.7307 105.653 70.407 105.222C70.772 105.176 71.1192 105.119 71.4843 105.079C67.908 107.744 65.726 111.403 65.1138 115.867C63.2959 113.477 60.5008 111.393 56.4368 111.393C54.8142 111.393 53.0567 111.743 51.1983 112.38C42.2374 115.551 41.327 123.209 42.7864 137.069C43.3034 142.096 42.8553 147.293 38.9922 156.381C38.947 156.473 38.9696 156.576 38.947 156.668C38.9271 156.771 38.9149 156.817 38.9149 156.91C38.9036 157.272 38.9696 157.588 39.1875 157.863H39.1988C39.1988 157.876 39.1988 157.876 39.1988 157.876C39.4866 158.237 39.9082 158.427 40.3393 158.427C40.428 158.427 40.5026 158.415 40.5922 158.405C41.6978 158.21 67.8863 153.511 76.2265 139.649C78.984 135.054 79.4887 129.964 77.7085 124.577C76.9501 122.21 73.6276 118.786 69.6098 118.786C69.0155 118.786 68.4495 118.969 67.875 119.114C67.591 111.359 72.3446 106.023 81.2622 103.996C85.0912 103.778 88.8618 104.018 92.4438 105.093C90.6863 106.183 88.9741 107.431 87.3515 109.125C83.0489 113.605 80.9093 119.35 81.3376 125.358C81.8093 131.986 85.3384 138.316 91.0202 142.751C91.2872 142.946 91.6089 143.067 91.9164 143.067C92.3447 143.067 92.7749 142.872 93.0683 142.498C93.5683 141.861 93.439 140.925 92.8098 140.419C87.7864 136.501 84.6648 130.929 84.2564 125.122C83.8913 119.964 85.7384 115.001 89.458 111.152C91.5174 109.055 93.7088 107.562 95.9748 106.43C98.2699 107.545 100.444 109.038 102.492 111.152C106.2 115.001 108.038 119.964 107.694 125.122C107.286 130.912 104.158 136.501 99.1407 140.419C98.5114 140.925 98.3888 141.838 98.8878 142.498C99.1756 142.866 99.6114 143.067 100.04 143.067C100.364 143.067 100.669 142.946 100.933 142.751C106.62 138.316 110.147 131.987 110.612 125.358C111.037 119.355 108.901 113.605 104.604 109.125C102.981 107.458 101.27 106.183 99.5114 105.093C103.092 104.007 106.862 103.777 110.699 103.996C119.613 106.029 124.363 111.36 124.077 119.114C123.497 118.976 122.94 118.786 122.33 118.786C118.327 118.786 115.012 122.21 114.243 124.577C112.456 129.988 112.967 135.053 115.725 139.649C124.065 153.51 150.248 158.21 151.361 158.405C151.448 158.416 151.522 158.427 151.615 158.427C151.643 158.427 151.667 158.427 151.689 158.427C152.504 158.427 153.16 157.778 153.16 156.956C153.16 156.594 153.039 156.256 152.81 156.002C149.099 147.157 148.673 142.021 149.185 137.081C150.644 123.209 149.748 115.562 140.769 112.38C138.937 111.743 137.173 111.393 135.542 111.393C131.486 111.393 128.683 113.477 126.857 115.867C126.242 111.404 124.048 107.745 120.487 105.079C120.848 105.137 121.199 105.194 121.561 105.222C124.25 105.635 126.897 106.055 129.505 106.319C135.216 106.894 140.534 107.422 145.209 106.728C145.342 106.865 145.509 106.992 145.698 107.09C145.882 107.158 150.523 108.813 156.113 108.813C161.179 108.813 165.361 107.463 168.532 104.775C171.082 102.655 172.048 99.0536 172.909 95.8944C173.656 93.1483 174.356 90.5636 175.81 89.7476C177.08 89.0589 178.332 89.7136 179.578 90.4598C181.099 91.3447 182.858 91.954 184.139 90.873C187.392 88.125 186.237 81.5792 181.503 75.9493ZM104.313 71.2515C104.255 71.2515 104.218 71.309 104.177 71.309C103.718 70.709 103.313 70.0685 102.948 69.344C102.836 69.1261 102.812 68.862 102.707 68.6318L112.13 69.5516C112.526 70.0572 112.957 70.5515 113.382 70.9619L104.313 71.2515ZM121.544 55.6156L113.113 65.9433C112.7 65.2565 112.291 64.5217 111.923 63.7264L119.097 54.111C119.989 54.6279 120.822 55.1326 121.544 55.6156ZM101.348 61.7388L109.005 64.4038C109.333 65.0905 109.671 65.7508 110.034 66.3914L101.764 65.5848C101.507 64.3443 101.389 63.0623 101.348 61.7388ZM101.383 58.6399C101.442 57.7702 101.556 56.8683 101.67 55.9976L106.984 59.1333C107.156 59.6965 107.352 60.2389 107.564 60.7851L101.383 58.6399ZM104.301 48.0566L103.506 47.333C103.643 46.8397 103.795 46.368 103.93 45.9114C104.042 46.585 104.166 47.3095 104.301 48.0566ZM105.255 52.9271C105.267 52.9384 105.283 52.9271 105.295 52.9384C105.447 53.628 105.637 54.3289 105.812 55.026L102.191 52.8808C102.33 52.0856 102.5 51.3158 102.673 50.5574L105.255 52.9271ZM126.542 65.1509C125.646 68.8846 123.504 70.7798 120.224 70.7798C120.138 70.7798 120.097 70.7685 120.023 70.7685L126.761 62.6548C126.806 63.4397 126.756 64.266 126.542 65.1509ZM125.629 59.4097L116.915 69.91C116.214 69.545 115.571 69.0393 114.928 68.3564L123.877 57.4221C124.607 58.0852 125.181 58.7522 125.629 59.4097ZM116.484 52.6856L110.608 60.5549C110.315 59.7852 110.052 58.9786 109.787 58.1683L114.429 51.5394C114.727 51.7092 115.043 51.9158 115.331 52.0686C115.761 52.2865 116.094 52.4799 116.484 52.6856ZM111.964 49.9404L108.741 54.5326C108.505 53.628 108.299 52.7035 108.092 51.8092L110.379 48.699C110.913 49.1678 111.435 49.5499 111.964 49.9404ZM108.224 46.634L107.287 47.9207C107.104 46.8868 106.92 45.8841 106.771 44.9454C107.259 45.5171 107.759 46.1407 108.224 46.634ZM111.096 75.4333C110.763 75.4333 110.568 75.3843 110.486 75.3616C109.337 75.0484 108.35 74.6032 107.42 74.0862L114.623 73.856C114.554 73.94 114.525 74.0258 114.462 74.1202C113.578 75.0192 112.136 75.4333 111.096 75.4333ZM134.642 57.2702C135.016 56.8334 135.061 56.2099 134.819 55.6929C134.578 55.1505 134.015 54.8345 133.452 54.8345C132.436 54.8345 131.522 54.3147 130.988 53.444C130.747 53.0686 130.61 52.5856 130.575 52.0913C130.541 51.2328 130.897 50.4168 131.536 49.8169C131.863 49.515 132.035 49.0924 132.012 48.6565C131.989 48.2349 131.77 47.8151 131.408 47.551C130.754 47.0453 130.305 46.2407 130.277 45.4171C130.259 44.9115 130.37 44.4408 130.599 43.9813C131.041 43.088 131.937 42.4767 132.96 42.3928C133.54 42.3475 134.034 41.9701 134.23 41.4277C134.425 40.8768 134.287 40.2702 133.862 39.8627C133.127 39.1533 132.828 38.1279 133.068 37.1289C133.196 36.6459 133.425 36.2242 133.747 35.8535C134.299 35.2413 135.057 34.9224 136.01 34.9224C136.021 34.9224 136.021 34.9224 136.021 34.9224C136.47 34.9224 136.883 34.7762 137.182 34.4404C137.48 34.1159 137.606 33.6819 137.544 33.2452C137.423 32.3924 137.676 31.5472 138.256 30.9161C138.595 30.5604 138.991 30.3038 139.474 30.135C140.415 29.8105 141.507 30.0284 142.283 30.6859C142.72 31.0651 143.34 31.1453 143.869 30.9038C144.386 30.651 144.73 30.1227 144.725 29.551C144.707 28.5294 145.242 27.5634 146.097 27.0352C146.488 26.7823 146.965 26.6474 147.603 26.6097C148.43 26.6097 149.189 26.9569 149.739 27.5634C150.038 27.8993 150.44 28.0351 150.888 28.0464C151.325 28.0238 151.728 27.8049 151.991 27.4578C152.515 26.7682 153.313 26.3522 154.324 26.3229C154.761 26.3229 155.174 26.4408 155.576 26.6474C156.478 27.0701 157.092 27.9804 157.162 28.9737C157.22 29.551 157.575 30.0454 158.116 30.251C158.673 30.4585 159.276 30.335 159.69 29.9039C160.408 29.169 161.464 28.87 162.476 29.0992C162.918 29.2143 163.337 29.4331 163.716 29.7746C164.348 30.3633 164.693 31.1727 164.646 32.0518C164.628 32.4858 164.807 32.9103 165.129 33.198C165.451 33.4989 165.911 33.6197 166.312 33.5631C167.18 33.4452 168.036 33.7093 168.639 34.2866C169.007 34.6347 169.265 35.0224 169.426 35.4818C169.759 36.4695 169.553 37.5383 168.869 38.2996C168.507 38.7335 168.473 39.3561 168.713 39.8759C168.943 40.4042 169.512 40.7315 170.074 40.7315C171.074 40.7315 171.981 41.24 172.522 42.105C172.763 42.4871 172.906 42.9635 172.93 43.4521C172.971 44.3106 172.614 45.1379 171.976 45.7322C171.655 46.0341 171.483 46.451 171.5 46.8878C171.522 47.3208 171.735 47.734 172.086 47.9934C172.774 48.5103 173.194 49.3093 173.235 50.1499C173.257 50.6442 173.154 51.1149 172.93 51.546C172.471 52.462 171.58 53.062 170.557 53.1403C169.977 53.1865 169.477 53.5619 169.282 54.1166C169.087 54.6562 169.23 55.2628 169.644 55.6788C170.368 56.3674 170.684 57.4277 170.454 58.4041C170.327 58.8861 170.091 59.3088 169.764 59.6908C169.225 60.3021 168.46 60.621 167.502 60.621C167.496 60.621 167.49 60.621 167.49 60.621C167.042 60.5983 166.628 60.7672 166.335 61.1153C166.042 61.4398 165.916 61.8737 165.967 62.3105C166.094 63.1265 165.824 63.9962 165.232 64.6339C164.911 64.9896 164.497 65.2631 164.043 65.4263C163.113 65.7367 161.992 65.5329 161.246 64.8754C160.797 64.4962 160.177 64.4038 159.653 64.6575C159.119 64.899 158.792 65.416 158.792 66.0046C158.804 67.0385 158.286 67.9809 157.442 68.5082C157.005 68.7837 156.546 68.9082 155.896 68.9337C155.081 68.9337 154.317 68.5979 153.77 67.9913C153.472 67.6668 153.161 67.5083 152.616 67.5083C152.191 67.5432 151.771 67.7498 151.507 68.1092C150.99 68.7978 150.209 69.2148 149.37 69.2318L149.243 70.7138V69.2431C148.773 69.2431 148.336 69.1365 147.933 68.9441C147.038 68.4847 146.417 67.5913 146.337 66.5772C146.291 65.9772 145.924 65.4829 145.36 65.2905C145.217 65.2301 145.039 65.2075 144.867 65.2075C144.493 65.2075 144.097 65.3565 143.81 65.6556C143.121 66.3678 142.059 66.6772 141.076 66.4367C140.594 66.3187 140.168 66.1037 139.806 65.7725C139.168 65.1839 138.83 64.3858 138.864 63.4727C138.882 63.051 138.709 62.6199 138.376 62.3378C138.048 62.036 137.623 61.9614 137.192 61.9737C136.377 62.1029 135.481 61.8331 134.86 61.2615C134.498 60.9257 134.239 60.503 134.061 60.0323C133.768 59.0965 133.982 58.0277 134.642 57.2702ZM72.8257 54.111L80.0028 63.7264C79.632 64.5217 79.2245 65.2575 78.8132 65.9433L70.3777 55.6269C71.1022 55.1326 71.9437 54.6279 72.8257 54.111ZM82.9178 64.4038L90.5778 61.7388C90.5372 63.0623 90.4203 64.3443 90.1665 65.5848L81.9065 66.3914C82.2546 65.7508 82.6017 65.0905 82.9178 64.4038ZM89.7477 52.8808L86.1138 55.026C86.2893 54.3279 86.4761 53.628 86.6308 52.9384C86.6431 52.9271 86.66 52.9384 86.6714 52.9271L89.2533 50.5517C89.4373 51.3102 89.5958 52.0856 89.7477 52.8808ZM87.6251 48.0566C87.76 47.3095 87.8836 46.5859 87.9902 45.9114C88.1194 46.3671 88.2656 46.8387 88.4015 47.333L87.6251 48.0566ZM84.9431 59.1333L90.2533 55.9976C90.3769 56.8674 90.4835 57.7692 90.5438 58.6399L84.3601 60.7851C84.5667 60.2332 84.7592 59.6908 84.9431 59.1333ZM79.8075 69.5506L89.2194 68.6309C89.125 68.861 89.0958 69.1252 88.9788 69.3431C88.6251 70.0666 88.2204 70.7072 87.7609 71.3081C87.7006 71.3081 87.6657 71.2505 87.6261 71.2505L78.5727 70.96C78.9943 70.5506 79.4085 70.0563 79.8075 69.5506ZM81.4301 75.3607C81.3386 75.3833 81.1433 75.4324 80.8188 75.4324C79.7849 75.4324 78.3434 75.0192 77.4614 74.1192C77.3784 74.024 77.3548 73.939 77.3038 73.8551L84.5016 74.0853C83.5677 74.6088 82.5791 75.0569 81.4301 75.3607ZM85.1554 44.9454C85.0054 45.885 84.8196 46.8878 84.6356 47.9207L83.7017 46.634C84.1677 46.1407 84.6677 45.5171 85.1554 44.9454ZM81.5593 48.6999L83.8422 51.8101C83.6357 52.7035 83.4309 53.6289 83.196 54.5336L79.9594 49.9414C80.4914 49.5499 81.0141 49.1678 81.5593 48.6999ZM77.4897 51.5394L82.131 58.1683C81.8669 58.9984 81.5914 59.7852 81.2952 60.5549L75.419 52.6856C75.8124 52.4676 76.1539 52.2865 76.5737 52.0686C76.8784 51.9167 77.1906 51.7092 77.4897 51.5394ZM68.0608 57.4221L76.9963 68.3677C76.385 69.0346 75.7096 69.5506 75.02 69.91L66.309 59.4097C66.742 58.7522 67.3137 58.0852 68.0608 57.4221ZM65.3723 65.1509C65.1628 64.266 65.1138 63.4397 65.1628 62.6548L71.9041 70.7685C71.8211 70.7685 71.7805 70.7798 71.7031 70.7798C68.4023 70.7798 66.2798 68.8846 65.3723 65.1509ZM53.5275 62.3624C53.1916 62.6491 53.019 63.0746 53.0388 63.4849C53.0737 64.3811 52.7313 65.1971 52.103 65.7971C51.7379 66.1329 51.3078 66.3518 50.8219 66.4489C49.8795 66.7131 48.7796 66.3801 48.09 65.6678C47.6966 65.2688 47.0787 65.116 46.5391 65.3028C45.9787 65.498 45.6089 65.9914 45.5627 66.5866C45.474 67.5979 44.8741 68.4969 43.9694 68.9563C43.5732 69.1488 43.1166 69.2544 42.6562 69.2544V70.7251L42.5383 69.2431C41.6799 69.2082 40.8988 68.8035 40.378 68.1139C40.1139 67.7611 39.7148 67.5479 39.2724 67.5196C39.2375 67.5196 39.2149 67.5196 39.1922 67.5196C38.7904 67.5196 38.38 67.6894 38.1036 68.0017C37.5432 68.6082 36.7857 68.9327 35.8084 68.9327H35.798C35.3273 68.9176 34.8679 68.7922 34.4509 68.5507C33.5915 67.9903 33.0755 67.0489 33.0755 66.015C33.0868 65.4207 32.7397 64.9094 32.217 64.6679C31.6973 64.4151 31.0794 64.5217 30.6284 64.8858C29.87 65.5263 28.6983 65.7386 27.8512 65.449C27.3625 65.2914 26.9522 65.015 26.622 64.633C26.0447 64.0189 25.7749 63.1368 25.9041 62.3095C25.9635 61.8963 25.7456 61.4568 25.4702 61.1379C25.1919 60.8247 24.6862 60.6323 24.2636 60.6323C23.4108 60.6323 22.6637 60.2964 22.1212 59.7125C21.7826 59.3371 21.5411 58.8852 21.4401 58.4258C21.2043 57.4268 21.5203 56.3787 22.2382 55.6778C22.658 55.2901 22.8099 54.6666 22.6033 54.126C22.4165 53.5723 21.9165 53.1959 21.3279 53.1497C20.2911 53.0667 19.4204 52.4724 18.9553 51.5441C18.7403 51.1309 18.628 50.6621 18.6506 50.1687C18.6969 49.3075 19.11 48.5264 19.7968 48.0094C20.1562 47.7453 20.3628 47.3547 20.3864 46.9029C20.409 46.4727 20.2402 46.0444 19.9147 45.7511C19.2742 45.1568 18.9148 44.3379 18.9638 43.4795C18.9865 42.9739 19.1214 42.5031 19.3751 42.1098C19.9034 41.2513 20.8109 40.7513 21.8684 40.7513C22.4741 40.7259 22.974 40.4212 23.2212 39.8929C23.4627 39.3731 23.3816 38.7552 23.0174 38.31C22.3505 37.5204 22.1524 36.4752 22.4571 35.4932C22.6099 35.0337 22.8731 34.6347 23.2589 34.2866C23.8702 33.7036 24.7032 33.4395 25.5881 33.5744C25.9984 33.6263 26.4465 33.4914 26.7682 33.2037C27.0927 32.9169 27.2682 32.4914 27.2512 32.0641C27.205 31.1991 27.5521 30.3746 28.1936 29.7812C28.5587 29.4275 28.9804 29.2152 29.4228 29.1124C30.4105 28.8822 31.4878 29.1813 32.2114 29.9171C32.6048 30.3302 33.234 30.4661 33.7802 30.2708C34.3226 30.0727 34.682 29.5699 34.7226 28.9954C34.8056 27.9757 35.4065 27.088 36.3339 26.6484C36.7046 26.4531 37.3046 26.3182 37.7291 26.3531C38.5819 26.3758 39.3517 26.7889 39.8743 27.47C40.1384 27.8238 40.5346 28.0417 40.9799 28.0643C41.4167 28.0757 41.8393 27.9115 42.1289 27.5823C42.7034 26.971 43.4553 26.6286 44.3807 26.6286C44.392 26.6286 44.392 26.6286 44.392 26.6286C44.909 26.6597 45.3797 26.8012 45.7797 27.0531C46.6381 27.5823 47.1702 28.5464 47.1523 29.569C47.1466 30.152 47.4796 30.6746 47.9966 30.9161C48.5277 31.1462 49.1399 31.0651 49.5908 30.7066C50.3691 30.052 51.4257 29.8416 52.4087 30.1463C52.8794 30.3038 53.2756 30.5708 53.5973 30.9161C54.1916 31.5594 54.4557 32.4179 54.3218 33.2593C54.2586 33.6753 54.485 34.1093 54.7699 34.4225C55.0453 34.7526 55.5623 34.9281 55.9821 34.9281C56.8207 34.9281 57.5754 35.2696 58.1273 35.8818C58.4575 36.2346 58.682 36.6506 58.7791 37.1449C59.032 38.1326 58.7273 39.1637 57.9867 39.8769C57.5754 40.2702 57.4264 40.8881 57.6216 41.439C57.8169 41.9881 58.3226 42.3579 58.9027 42.4041C59.9395 42.4937 60.8159 43.0823 61.2753 44.004C61.4932 44.4408 61.6026 44.9115 61.5856 45.3747C61.5281 46.2331 61.1092 47.0406 60.4461 47.5453C60.0923 47.8094 59.8744 48.2122 59.8517 48.6509C59.8178 49.0877 59.998 49.5093 60.3234 49.8112C60.964 50.397 61.3234 51.2102 61.2772 52.0516C61.2545 52.5809 61.1168 53.0629 60.8583 53.4506C60.3357 54.31 59.431 54.8147 58.348 54.8147C57.7018 54.7694 57.2424 55.1279 57.0009 55.6741C56.7538 56.1939 56.8481 56.8004 57.2245 57.2627C57.8764 58.0239 58.0839 59.0918 57.7707 60.0691C57.6301 60.5172 57.366 60.9389 57.0009 61.2643C56.3774 61.8416 55.4698 62.1237 54.6661 61.9879C54.2746 61.9567 53.8435 62.0605 53.5275 62.3624ZM35.8207 105.846C31.4633 105.846 27.9163 104.731 25.2862 102.514C23.4504 100.963 22.641 97.9877 21.8514 95.1152C20.9468 91.7607 20.0817 88.5788 17.5516 87.1741C16.7158 86.7025 15.8574 86.4732 14.9753 86.4732C13.3244 86.4732 11.9509 87.2666 10.8764 87.909C10.4406 88.1646 9.77082 88.5495 9.69912 88.6061C8.02183 87.1968 8.84067 82.4263 12.6914 77.8426C15.7564 74.2032 19.1855 72.5722 21.2043 72.5722C21.8562 72.5722 22.3939 72.7448 22.7033 72.9193C22.7325 73.1495 22.4627 73.873 22.2986 74.3551C21.6694 76.0437 20.7053 78.6086 22.7033 81.0905C24.5391 83.3423 27.804 83.6659 31.268 83.9592C34.2321 84.2498 37.2848 84.5366 39.1375 86.0704C44.709 90.7607 44.8269 99.2848 44.5316 103.26C41.7629 102.455 39.4969 100.973 37.5498 98.4857C39.3101 96.0387 39.0866 92.6267 36.7914 90.5362C34.433 88.3646 30.4152 88.5599 28.2436 90.9211C27.1437 92.104 26.6041 93.6549 26.655 95.2746C26.7267 96.8708 27.4276 98.3641 28.6144 99.4678C29.7313 100.49 31.1907 101.059 32.7038 101.059C33.6255 101.059 34.5273 100.795 35.3377 100.399C37.1499 102.691 39.2441 104.218 41.5789 105.23C39.9573 105.558 37.981 105.846 35.8207 105.846ZM30.6048 97.3094C29.9926 96.7462 29.6285 95.9708 29.5907 95.1492C29.5502 94.3228 29.8379 93.5474 30.4096 92.921C31.0096 92.2663 31.834 91.8993 32.7217 91.8993C33.4972 91.8993 34.2377 92.1861 34.8047 92.7144C36.0801 93.8738 36.1631 95.8501 35.0084 97.1141C33.8906 98.332 31.8199 98.4178 30.6048 97.3094ZM72.6559 139.415L66.6505 127.903C67.0496 126.697 67.2967 125.525 67.4203 124.371L74.7615 134.859C74.8568 134.98 74.9917 134.952 75.103 135.02C74.7492 136.077 74.2908 137.1 73.6955 138.082C73.3965 138.564 72.9776 138.966 72.6559 139.415ZM46.4853 120.102L64.4846 122.159C64.6657 123.388 64.5563 124.737 64.1487 126.186L45.3674 124.222C45.575 122.562 45.974 121.251 46.4853 120.102ZM63.1205 129.017C62.5865 130.189 61.9432 131.384 61.179 132.613L45.2505 131.671C45.1505 129.994 45.1382 128.511 45.1731 127.139L63.1205 129.017ZM56.6726 138.816L45.7674 138.461C45.7382 137.868 45.7325 137.277 45.675 136.749C45.5863 135.98 45.5486 135.348 45.4976 134.636L59.2725 135.469C58.4622 136.588 57.5915 137.702 56.6726 138.816ZM51.0549 145.101L45.4863 144.826C45.6618 143.595 45.7504 142.482 45.7995 141.413L54.2501 141.689C53.1916 142.848 52.1256 143.981 51.0549 145.101ZM44.8967 147.743L48.2371 147.898C46.6202 149.489 45.0373 150.937 43.5986 152.206C44.1269 150.621 44.5863 149.11 44.8967 147.743ZM50.1672 150.126L49.6852 153.045C48.3098 153.482 47.0023 153.854 45.8391 154.154C47.1259 153.017 48.5956 151.649 50.1672 150.126ZM53.6369 146.669C54.5331 145.726 55.4312 144.767 56.3255 143.762L56.6264 150.505C55.3491 151.045 54.085 151.539 52.8435 151.965L53.6963 146.864C53.6963 146.801 53.6369 146.743 53.6369 146.669ZM59.1197 140.471C59.7857 139.644 60.4555 138.805 61.0724 137.966L63.3676 147.111C63.379 147.157 63.4308 147.18 63.4563 147.238C62.1667 147.962 60.8658 148.622 59.5272 149.26L59.1197 140.471ZM63.2893 134.727C63.9902 133.618 64.6195 132.522 65.1742 131.423L70.6315 141.89C69.2844 143.234 67.6901 144.463 66.0128 145.59L63.2893 134.727ZM52.1379 115.14C53.6633 114.593 55.085 114.318 56.3858 114.318C60.4036 114.318 62.5865 116.983 63.678 119.097L48.3607 117.339C49.3569 116.403 50.5974 115.68 52.1379 115.14ZM74.8841 125.456C75.5247 127.42 75.7426 129.275 75.7143 131.085L69.1778 121.756C69.307 121.745 69.4617 121.683 69.591 121.683C72.2191 121.683 74.4653 124.164 74.8841 125.456ZM145.436 120.102C145.953 121.251 146.343 122.561 146.551 124.204L127.767 126.168C127.382 124.732 127.25 123.382 127.434 122.153L145.436 120.102ZM118.247 138.099C117.633 137.099 117.173 136.076 116.841 135.036C116.939 134.951 117.088 134.979 117.168 134.865L124.521 124.376C124.647 125.512 124.889 126.702 125.279 127.908L119.276 139.431C118.938 138.966 118.524 138.576 118.247 138.099ZM126.743 131.43C127.306 132.538 127.915 133.623 128.61 134.738L125.887 145.618C124.216 144.493 122.618 143.285 121.274 141.918L126.743 131.43ZM128.553 147.111L130.852 137.966C131.471 138.806 132.137 139.644 132.804 140.471L132.419 149.259C131.075 148.627 129.771 147.973 128.472 147.237C128.478 147.174 128.541 147.157 128.553 147.111ZM140.863 145.101C139.789 143.986 138.731 142.848 137.687 141.689L146.142 141.413C146.189 142.482 146.269 143.595 146.453 144.826L140.863 145.101ZM146.251 136.76C146.193 137.3 146.189 137.892 146.153 138.471L135.25 138.816C134.331 137.713 133.464 136.587 132.653 135.478L146.452 134.634C146.355 135.347 146.325 135.991 146.251 136.76ZM135.59 143.762C136.485 144.767 137.387 145.726 138.279 146.669C138.279 146.743 138.21 146.795 138.22 146.864L139.077 151.988C137.836 151.552 136.566 151.058 135.29 150.517L135.59 143.762ZM141.753 150.126C143.327 151.649 144.809 153.011 146.091 154.165C144.919 153.854 143.621 153.486 142.23 153.05L141.753 150.126ZM143.667 147.898L147.022 147.743C147.332 149.105 147.791 150.621 148.32 152.235C146.859 150.937 145.304 149.488 143.667 147.898ZM146.676 131.671L130.747 132.625C129.978 131.395 129.34 130.19 128.805 129.018L146.75 127.162C146.785 128.511 146.775 129.993 146.676 131.671ZM122.332 121.683C122.459 121.683 122.608 121.745 122.745 121.756L116.208 131.096C116.162 129.275 116.381 127.42 117.035 125.445C117.45 124.164 119.701 121.683 122.332 121.683ZM135.538 114.318C136.848 114.318 138.261 114.593 139.795 115.14C141.34 115.679 142.58 116.403 143.591 117.356L128.277 119.114C129.392 116.988 131.574 114.318 135.538 114.318ZM92.1608 101.83C93.5079 101.387 94.7597 100.709 95.9606 99.9177C97.1606 100.71 98.4247 101.388 99.7604 101.83C98.4652 102.158 97.2011 102.617 95.9606 103.135C94.7135 102.617 93.4475 102.158 92.1608 101.83ZM182.394 88.5665C182.152 88.5542 181.503 88.1816 181.049 87.926C179.947 87.2817 178.602 86.4902 176.953 86.4902C176.074 86.4902 175.196 86.7194 174.38 87.1789C171.841 88.5778 170.985 91.7597 170.076 95.1322C169.29 98.0046 168.485 100.98 166.642 102.542C164.011 104.759 160.466 105.863 156.106 105.863C153.947 105.863 151.971 105.575 150.35 105.248C152.677 104.237 154.779 102.692 156.588 100.422C157.421 100.813 158.299 101.078 159.225 101.078C160.747 101.078 162.189 100.508 163.314 99.4857C165.773 97.2339 165.934 93.3974 163.683 90.9381C161.512 88.5778 157.496 88.3646 155.124 90.5532C152.844 92.6389 152.62 96.0566 154.377 98.5037C152.459 100.986 150.167 102.479 147.398 103.278C147.1 99.314 147.221 90.79 152.792 86.1025C154.624 84.5432 157.692 84.2677 160.657 83.9979C164.12 83.6668 167.395 83.3659 169.227 81.1141C171.232 78.6322 170.29 76.0908 169.629 74.373C169.462 73.9013 169.187 73.1778 169.136 73.0976C170.698 71.7911 175.15 73.0316 179.234 77.8737C183.1 82.432 183.921 87.1968 182.394 88.5665ZM156.913 97.1141C155.764 95.8501 155.844 93.8738 157.108 92.7144C157.694 92.1852 158.434 91.8993 159.199 91.8993C160.066 91.8993 160.906 92.255 161.508 92.921C162.657 94.1851 162.589 96.15 161.325 97.3094C160.739 97.8386 159.992 98.1245 159.222 98.1245C158.331 98.1245 157.521 97.7584 156.913 97.1141Z" fill="white"/>
<path d="M138.686 51.3214C138.686 51.3676 138.72 51.3931 138.72 51.4393C139.289 53.4269 140.236 55.2966 141.661 56.8843C144.245 59.7907 147.956 61.4453 151.839 61.4453C155.199 61.4453 158.445 60.202 160.961 57.9616C163.685 55.5145 165.299 52.1638 165.494 48.5093C165.689 44.868 164.459 41.3635 162.025 38.6523C160.634 37.0873 158.905 35.927 157.004 35.1572C156.93 35.1346 156.889 35.0516 156.827 35.0516C156.792 35.0516 156.764 35.0516 156.74 35.0516C156.74 35.0516 156.74 35.0516 156.734 35.0516C155.166 34.4506 153.53 34.0752 151.829 34.0752C150.593 34.0752 149.393 34.2931 148.227 34.6289C148.199 34.6289 148.188 34.6035 148.165 34.6035C147.952 34.6176 147.826 34.7299 147.665 34.7761C145.838 35.3761 144.139 36.2807 142.702 37.5825C141.243 38.8947 140.129 40.4635 139.371 42.2096C139.302 42.3474 139.182 42.4766 139.164 42.6577C139.164 42.6926 139.182 42.7068 139.182 42.7294C138.642 44.0765 138.262 45.5123 138.182 47.0178C138.101 48.4885 138.308 49.9243 138.687 51.3053C138.686 51.3101 138.686 51.31 138.686 51.3214ZM162.558 48.3461C162.507 49.3083 162.277 50.2271 161.99 51.1374L157.435 50.8733L157.75 45.1632L162.272 45.4047C162.491 46.3556 162.622 47.3433 162.558 48.3461ZM154.494 50.7101L148.778 50.3969L149.088 44.6868L154.809 44.9972L154.494 50.7101ZM145.843 50.2394L141.385 49.9865C141.19 49.0677 141.058 48.1395 141.11 47.1688C141.179 46.1688 141.408 45.2047 141.719 44.2878L146.141 44.5293L145.843 50.2394ZM142.495 52.9986L145.688 53.1798L145.515 56.3852C144.906 55.9626 144.35 55.4806 143.855 54.9259C143.315 54.3287 142.879 53.6741 142.495 52.9986ZM148.388 57.7861L148.629 53.3373L154.333 53.6505L154.092 58.1191C152.197 58.4983 150.232 58.3729 148.388 57.7861ZM157.102 57.0748L157.275 53.809L160.56 53.9929C160.117 54.6099 159.595 55.2221 158.998 55.7617C158.417 56.2786 157.774 56.7097 157.102 57.0748ZM161.128 42.3926L157.906 42.2228L158.073 39.0523C158.698 39.4975 159.302 40.0164 159.83 40.6286C160.325 41.1625 160.767 41.7634 161.128 42.3926ZM155.206 37.6335L154.965 42.0568L149.249 41.7465L149.49 37.3118C150.249 37.1392 151.03 37.0099 151.823 37.0099C152.995 37.0279 154.126 37.2797 155.206 37.6335ZM146.481 38.4863L146.314 41.588L143.207 41.4153C143.626 40.8267 144.12 40.2805 144.694 39.7749C145.235 39.2815 145.843 38.8513 146.481 38.4863Z" fill="white"/>
<path d="M52.7545 42.6684C52.7432 42.5325 52.631 42.4505 52.5913 42.3241C51.8216 40.5402 50.7047 38.912 49.2132 37.5762C47.8199 36.3216 46.1804 35.4282 44.4371 34.8396C44.2447 34.7245 44.072 34.5981 43.84 34.5981C43.8022 34.5981 43.7739 34.5981 43.7447 34.5981C43.722 34.5981 43.7069 34.6236 43.673 34.6236C42.5155 34.2877 41.3146 34.0698 40.0798 34.0698C38.3799 34.0698 36.7394 34.4462 35.1744 35.0462C35.1688 35.0462 35.1688 35.0462 35.1688 35.0462C35.1461 35.0462 35.114 35.0462 35.0801 35.0462C34.9971 35.0462 34.9565 35.1292 34.9046 35.1528C33.0095 35.9225 31.2803 37.0829 29.8813 38.6479C27.4456 41.359 26.2164 44.8635 26.4089 48.5048C26.6042 52.1584 28.2267 55.5101 30.9435 57.9571C33.4623 60.1976 36.7017 61.4409 40.0685 61.4409C43.9484 61.4409 47.6624 59.7863 50.2386 56.8911C51.6603 55.3026 52.6196 53.4329 53.18 51.4339C53.18 51.3877 53.2262 51.3622 53.2262 51.316C53.2262 51.3047 53.2149 51.3047 53.2149 51.2934C53.58 49.918 53.8092 48.4765 53.7205 47.0059C53.6375 45.4984 53.2668 44.0768 52.7206 42.7184C52.7319 42.7052 52.7545 42.692 52.7545 42.6684ZM29.3559 48.3464C29.2983 47.3436 29.4455 46.3559 29.6512 45.405L34.1867 45.1635L34.5028 50.8736L29.9568 51.1377C29.6408 50.2274 29.4106 49.3086 29.3559 48.3464ZM37.1158 44.9975L42.8315 44.6871L43.1447 50.3972L37.4318 50.7104L37.1158 44.9975ZM45.7672 44.5296L50.1849 44.2881C50.515 45.205 50.7443 46.1691 50.7962 47.1691C50.8509 48.1341 50.7273 49.0624 50.532 49.9868L46.0634 50.2396L45.7672 44.5296ZM48.7312 41.4156L45.6087 41.5883L45.4559 38.4865C46.0795 38.8516 46.703 39.2818 47.2681 39.7761C47.8029 40.2817 48.2972 40.827 48.7312 41.4156ZM42.4268 37.3178L42.6683 41.7515L36.9385 42.076L36.697 37.6385C37.7969 37.2791 38.9082 37.0272 40.0741 37.0272C40.8845 37.0281 41.6684 37.1395 42.4268 37.3178ZM33.833 39.0526L34.0028 42.2231L30.786 42.3929C31.1501 41.7637 31.5784 41.1638 32.0869 40.6119C32.6151 40.0176 33.2104 39.4978 33.833 39.0526ZM31.3633 53.9989L34.6631 53.8149L34.8329 57.1147C34.1698 56.7506 33.5085 56.2987 32.9406 55.7676C32.3284 55.228 31.8199 54.6281 31.3633 53.9989ZM37.8394 58.2439L37.5922 53.6517L43.2956 53.3385L43.5428 57.8675C42.4372 58.2439 41.2797 58.4986 40.0845 58.4986C39.3223 58.4986 38.5752 58.3986 37.8394 58.2439ZM46.4162 56.4346L46.2379 53.18L49.4321 52.9989C49.05 53.6857 48.6019 54.346 48.0737 54.9262C47.5624 55.4922 47.0077 55.9921 46.4162 56.4346Z" fill="white"/>
</svg>
