<svg width="16" height="14" viewBox="0 0 16 14" fill="none" xmlns="http://www.w3.org/2000/svg">
<g clip-path="url(#clip0_20_597)">
<path d="M6.50244 1.20801C7.31494 1.20801 8.08512 1.36458 8.81299 1.67773C9.54932 1.99089 10.1841 2.41406 10.7173 2.94727C11.2505 3.48047 11.6737 4.11523 11.9868 4.85156C12.3 5.58789 12.4565 6.35807 12.4565 7.16211C12.4565 7.97461 12.3 8.74902 11.9868 9.48535C11.6737 10.2217 11.2505 10.8564 10.7173 11.3896C10.1841 11.9144 9.55355 12.3376 8.82568 12.6592C8.08936 12.9723 7.31494 13.1289 6.50244 13.1289C5.68994 13.1289 4.91976 12.9723 4.19189 12.6592C3.45557 12.3376 2.8208 11.9144 2.2876 11.3896C1.75439 10.8564 1.33122 10.2217 1.01807 9.48535C0.704915 8.74902 0.54834 7.97461 0.54834 7.16211C0.54834 6.35807 0.704915 5.58789 1.01807 4.85156C1.33122 4.11523 1.75439 3.48047 2.2876 2.94727C2.8208 2.41406 3.45133 1.99089 4.1792 1.67773C4.91553 1.36458 5.68994 1.20801 6.50244 1.20801ZM6.50244 2.28711C5.84229 2.28711 5.21175 2.41829 4.61084 2.68066C4.00993 2.93457 3.48942 3.28158 3.04932 3.72168C2.61768 4.15332 2.27067 4.6696 2.0083 5.27051C1.75439 5.87142 1.62744 6.50195 1.62744 7.16211C1.62744 7.82227 1.75439 8.45703 2.0083 9.06641C2.27067 9.66732 2.61768 10.1836 3.04932 10.6152C3.48942 11.0469 4.00993 11.3939 4.61084 11.6562C5.21175 11.9102 5.84229 12.0371 6.50244 12.0371C7.1626 12.0371 7.79313 11.9102 8.39404 11.6562C8.99495 11.3939 9.51546 11.0469 9.95557 10.6152C10.3872 10.1836 10.73 9.66732 10.9839 9.06641C11.2463 8.45703 11.3774 7.82227 11.3774 7.16211C11.3774 6.50195 11.2505 5.87142 10.9966 5.27051C10.7342 4.6696 10.3872 4.15332 9.95557 3.72168C9.51546 3.28158 8.99495 2.93457 8.39404 2.68066C7.79313 2.41829 7.1626 2.28711 6.50244 2.28711ZM6.50244 3.37891C6.65479 3.37891 6.78174 3.42969 6.8833 3.53125C6.99333 3.64128 7.04834 3.76823 7.04834 3.91211V6.94629L8.5083 8.40625C8.61833 8.50781 8.67334 8.63477 8.67334 8.78711C8.67334 8.93945 8.61833 9.07064 8.5083 9.18066C8.40674 9.28223 8.27979 9.33301 8.12744 9.33301C7.9751 9.33301 7.84814 9.28223 7.74658 9.18066L6.12158 7.55566C6.01156 7.44564 5.95654 7.31445 5.95654 7.16211V3.91211C5.95654 3.76823 6.01156 3.64128 6.12158 3.53125C6.22314 3.42969 6.3501 3.37891 6.50244 3.37891Z" fill="#7F7F7F"/>
</g>
<defs>
<clipPath id="clip0_20_597">
<rect width="15" height="13" fill="white" transform="matrix(1 0 0 -1 0.54834 13.3945)"/>
</clipPath>
</defs>
</svg>
