<svg width="49" height="49" viewBox="0 0 49 49" fill="none" xmlns="http://www.w3.org/2000/svg">
<rect x="0.588333" y="0.484375" width="48" height="48" rx="24" fill="#3B4842"/>
<g clip-path="url(#clip0_20_591)">
<path d="M32.3051 21.6367C32.3051 21.0859 32.2348 20.6055 32.0942 20.1953C31.9418 19.7852 31.7543 19.457 31.5317 19.2109C31.309 18.9648 31.0395 18.7656 30.7231 18.6133C30.395 18.4609 30.0786 18.3555 29.7739 18.2969C29.4692 18.2383 29.1411 18.209 28.7895 18.209C28.4379 18.209 28.0629 18.2969 27.6645 18.4727C27.2661 18.6484 26.8969 18.8652 26.5571 19.123C26.2172 19.3809 25.9243 19.6211 25.6782 19.8438C25.4438 20.0664 25.2446 20.2715 25.0805 20.459C24.9633 20.5996 24.7993 20.6699 24.5883 20.6699C24.3774 20.6699 24.2133 20.5996 24.0961 20.459C23.9321 20.2715 23.7329 20.0664 23.4985 19.8438C23.2524 19.6211 22.9594 19.3809 22.6196 19.123C22.2797 18.8652 21.9106 18.6484 21.5122 18.4727C21.1137 18.2969 20.7387 18.209 20.3872 18.209C20.0356 18.209 19.7075 18.2383 19.4028 18.2969C19.0981 18.3555 18.7817 18.4609 18.4536 18.6133C18.1372 18.7656 17.8676 18.9648 17.645 19.2109C17.4223 19.457 17.2348 19.7852 17.0825 20.1953C16.9418 20.6055 16.8715 21.0859 16.8715 21.6367C16.8715 22.7617 17.4985 23.9512 18.7524 25.2051L24.5883 30.8301L30.4067 25.2051C31.6723 23.9512 32.3051 22.7617 32.3051 21.6367ZM33.5883 21.6367C33.5883 23.1133 32.8208 24.6191 31.2856 26.1543L25.0278 32.1836C24.9106 32.3008 24.7641 32.3594 24.5883 32.3594C24.4126 32.3594 24.2661 32.3008 24.1489 32.1836L17.8735 26.1367C17.8149 26.0781 17.727 25.9902 17.6098 25.873C17.4926 25.7559 17.3051 25.5332 17.0473 25.2051C16.7895 24.8887 16.561 24.5664 16.3618 24.2383C16.1626 23.8984 15.9809 23.4941 15.8168 23.0254C15.6645 22.5449 15.5883 22.082 15.5883 21.6367C15.5883 20.1602 16.0161 19.0059 16.8715 18.1738C17.7153 17.3418 18.8872 16.9258 20.3872 16.9258C20.809 16.9258 21.2309 17.002 21.6528 17.1543C22.0864 17.2949 22.4907 17.4883 22.8657 17.7344C23.2407 17.9805 23.5629 18.209 23.8325 18.4199C24.0903 18.6309 24.3422 18.8594 24.5883 19.1055C24.8344 18.8594 25.0864 18.6309 25.3442 18.4199C25.6137 18.209 25.936 17.9805 26.311 17.7344C26.686 17.4883 27.0903 17.2949 27.5239 17.1543C27.9458 17.002 28.3676 16.9258 28.7895 16.9258C30.2895 16.9258 31.4614 17.3418 32.3051 18.1738C33.1606 19.0059 33.5883 20.1602 33.5883 21.6367Z" fill="white"/>
</g>
<defs>
<clipPath id="clip0_20_591">
<rect width="18" height="18" fill="white" transform="matrix(1 0 0 -1 15.5883 33.4844)"/>
</clipPath>
</defs>
</svg>
