<svg width="41" height="41" viewBox="0 0 41 41" fill="none" xmlns="http://www.w3.org/2000/svg">
<rect x="0.108337" y="0.331055" width="40" height="40" rx="20" fill="#864982"/>
<g clip-path="url(#clip0_9_229)">
<path d="M25.4052 25.2061V19.4248H24.2021C24.3271 19.7998 24.3896 20.1904 24.3896 20.5967C24.3896 21.3467 24.1969 22.0342 23.8115 22.6592C23.426 23.2946 22.9104 23.7998 22.2646 24.1748C21.6083 24.5394 20.8896 24.7217 20.1083 24.7217C18.9417 24.7217 17.9417 24.3206 17.1083 23.5186C16.275 22.7061 15.8583 21.7321 15.8583 20.5967C15.8583 20.1904 15.9156 19.7998 16.0302 19.4248H14.7802V25.2061C14.7802 25.3623 14.8323 25.4925 14.9365 25.5967C15.0406 25.7008 15.1708 25.7529 15.3271 25.7529H24.8583C25.0146 25.7529 25.1448 25.7008 25.249 25.5967C25.3531 25.4925 25.4052 25.3623 25.4052 25.2061ZM22.874 20.4404C22.874 19.7113 22.6031 19.0863 22.0615 18.5654C21.5302 18.0446 20.8792 17.7842 20.1083 17.7842C19.3583 17.7842 18.7125 18.0446 18.1708 18.5654C17.6292 19.0863 17.3583 19.7113 17.3583 20.4404C17.3583 21.18 17.6292 21.8102 18.1708 22.3311C18.7125 22.8519 19.3583 23.1123 20.1083 23.1123C20.8792 23.1123 21.5302 22.8519 22.0615 22.3311C22.6031 21.8102 22.874 21.18 22.874 20.4404ZM25.4052 17.2373V15.7529C25.4052 15.5863 25.3479 15.4456 25.2333 15.3311C25.1083 15.2061 24.9625 15.1436 24.7958 15.1436H23.2333C23.0667 15.1436 22.9208 15.2061 22.7958 15.3311C22.6813 15.4456 22.624 15.5863 22.624 15.7529V17.2373C22.624 17.404 22.6813 17.5498 22.7958 17.6748C22.9208 17.7894 23.0667 17.8467 23.2333 17.8467H24.7958C24.9625 17.8467 25.1083 17.7894 25.2333 17.6748C25.3479 17.5498 25.4052 17.404 25.4052 17.2373ZM26.9677 15.3779V25.5654C26.9677 26.055 26.7958 26.4717 26.4521 26.8154C26.0979 27.1592 25.6813 27.3311 25.2021 27.3311H15.0146C14.525 27.3311 14.1083 27.1592 13.7646 26.8154C13.4208 26.4717 13.249 26.055 13.249 25.5654V15.3779C13.249 14.8988 13.4208 14.4821 13.7646 14.1279C14.1083 13.7842 14.525 13.6123 15.0146 13.6123H25.2021C25.6813 13.6123 26.0979 13.7842 26.4521 14.1279C26.7958 14.4821 26.9677 14.8988 26.9677 15.3779Z" fill="white"/>
</g>
<defs>
<clipPath id="clip0_9_229">
<rect width="13.72" height="16" fill="white" transform="matrix(1 0 0 -1 13.2484 28.3311)"/>
</clipPath>
</defs>
</svg>
