<svg width="16" height="14" viewBox="0 0 16 14" fill="none" xmlns="http://www.w3.org/2000/svg">
<g clip-path="url(#clip0_20_594)">
<path d="M12.8258 1.61328H9.57584V0.800781C9.57584 0.690755 9.53563 0.59554 9.45523 0.515137C9.37483 0.434733 9.27961 0.394531 9.16959 0.394531C9.05956 0.394531 8.96434 0.434733 8.88394 0.515137C8.80354 0.59554 8.76334 0.690755 8.76334 0.800781V1.61328H5.51334V0.800781C5.51334 0.690755 5.47313 0.59554 5.39273 0.515137C5.31233 0.434733 5.21711 0.394531 5.10709 0.394531C4.99706 0.394531 4.90185 0.434733 4.82144 0.515137C4.74104 0.59554 4.70084 0.690755 4.70084 0.800781V1.61328H1.45084C1.22232 1.61328 1.02977 1.69157 0.873199 1.84814C0.716624 2.00472 0.638336 2.19727 0.638336 2.42578V12.582C0.638336 12.8021 0.716624 12.9925 0.873199 13.1533C1.02977 13.3141 1.22232 13.3945 1.45084 13.3945H12.8258C13.0544 13.3945 13.2469 13.3141 13.4035 13.1533C13.56 12.9925 13.6383 12.8021 13.6383 12.582V2.42578C13.6383 2.19727 13.56 2.00472 13.4035 1.84814C13.2469 1.69157 13.0544 1.61328 12.8258 1.61328ZM12.8258 12.582H1.45084V2.42578H4.70084V2.83203C4.70084 2.94206 4.74104 3.03727 4.82144 3.11768C4.90185 3.19808 4.99706 3.23828 5.10709 3.23828C5.21711 3.23828 5.31233 3.19808 5.39273 3.11768C5.47313 3.03727 5.51334 2.94206 5.51334 2.83203V2.42578H8.76334V2.83203C8.76334 2.94206 8.80354 3.03727 8.88394 3.11768C8.96434 3.19808 9.05956 3.23828 9.16959 3.23828C9.27961 3.23828 9.37483 3.19808 9.45523 3.11768C9.53563 3.03727 9.57584 2.94206 9.57584 2.83203V2.42578H12.8258V12.582ZM9.98209 6.89453H10.7946C10.9046 6.89453 10.9998 6.85433 11.0802 6.77393C11.1606 6.69352 11.2008 6.59831 11.2008 6.48828V5.67578C11.2008 5.56576 11.1606 5.47054 11.0802 5.39014C10.9998 5.30973 10.9046 5.26953 10.7946 5.26953H9.98209C9.87206 5.26953 9.77684 5.30973 9.69644 5.39014C9.61604 5.47054 9.57584 5.56576 9.57584 5.67578V6.48828C9.57584 6.59831 9.61604 6.69352 9.69644 6.77393C9.77684 6.85433 9.87206 6.89453 9.98209 6.89453ZM9.98209 10.1445H10.7946C10.9046 10.1445 10.9998 10.1043 11.0802 10.0239C11.1606 9.94352 11.2008 9.84831 11.2008 9.73828V8.92578C11.2008 8.81576 11.1606 8.72054 11.0802 8.64014C10.9998 8.55973 10.9046 8.51953 10.7946 8.51953H9.98209C9.87206 8.51953 9.77684 8.55973 9.69644 8.64014C9.61604 8.72054 9.57584 8.81576 9.57584 8.92578V9.73828C9.57584 9.84831 9.61604 9.94352 9.69644 10.0239C9.77684 10.1043 9.87206 10.1445 9.98209 10.1445ZM7.54459 8.51953H6.73209C6.62206 8.51953 6.52685 8.55973 6.44644 8.64014C6.36604 8.72054 6.32584 8.81576 6.32584 8.92578V9.73828C6.32584 9.84831 6.36604 9.94352 6.44644 10.0239C6.52685 10.1043 6.62206 10.1445 6.73209 10.1445H7.54459C7.65461 10.1445 7.74983 10.1043 7.83023 10.0239C7.91063 9.94352 7.95084 9.84831 7.95084 9.73828V8.92578C7.95084 8.81576 7.91063 8.72054 7.83023 8.64014C7.74983 8.55973 7.65461 8.51953 7.54459 8.51953ZM7.54459 5.26953H6.73209C6.62206 5.26953 6.52685 5.30973 6.44644 5.39014C6.36604 5.47054 6.32584 5.56576 6.32584 5.67578V6.48828C6.32584 6.59831 6.36604 6.69352 6.44644 6.77393C6.52685 6.85433 6.62206 6.89453 6.73209 6.89453H7.54459C7.65461 6.89453 7.74983 6.85433 7.83023 6.77393C7.91063 6.69352 7.95084 6.59831 7.95084 6.48828V5.67578C7.95084 5.56576 7.91063 5.47054 7.83023 5.39014C7.74983 5.30973 7.65461 5.26953 7.54459 5.26953ZM4.29459 5.26953H3.48209C3.37206 5.26953 3.27685 5.30973 3.19644 5.39014C3.11604 5.47054 3.07584 5.56576 3.07584 5.67578V6.48828C3.07584 6.59831 3.11604 6.69352 3.19644 6.77393C3.27685 6.85433 3.37206 6.89453 3.48209 6.89453H4.29459C4.40461 6.89453 4.49983 6.85433 4.58023 6.77393C4.66063 6.69352 4.70084 6.59831 4.70084 6.48828V5.67578C4.70084 5.56576 4.66063 5.47054 4.58023 5.39014C4.49983 5.30973 4.40461 5.26953 4.29459 5.26953ZM4.29459 8.51953H3.48209C3.37206 8.51953 3.27685 8.55973 3.19644 8.64014C3.11604 8.72054 3.07584 8.81576 3.07584 8.92578V9.73828C3.07584 9.84831 3.11604 9.94352 3.19644 10.0239C3.27685 10.1043 3.37206 10.1445 3.48209 10.1445H4.29459C4.40461 10.1445 4.49983 10.1043 4.58023 10.0239C4.66063 9.94352 4.70084 9.84831 4.70084 9.73828V8.92578C4.70084 8.81576 4.66063 8.72054 4.58023 8.64014C4.49983 8.55973 4.40461 8.51953 4.29459 8.51953Z" fill="#7F7F7F"/>
</g>
<defs>
<clipPath id="clip0_20_594">
<rect width="15" height="13" fill="white" transform="matrix(1 0 0 -1 0.638336 13.3945)"/>
</clipPath>
</defs>
</svg>
