<svg width="96" height="96" viewBox="0 0 96 96" fill="none" xmlns="http://www.w3.org/2000/svg">
<g clip-path="url(#clip0_9_64)">
<path d="M48 5.0588V34.2535L33.1058 17.3168C33.1058 17.3168 27.4384 10.0671 32.9737 4.59716C38.0131 -0.381439 45.0342 1.89559 48 5.0588Z" fill="#E1549B"/>
<path d="M48 5.0588V34.2535L62.8942 17.3168C62.8942 17.3168 68.5616 10.0671 63.0263 4.59716C57.9869 -0.381439 50.9658 1.89559 48 5.0588Z" fill="#DD1A72"/>
<path d="M30.7634 95.2075C14.0746 95.2075 0.5 81.6314 0.5 64.9441C0.5 48.2582 14.0761 34.6821 30.7634 34.6821C47.4493 34.6821 61.0254 48.2582 61.0254 64.9441C61.0239 81.6314 47.4493 95.2075 30.7634 95.2075ZM30.7634 40.6211C17.3506 40.6211 6.4375 51.5313 6.4375 64.9441C6.4375 78.3569 17.3506 89.27 30.7634 89.27C44.1763 89.27 55.0879 78.3569 55.0879 64.9441C55.0879 51.5313 44.1763 40.6211 30.7634 40.6211Z" fill="#FFEABA"/>
<path d="M65.2366 95.2075C48.5507 95.2075 34.9746 81.6314 34.9746 64.9441C34.9746 48.2582 48.5507 34.6821 65.2366 34.6821C81.9239 34.6836 95.5 48.2582 95.5 64.9441C95.5 81.6314 81.9239 95.2075 65.2366 95.2075ZM65.2366 40.6211C51.8237 40.6211 40.9121 51.5328 40.9121 64.9456C40.9121 78.3584 51.8237 89.27 65.2366 89.27C78.6494 89.27 89.5625 78.3569 89.5625 64.9441C89.5625 51.5313 78.6494 40.6211 65.2366 40.6211Z" fill="#FFC590"/>
</g>
<defs>
<clipPath id="clip0_9_64">
<rect width="95" height="95" fill="white" transform="translate(0.5 0.949707)"/>
</clipPath>
</defs>
</svg>
